<svg width="1163" height="246" viewBox="0 0 1163 246" fill="none" xmlns="http://www.w3.org/2000/svg">
<path d="M1162.65 176.976C1165.5 154.851 1150.76 142.878 1130.42 134.939L1137.05 104.874L1121.05 100.319L1114.65 129.602C1110.42 128.431 1106.08 127.26 1101.74 126.219L1108.14 96.8052L1092.14 92.25L1085.62 122.184C1082.08 121.273 1078.65 120.362 1075.34 119.451V119.321L1053.17 113.074L1048.94 132.596C1048.94 132.596 1060.83 135.719 1060.6 135.85C1067.11 137.672 1068.25 142.617 1068.02 146.522L1060.48 180.751C1060.94 180.881 1061.51 181.011 1062.2 181.401C1061.63 181.271 1061.05 181.141 1060.48 180.881L1049.97 228.775C1049.17 230.988 1047.11 234.372 1042.66 233.07C1042.77 233.33 1031 229.816 1031 229.816L1023 250.77L1043.91 256.757C1047.8 257.928 1051.57 258.969 1055.34 260.141L1048.71 290.465L1064.71 295.02L1071.34 264.956C1075.68 266.258 1080.02 267.559 1084.14 268.731L1077.62 298.665L1093.62 303.22L1100.25 272.895C1127.68 278.752 1148.25 276.409 1156.82 248.167C1163.79 225.521 1156.47 212.377 1142.08 203.787C1152.7 201.054 1160.59 193.115 1162.65 176.976ZM1125.96 235.543C1121.05 258.189 1087.45 245.955 1076.6 242.831L1085.39 202.615C1096.25 205.739 1131.22 211.856 1125.96 235.543ZM1130.99 176.586C1126.42 197.279 1098.54 186.737 1089.51 184.134L1097.51 147.693C1106.54 150.296 1135.68 155.111 1130.99 176.586Z" fill="url(#paint0_linear)"/>
<path d="M79.4099 177.307L0 123.935L79.3614 251.348L158.812 123.935L79.3614 177.307H79.4099ZM80.5901 -43.2808L1.21261 106.764L80.5901 160.228L160 106.819L80.5901 -43.2808Z" fill="url(#paint1_linear)"/>
<defs>
<linearGradient id="paint0_linear" x1="1093" y1="92.25" x2="1093" y2="303.22" gradientUnits="userSpaceOnUse">
<stop stop-color="white" stop-opacity="0.16"/>
<stop offset="1" stop-color="white" stop-opacity="0"/>
</linearGradient>
<linearGradient id="paint1_linear" x1="80" y1="-43.2808" x2="80" y2="212.302" gradientUnits="userSpaceOnUse">
<stop stop-color="white" stop-opacity="0.16"/>
<stop offset="1" stop-color="white" stop-opacity="0"/>
</linearGradient>
</defs>
</svg>
