<svg width="604" height="604" viewBox="0 0 604 604" fill="none" xmlns="http://www.w3.org/2000/svg">
<g opacity="0.3">
<path opacity="0.3" d="M603.935 574.146V565.437L601.545 564.095C600.864 568.197 596.026 570.919 591.965 571.482L564.432 587.598L552.423 591.933L514.048 572.124L514.941 571.619C511.658 570.083 509.889 566.584 508.121 563.376L505.537 564.912L504.002 565.359V574.282C504.104 575.296 504.469 576.266 505.063 577.095C505.656 577.924 506.456 578.583 507.383 579.006L545.875 601.206C548.407 602.481 551.202 603.146 554.036 603.146C556.871 603.146 559.666 602.481 562.197 601.206L600.631 579.006C601.542 578.588 602.329 577.943 602.918 577.133C603.507 576.323 603.877 575.374 603.993 574.379C604.002 574.302 604.002 574.223 603.993 574.146H603.935Z" fill="url(#paint0_linear)"/>
<path opacity="0.3" d="M591.965 571.482L564.431 587.598L553.978 591.37V603.15C556.819 603.209 559.628 602.54 562.138 601.206L600.573 579.006C601.483 578.588 602.271 577.943 602.859 577.133C603.448 576.323 603.818 575.374 603.934 574.379C603.944 574.302 603.944 574.223 603.934 574.146V565.437L601.738 564.212H601.505C600.767 568.255 595.987 570.841 591.965 571.482Z" fill="#0F054C"/>
<path opacity="0.3" d="M545.876 592.342L507.442 570.141C502.934 567.556 502.934 563.318 507.442 560.713L545.876 538.512C548.407 537.237 551.202 536.573 554.037 536.573C556.871 536.573 559.666 537.237 562.198 538.512L600.632 560.713C605.12 563.318 605.12 567.556 600.632 570.141L562.198 592.342C559.669 593.626 556.873 594.295 554.037 594.295C551.201 594.295 548.405 593.626 545.876 592.342Z" fill="url(#paint1_linear)"/>
<g opacity="0.3">
<path opacity="0.3" d="M545.876 592.342L507.442 570.141C502.934 567.556 502.934 563.318 507.442 560.713L545.876 538.512C548.407 537.237 551.202 536.573 554.037 536.573C556.871 536.573 559.666 537.237 562.198 538.512L600.632 560.713C605.12 563.318 605.12 567.556 600.632 570.141L562.198 592.342C559.669 593.626 556.873 594.295 554.037 594.295C551.201 594.295 548.405 593.626 545.876 592.342Z" fill="#0F054C"/>
</g>
</g>
<path d="M553.977 564.29C551.454 564.335 548.961 563.74 546.73 562.56L508.296 540.359C507.388 540.04 506.602 539.447 506.045 538.662C505.489 537.877 505.19 536.938 505.19 535.975C505.19 535.013 505.489 534.074 506.045 533.289C506.602 532.504 507.388 531.91 508.296 531.592L546.73 509.391C548.975 508.26 551.454 507.67 553.968 507.67C556.482 507.67 558.961 508.26 561.206 509.391L599.659 531.592C600.567 531.91 601.353 532.504 601.91 533.289C602.466 534.074 602.765 535.013 602.765 535.975C602.765 536.938 602.466 537.877 601.91 538.662C601.353 539.447 600.567 540.04 599.659 540.359L561.225 562.56C558.994 563.74 556.501 564.335 553.977 564.29ZM553.977 508.341C551.571 508.293 549.191 508.855 547.06 509.974L508.626 532.175C507.828 532.44 507.134 532.95 506.642 533.632C506.15 534.314 505.885 535.134 505.885 535.975C505.885 536.817 506.15 537.636 506.642 538.319C507.134 539.001 507.828 539.511 508.626 539.776L547.06 561.976C549.202 563.059 551.568 563.624 553.968 563.624C556.367 563.624 558.734 563.059 560.875 561.976L599.31 539.737C600.108 539.472 600.802 538.962 601.294 538.28C601.786 537.598 602.051 536.778 602.051 535.936C602.051 535.095 601.786 534.275 601.294 533.593C600.802 532.911 600.108 532.401 599.31 532.136L560.875 509.935C558.747 508.832 556.374 508.283 553.977 508.341Z" fill="#42E8E0"/>
<path opacity="0.4" d="M603.935 527.451V514.29L601.545 512.949C600.864 517.07 596.026 519.772 591.965 520.336L564.432 536.452L552.423 540.787L514.048 520.977L514.941 520.472C511.658 518.936 509.889 515.437 508.121 512.229L505.537 513.765L504.002 514.212V527.587C504.104 528.601 504.469 529.571 505.063 530.4C505.656 531.229 506.456 531.888 507.383 532.311L545.875 554.511C548.404 555.795 551.2 556.465 554.036 556.465C556.872 556.465 559.668 555.795 562.197 554.511L600.631 532.311C601.542 531.893 602.329 531.248 602.918 530.438C603.507 529.628 603.877 528.679 603.993 527.684C604.002 527.607 604.002 527.528 603.993 527.451H603.935Z" fill="#42E8E0"/>
<path d="M603.935 515.748V507.039L601.545 505.697C600.864 509.819 596.026 512.521 591.965 513.085L564.432 529.2L552.423 533.535L514.048 513.726L514.941 513.221C511.658 511.685 509.889 508.186 508.121 504.978L505.537 506.533L504.002 506.961V515.884C504.104 516.898 504.469 517.868 505.063 518.697C505.656 519.526 506.456 520.185 507.383 520.608L545.875 542.808C548.404 544.092 551.2 544.762 554.036 544.762C556.872 544.762 559.668 544.092 562.197 542.808L600.631 520.608C601.542 520.19 602.329 519.545 602.918 518.735C603.507 517.925 603.877 516.976 603.993 515.981C604.002 515.904 604.002 515.825 603.993 515.748H603.935Z" fill="url(#paint2_linear)"/>
<path d="M545.876 533.904L507.442 511.704C502.934 509.099 502.934 504.861 507.442 502.275L545.876 480.133C548.405 478.849 551.201 478.18 554.037 478.18C556.873 478.18 559.669 478.849 562.198 480.133L600.632 502.334C605.12 504.919 605.12 509.157 600.632 511.762L562.139 533.904C559.615 535.17 556.831 535.829 554.007 535.829C551.184 535.829 548.4 535.17 545.876 533.904Z" fill="url(#paint3_linear)"/>
<path d="M600.572 511.763L562.138 533.905C559.606 535.18 556.811 535.844 553.977 535.844C551.143 535.844 548.348 535.18 545.816 533.905L507.382 511.705C506.543 511.309 505.806 510.727 505.227 510.002C504.647 509.278 504.241 508.43 504.04 507.525C503.768 509.469 504.895 511.413 507.382 512.774L545.874 535.033C548.403 536.317 551.199 536.986 554.035 536.986C556.871 536.986 559.667 536.317 562.196 535.033L600.63 512.832C601.656 512.405 602.526 511.672 603.121 510.733C603.715 509.794 604.006 508.694 603.953 507.583C603.746 508.492 603.333 509.341 602.747 510.066C602.161 510.79 601.417 511.371 600.572 511.763Z" fill="white"/>
<path d="M534.677 506L447.253 453.683L419.458 469.718H419.135L365 437.81L365.323 437L419.458 468.746L447.253 452.711L447.899 453.035L535 505.19L534.677 506Z" fill="url(#paint4_linear)"/>
<g opacity="0.3">
<path opacity="0.3" d="M99.9995 573.204V564.494L97.5889 563.153C96.9085 567.274 92.068 569.977 88.0244 570.54L60.4585 586.656L48.4445 590.991L10.0505 571.182L10.9447 570.676C7.65938 569.141 5.89032 565.641 4.12128 562.434L1.53578 563.989L0 564.417V573.34C0.10176 574.354 0.467602 575.324 1.06111 576.153C1.65462 576.982 2.45504 577.641 3.38255 578.064L41.8349 600.264C44.365 601.548 47.1624 602.218 49.9998 602.218C52.8371 602.218 55.6344 601.548 58.1645 600.264L96.6169 578.064C97.5313 577.649 98.3232 577.005 98.9158 576.194C99.5084 575.384 99.8817 574.434 99.9995 573.437C99.9995 573.437 99.9995 573.281 99.9995 573.204Z" fill="url(#paint5_linear)"/>
<path opacity="0.3" d="M88.0237 570.578L60.4578 586.694L49.999 590.466V602.246C52.8418 602.305 55.6524 601.636 58.1638 600.302L96.6162 578.102C97.5306 577.687 98.3225 577.043 98.9151 576.233C99.5077 575.422 99.8809 574.472 99.9988 573.475C99.9988 573.475 99.9988 573.319 99.9988 573.242V564.533L97.7826 563.308H97.5493C96.8106 567.313 92.0284 569.976 88.0237 570.578Z" fill="#0F054C"/>
<path opacity="0.3" d="M41.8349 591.419L3.38257 569.218C-1.12752 566.613 -1.12752 562.375 3.38257 559.79L41.8349 537.531C44.3651 536.247 47.1624 535.577 49.9998 535.577C52.8371 535.577 55.6344 536.247 58.1646 537.531L96.6169 559.731C101.108 562.317 101.108 566.555 96.6169 569.16L58.1646 591.419C55.6317 592.694 52.8355 593.358 49.9998 593.358C47.1641 593.358 44.3678 592.694 41.8349 591.419Z" fill="url(#paint6_linear)"/>
<g opacity="0.3">
<path opacity="0.3" d="M41.8354 591.419L3.38305 569.218C-1.12703 566.613 -1.12703 562.375 3.38305 559.79L41.8354 537.531C44.3656 536.247 47.1629 535.577 50.0003 535.577C52.8376 535.577 55.6349 536.247 58.165 537.531L96.6174 559.731C101.108 562.317 101.108 566.555 96.6174 569.16L58.165 591.419C55.6322 592.694 52.836 593.358 50.0003 593.358C47.1646 593.358 44.3683 592.694 41.8354 591.419Z" fill="#0F054C"/>
</g>
</g>
<path d="M49.9997 559.11C47.4742 559.165 44.977 558.569 42.7485 557.379L4.29613 535.179C3.39469 534.856 2.61507 534.262 2.06386 533.479C1.51265 532.696 1.2168 531.762 1.2168 530.805C1.2168 529.847 1.51265 528.913 2.06386 528.13C2.61507 527.347 3.39469 526.754 4.29613 526.431L42.7485 504.23C44.9954 503.09 47.4798 502.495 49.9997 502.495C52.5195 502.495 55.0038 503.09 57.2507 504.23L95.7031 526.431C96.6046 526.754 97.3842 527.347 97.9354 528.13C98.4867 528.913 98.7825 529.847 98.7825 530.805C98.7825 531.762 98.4867 532.696 97.9354 533.479C97.3842 534.262 96.6046 534.856 95.7031 535.179L57.2507 557.379C55.0223 558.569 52.5251 559.165 49.9997 559.11ZM43.079 556.796C45.2217 557.879 47.589 558.444 49.9899 558.444C52.3908 558.444 54.7581 557.879 56.9008 556.796L95.3532 534.596C96.2122 534.4 96.9792 533.918 97.5286 533.229C98.0781 532.541 98.3773 531.686 98.3773 530.805C98.3773 529.924 98.0781 529.069 97.5286 528.38C96.9792 527.691 96.2122 527.21 95.3532 527.014L56.9008 504.814C54.7609 503.721 52.3925 503.152 49.9899 503.152C47.5873 503.152 45.219 503.721 43.079 504.814L4.62663 527.014C3.76764 527.21 3.00061 527.691 2.4512 528.38C1.90178 529.069 1.60254 529.924 1.60254 530.805C1.60254 531.686 1.90178 532.541 2.4512 533.229C3.00061 533.918 3.76764 534.4 4.62663 534.596L43.079 556.796Z" fill="#42E8E0"/>
<path opacity="0.4" d="M99.9995 522.29V509.11L97.5889 507.768C96.9085 511.89 92.068 514.592 88.0244 515.155L60.4585 531.271L48.4445 535.587L10.0505 515.778L10.9447 515.272C7.65938 513.736 5.89032 510.237 4.12128 507.03L1.53578 508.585L0 509.012V522.407C0.0933683 523.421 0.456185 524.392 1.05091 525.219C1.64563 526.046 2.45061 526.7 3.38255 527.111L41.8349 549.312C44.365 550.596 47.1624 551.265 49.9998 551.265C52.8371 551.265 55.6344 550.596 58.1645 549.312L96.6169 527.111C97.5313 526.696 98.3232 526.052 98.9158 525.242C99.5084 524.431 99.8817 523.482 99.9995 522.484C99.9995 522.484 99.9995 522.329 99.9995 522.251V522.29Z" fill="#42E8E0"/>
<path d="M99.9995 510.568V501.859L97.5889 500.517C96.9085 504.638 92.068 507.341 88.0244 507.904L60.4585 524.02L48.4445 528.355L10.0505 508.546L10.9447 508.04C7.65938 506.505 5.89032 503.006 4.12128 499.817L1.53578 501.353L0 501.781V510.723C0.105005 511.734 0.472354 512.7 1.06568 513.525C1.659 514.35 2.45768 515.006 3.38255 515.428L41.8349 537.628C44.365 538.912 47.1624 539.582 49.9998 539.582C52.8371 539.582 55.6344 538.912 58.1645 537.628L96.6169 515.428C97.5313 515.013 98.3232 514.369 98.9158 513.559C99.5084 512.748 99.8817 511.798 99.9995 510.801C99.9995 510.801 99.9995 510.645 99.9995 510.568Z" fill="url(#paint7_linear)"/>
<path d="M41.8349 528.783L3.38257 506.582C-1.12752 503.977 -1.12752 499.739 3.38257 497.154L41.8349 474.953C44.3651 473.669 47.1624 473 49.9998 473C52.8371 473 55.6344 473.669 58.1646 474.953L96.6169 497.154C101.108 499.759 101.108 503.977 96.6169 506.582L58.1646 528.783C55.6344 530.067 52.8371 530.736 49.9998 530.736C47.1624 530.736 44.3651 530.067 41.8349 528.783Z" fill="url(#paint8_linear)"/>
<path d="M50 524.739C47.719 524.79 45.4632 524.255 43.4487 523.184L13.4138 505.843C12.5926 505.552 11.8817 505.013 11.379 504.301C10.8763 503.589 10.6064 502.739 10.6064 501.868C10.6064 500.996 10.8763 500.146 11.379 499.434C11.8817 498.723 12.5926 498.184 13.4138 497.892L43.4487 480.552C45.4776 479.518 47.7226 478.978 50 478.978C52.2773 478.978 54.5223 479.518 56.5513 480.552L86.5861 497.892C87.4074 498.184 88.1182 498.723 88.6209 499.434C89.1236 500.146 89.3935 500.996 89.3935 501.868C89.3935 502.739 89.1236 503.589 88.6209 504.301C88.1182 505.013 87.4074 505.552 86.5861 505.843L56.5513 523.184C54.5368 524.255 52.2809 524.79 50 524.739ZM43.7791 522.601C45.7034 523.579 47.8316 524.089 49.9902 524.089C52.1489 524.089 54.2771 523.579 56.2013 522.601L86.2556 505.26C86.9767 505.032 87.6065 504.581 88.0535 503.971C88.5005 503.361 88.7415 502.624 88.7415 501.868C88.7415 501.112 88.5005 500.375 88.0535 499.765C87.6065 499.155 86.9767 498.703 86.2556 498.476L56.2013 481.154C54.2771 480.176 52.1489 479.666 49.9902 479.666C47.8316 479.666 45.7034 480.176 43.7791 481.154L13.7443 498.495C13.0693 498.789 12.4847 499.257 12.0507 499.851C11.6168 500.446 11.3491 501.145 11.2754 501.878C11.3517 502.612 11.6201 503.312 12.0535 503.91C12.487 504.507 13.0702 504.979 13.7443 505.28L43.7791 522.601Z" fill="#5351AF"/>
<path d="M96.6166 506.583L58.1642 528.783C55.6341 530.067 52.8368 530.737 49.9994 530.737C47.1621 530.737 44.3647 530.067 41.8346 528.783L3.38223 506.583C2.54315 506.187 1.80566 505.605 1.22613 504.88C0.646607 504.156 0.240385 503.309 0.0385404 502.403C-0.00591017 503.517 0.290329 504.618 0.887736 505.559C1.48514 506.501 2.35532 507.237 3.38223 507.671L41.8346 529.872C44.3674 531.147 47.1637 531.811 49.9994 531.811C52.8351 531.811 55.6314 531.147 58.1642 529.872L96.6166 507.671C97.6432 507.239 98.5124 506.502 99.1069 505.56C99.7013 504.618 99.9924 503.516 99.9409 502.403C99.7425 503.307 99.3397 504.154 98.7635 504.878C98.1873 505.603 97.4529 506.186 96.6166 506.583Z" fill="white"/>
<path d="M54.7094 521.441L141.839 471.308L169.723 486.352L170.046 486.35L224.002 455.768L223.674 455.002L169.718 485.43L141.834 470.386L141.189 470.697L54.3817 520.675L54.7094 521.441Z" fill="url(#paint9_linear)"/>
<g opacity="0.3">
<path opacity="0.3" d="M602.903 220.896V212.187L600.495 210.845C599.815 214.947 594.979 217.669 590.94 218.232L563.4 234.329L551.398 238.683L513.041 218.874L513.934 218.349C510.652 216.833 508.885 213.314 507.117 210.126L504.534 211.662L503 212.089V221.032C503.091 222.047 503.453 223.019 504.047 223.846C504.642 224.674 505.447 225.326 506.379 225.736L544.795 247.937C547.322 249.221 550.117 249.89 552.952 249.89C555.786 249.89 558.581 249.221 561.109 247.937L599.524 225.736C600.438 225.322 601.229 224.678 601.821 223.867C602.413 223.057 602.786 222.107 602.903 221.11V220.896Z" fill="url(#paint10_linear)"/>
<path opacity="0.3" d="M590.939 218.232L563.4 234.329L552.951 238.119V249.9C555.791 249.959 558.599 249.289 561.108 247.956L599.524 225.756C600.437 225.341 601.228 224.697 601.82 223.886C602.412 223.076 602.785 222.126 602.903 221.129V220.915V212.206L600.708 210.981H600.475C599.698 215.005 594.94 217.669 590.939 218.232Z" fill="#0F054C"/>
<path opacity="0.3" d="M544.794 239.091L506.476 216.891C501.97 214.286 501.97 210.067 506.476 207.462L544.794 185.184C547.322 183.9 550.117 183.231 552.951 183.231C555.786 183.231 558.58 183.9 561.108 185.184L599.524 207.385C604.029 209.99 604.029 214.208 599.524 216.813L561.108 239.014C558.587 240.31 555.795 240.992 552.961 241.006C550.126 241.019 547.328 240.363 544.794 239.091Z" fill="url(#paint11_linear)"/>
<g opacity="0.3">
<path opacity="0.3" d="M544.794 239.091L506.476 216.891C501.97 214.286 501.97 210.067 506.476 207.462L544.794 185.184C547.322 183.9 550.117 183.231 552.951 183.231C555.786 183.231 558.58 183.9 561.108 185.184L599.524 207.385C604.029 209.99 604.029 214.208 599.524 216.813L561.108 239.014C558.587 240.31 555.795 240.992 552.961 241.006C550.126 241.019 547.328 240.363 544.794 239.091Z" fill="#0F054C"/>
</g>
</g>
<path d="M552.953 212.498C550.431 212.543 547.938 211.948 545.709 210.768L507.293 188.567C506.386 188.248 505.6 187.655 505.044 186.87C504.488 186.085 504.189 185.146 504.189 184.183C504.189 183.221 504.488 182.282 505.044 181.497C505.6 180.712 506.386 180.118 507.293 179.8L545.709 157.599C547.956 156.467 550.437 155.878 552.953 155.878C555.469 155.878 557.949 156.467 560.197 157.599L598.612 179.8C599.52 180.118 600.305 180.712 600.861 181.497C601.417 182.282 601.716 183.221 601.716 184.183C601.716 185.146 601.417 186.085 600.861 186.87C600.305 187.655 599.52 188.248 598.612 188.567L560.197 210.768C557.967 211.948 555.475 212.543 552.953 212.498ZM552.953 156.53C550.552 156.488 548.18 157.057 546.058 158.182L507.623 180.383C506.826 180.648 506.132 181.158 505.64 181.84C505.148 182.522 504.884 183.342 504.884 184.183C504.884 185.025 505.148 185.844 505.64 186.527C506.132 187.209 506.826 187.719 507.623 187.984L546.058 210.184C548.199 211.267 550.564 211.832 552.962 211.832C555.361 211.832 557.726 211.267 559.867 210.184L598.282 187.984C599.08 187.719 599.774 187.209 600.265 186.527C600.757 185.844 601.022 185.025 601.022 184.183C601.022 183.342 600.757 182.522 600.265 181.84C599.774 181.158 599.08 180.648 598.282 180.383L559.867 158.182C557.738 157.057 555.36 156.488 552.953 156.53Z" fill="#42E8E0"/>
<path opacity="0.4" d="M602.903 175.659V162.498L600.495 161.156C599.815 165.258 594.979 167.98 590.94 168.544L563.4 184.659L551.398 189.072L513.041 169.263L513.934 168.757C510.652 167.222 508.885 163.722 507.117 160.515L504.534 162.051L503 162.498V175.873C503.124 176.883 503.51 177.844 504.12 178.659C504.73 179.474 505.542 180.115 506.476 180.519L544.795 202.68C547.322 203.964 550.117 204.634 552.952 204.634C555.786 204.634 558.581 203.964 561.109 202.68L599.524 180.48C600.438 180.065 601.229 179.421 601.821 178.611C602.413 177.8 602.786 176.85 602.903 175.853V175.62V175.659Z" fill="#42E8E0"/>
<path d="M602.903 163.956V155.247L600.495 153.905C599.815 158.007 594.979 160.729 590.94 161.292L563.4 177.408L551.398 181.743L513.041 161.856L513.934 161.351C510.652 159.815 508.885 156.316 507.117 153.108L504.534 154.644L503 155.091V164.014C503.102 165.028 503.467 165.998 504.06 166.827C504.653 167.656 505.453 168.315 506.379 168.738L544.795 191.016C547.325 192.291 550.119 192.956 552.952 192.956C555.785 192.956 558.578 192.291 561.109 191.016L599.524 168.816C600.438 168.401 601.229 167.757 601.821 166.947C602.413 166.136 602.786 165.186 602.903 164.189V163.956Z" fill="url(#paint12_linear)"/>
<path opacity="0.3" d="M590.939 161.293L563.4 177.409L552.951 181.18V192.961C555.791 193.019 558.599 192.35 561.108 191.017L599.524 168.816C600.437 168.402 601.228 167.758 601.82 166.947C602.412 166.137 602.785 165.187 602.903 164.19V163.956V155.247L600.708 154.022H600.475C599.698 158.066 594.94 160.729 590.939 161.293Z" fill="#0F054C"/>
<path d="M513.934 161.428L550.349 140.472C551.16 140.065 552.054 139.853 552.961 139.853C553.868 139.853 554.763 140.065 555.574 140.472L591.328 161.137L590.94 161.37C594.979 160.806 599.815 158.084 600.495 153.983L560.351 131.627L548.698 128.536L539.182 134.134L507.137 153.263C508.885 156.393 510.652 159.912 513.934 161.428Z" fill="url(#paint13_linear)"/>
<path opacity="0.3" d="M552.952 129.605L548.679 128.458L539.162 134.057L507.117 153.186C508.885 156.393 510.652 159.893 513.934 161.428L550.349 140.472C551.145 140.033 552.043 139.811 552.952 139.83V129.605Z" fill="#0F054C"/>
<path d="M544.794 182.152L506.476 159.912C501.97 157.327 501.97 153.089 506.476 150.484L544.891 128.283C547.422 127.008 550.215 126.344 553.048 126.344C555.881 126.344 558.675 127.008 561.205 128.283L599.621 150.484C604.126 153.089 604.126 157.327 599.621 159.912L561.205 182.113C558.668 183.419 555.857 184.104 553.004 184.11C550.151 184.117 547.338 183.446 544.794 182.152ZM555.573 131.608C554.762 131.201 553.868 130.989 552.961 130.989C552.054 130.989 551.159 131.201 550.349 131.608L511.933 153.808C511.613 153.912 511.334 154.115 511.137 154.387C510.939 154.66 510.832 154.988 510.832 155.324C510.832 155.661 510.939 155.989 511.137 156.262C511.334 156.534 511.613 156.737 511.933 156.841L550.349 179.041C551.159 179.448 552.054 179.66 552.961 179.66C553.868 179.66 554.762 179.448 555.573 179.041L593.988 156.841C594.299 156.728 594.568 156.521 594.758 156.25C594.948 155.979 595.049 155.656 595.049 155.324C595.049 154.993 594.948 154.67 594.758 154.399C594.568 154.128 594.299 153.921 593.988 153.808L555.573 131.608Z" fill="url(#paint14_linear)"/>
<path d="M593.988 153.73L555.572 131.53C554.762 131.123 553.867 130.911 552.96 130.911C552.053 130.911 551.159 131.123 550.348 131.53L511.933 153.73C510.962 154.294 510.651 155.071 510.962 155.791C511.18 155.377 511.519 155.038 511.933 154.819L550.348 132.696C551.159 132.289 552.053 132.077 552.96 132.077C553.867 132.077 554.762 132.289 555.572 132.696L593.988 154.897C594.397 155.116 594.729 155.455 594.939 155.869C595.25 155.071 594.939 154.294 593.988 153.73Z" fill="white"/>
<path d="M599.525 159.912L561.11 182.112C558.582 183.397 555.787 184.066 552.953 184.066C550.118 184.066 547.323 183.397 544.796 182.112L506.477 159.912C505.639 159.522 504.901 158.944 504.322 158.222C503.743 157.501 503.337 156.655 503.137 155.752C503.094 156.863 503.391 157.961 503.987 158.899C504.584 159.837 505.453 160.57 506.477 161.001L544.796 183.24C547.323 184.524 550.118 185.193 552.953 185.193C555.787 185.193 558.582 184.524 561.11 183.24L599.525 161.039C600.549 160.609 601.418 159.876 602.015 158.938C602.612 158 602.909 156.902 602.865 155.791C602.66 156.687 602.252 157.525 601.673 158.239C601.094 158.953 600.359 159.526 599.525 159.912Z" fill="white"/>
<path d="M545.881 181.53L507.466 159.329C503.582 157.074 503.582 153.497 507.466 151.164L545.881 128.964C548.07 127.844 550.493 127.261 552.951 127.261C555.409 127.261 557.831 127.844 560.02 128.964L598.435 151.164C602.32 153.419 602.32 156.996 598.435 159.329L560.02 181.53C557.831 182.649 555.409 183.233 552.951 183.233C550.493 183.233 548.07 182.649 545.881 181.53ZM556.641 130.986C555.498 130.4 554.234 130.095 552.951 130.095C551.668 130.095 550.403 130.4 549.261 130.986L510.845 153.108C510.397 153.258 510.008 153.546 509.732 153.929C509.456 154.313 509.308 154.774 509.308 155.247C509.308 155.72 509.456 156.18 509.732 156.564C510.008 156.948 510.397 157.235 510.845 157.385L549.202 179.586C550.348 180.16 551.611 180.46 552.892 180.46C554.174 180.46 555.437 180.16 556.582 179.586L595.017 157.385C595.465 157.235 595.855 156.948 596.131 156.564C596.406 156.18 596.555 155.72 596.555 155.247C596.555 154.774 596.406 154.313 596.131 153.929C595.855 153.546 595.465 153.258 595.017 153.108L556.641 130.986Z" fill="url(#paint15_linear)"/>
<path opacity="0.4" d="M555.574 131.53C554.763 131.123 553.869 130.911 552.962 130.911C552.055 130.911 551.16 131.123 550.35 131.53L511.934 153.73C511.614 153.834 511.335 154.037 511.137 154.309C510.94 154.582 510.833 154.91 510.833 155.246C510.833 155.583 510.94 155.911 511.137 156.184C511.335 156.456 511.614 156.659 511.934 156.763L550.35 178.963C551.16 179.37 552.055 179.582 552.962 179.582C553.869 179.582 554.763 179.37 555.574 178.963L593.989 156.763C594.3 156.65 594.569 156.443 594.759 156.172C594.948 155.901 595.05 155.578 595.05 155.246C595.05 154.915 594.948 154.592 594.759 154.321C594.569 154.05 594.3 153.843 593.989 153.73L555.574 131.53Z" fill="#42E8E0"/>
<path d="M526.594 199.78L437.574 249.333L437.564 281.421L437.402 281.701L382.701 312.629L382.162 311.944L436.722 280.935L436.733 248.847L437.337 248.449L526.054 199.095L526.594 199.78Z" fill="url(#paint16_linear)"/>
<path d="M308 517C436.682 517 541 454.933 541 378.368C541 301.804 436.682 239.737 308 239.737C179.318 239.737 75 301.804 75 378.368C75 454.933 179.318 517 308 517Z" fill="#F5F5F5"/>
<path d="M308 427.56C415.082 427.56 501.89 422.492 501.89 416.24C501.89 409.988 415.082 404.92 308 404.92C200.917 404.92 114.11 409.988 114.11 416.24C114.11 422.492 200.917 427.56 308 427.56Z" fill="#F5F5F5"/>
<path d="M338.39 84.5199C332.79 75.1199 343.2 72.3999 349.91 74.8599C356.62 77.3199 360.91 70.4299 366.91 70.5599C372.91 70.6899 373.6 79.1499 368.63 81.3999C363.66 83.6499 357.73 89.7899 352 90.1399C352.53 98.9299 346.47 115.92 343.48 111.24C340.49 106.56 319.35 92.6899 338.39 84.5199Z" fill="#263238"/>
<path d="M338.58 85.8998C336.93 85.8998 333.26 85.2898 330.7 80.2898C330.51 79.9159 330.477 79.4819 330.607 79.0834C330.737 78.6849 331.021 78.3545 331.395 78.1648C331.769 77.9752 332.203 77.9419 332.601 78.0722C333 78.2026 333.33 78.4859 333.52 78.8598C335.72 83.1598 338.74 82.7498 338.87 82.7298C339.278 82.6627 339.696 82.758 340.034 82.9955C340.372 83.2329 340.604 83.5934 340.68 83.9998C340.753 84.4067 340.663 84.8259 340.429 85.1667C340.195 85.5074 339.836 85.7421 339.43 85.8198C339.149 85.8707 338.865 85.8974 338.58 85.8998Z" fill="#263238"/>
<path d="M402.73 404.95L411.23 403L407.44 382.12L398.94 384.07L402.73 404.95Z" fill="#FF8B7B"/>
<path d="M340.46 405.28H349.39L349.37 384.6H340.44L340.46 405.28Z" fill="#FF8B7B"/>
<path d="M350.25 404.25H339.36C339.184 404.247 339.013 404.307 338.878 404.419C338.742 404.531 338.651 404.687 338.62 404.86L337.18 412.8C337.151 412.998 337.165 413.199 337.222 413.391C337.278 413.583 337.375 413.76 337.506 413.911C337.637 414.062 337.799 414.183 337.981 414.265C338.163 414.348 338.36 414.391 338.56 414.39C342.06 414.33 344.61 414.12 349.02 414.12C351.73 414.12 359.93 414.4 363.68 414.4C367.43 414.4 367.77 410.7 366.22 410.4C359.28 408.9 354.01 406.82 351.72 404.84C351.318 404.471 350.796 404.261 350.25 404.25Z" fill="#263238"/>
<path d="M411.8 401.51L402.4 404.13C402.228 404.176 402.078 404.279 401.974 404.423C401.87 404.567 401.819 404.743 401.83 404.92L402.26 413.04C402.269 413.236 402.322 413.428 402.416 413.601C402.51 413.774 402.641 413.923 402.801 414.038C402.961 414.152 403.145 414.229 403.339 414.262C403.532 414.296 403.731 414.285 403.92 414.23C407.3 413.23 412.14 411.67 416.4 410.48C421.4 409.1 422.07 409.03 427.91 407.41C431.45 406.41 431.43 402.58 429.86 402.67C422.72 403.07 420.86 403.58 414.06 401.61C413.331 401.367 412.548 401.333 411.8 401.51Z" fill="#263238"/>
<path d="M381.73 134.57C383.73 140.47 385.58 146.34 387.26 152.32C388.94 158.3 390.46 164.32 391.77 170.45C392.44 173.76 392.88 176.09 393.66 178.83L394.28 180.83L394.98 182.83C395.46 184.18 395.98 185.54 396.51 186.89C398.64 192.3 401.27 197.77 403.9 203.05L398.44 206.95C396.3 204.589 394.297 202.108 392.44 199.52C390.554 196.945 388.801 194.275 387.19 191.52C385.518 188.701 384.041 185.77 382.77 182.75C381.547 179.719 380.521 176.613 379.7 173.45C378.02 167.71 376.22 161.93 374.38 156.16L368.91 138.84L381.73 134.57Z" fill="#FF8B7B"/>
<path d="M365.42 134C363.04 142.2 372.28 155.11 372.28 155.11L388.13 150C388.13 150 387.46 140.28 382.03 132.81C375.37 123.59 368 125 365.42 134Z" fill="#263238"/>
<path opacity="0.2" d="M373.37 137.68C369.37 135.8 366.24 136 365.03 136.93C365.03 144.93 372.28 155.06 372.28 155.06L383.51 151.44C383 147.63 379.65 140.61 373.37 137.68Z" fill="black"/>
<path d="M403.11 201.69L409.32 208.69L400.05 212.21C400.05 212.21 394.18 208.21 397.99 202.92L403.11 201.69Z" fill="#FF8B7B"/>
<path d="M411.25 213.25L403.67 216.14L400.05 212.19L409.32 208.67L411.25 213.25Z" fill="#FF8B7B"/>
<path opacity="0.2" d="M407.44 382.13L409.39 392.89L400.89 394.84L398.94 384.08L407.44 382.13Z" fill="black"/>
<path opacity="0.2" d="M349.38 384.6H340.44V395.26H349.38V384.6Z" fill="black"/>
<path d="M325.5 130.29C335.22 164.19 333.39 200.21 334.28 207.5L381.91 203.82C387.2 159.74 378.45 134.27 376.03 128.26C375.861 127.842 375.589 127.473 375.239 127.188C374.889 126.904 374.474 126.711 374.03 126.63C372.73 126.42 370.68 126.12 368.25 125.87C366.94 125.74 365.53 125.63 364.06 125.56C363.25 125.56 362.43 125.49 361.59 125.47C354.8 125.591 348.022 126.102 341.29 127C340.02 127.16 338.73 127.36 337.48 127.57C336.23 127.78 335.18 127.98 334.11 128.2C329.25 129.22 325.5 130.29 325.5 130.29Z" fill="#263238"/>
<path opacity="0.2" d="M328.8 143.87C329.87 149.13 330.72 154.36 331.37 159.4C333.69 150.6 335.21 141.48 335.21 141.48L328.8 143.87Z" fill="black"/>
<path d="M341.63 104.23C343.41 110.65 345.63 122.49 341.39 127.23C345.2 130.47 350.14 134.18 357.9 133.86C365.66 133.54 363.9 128.31 361.63 125.66C354.23 124.49 354.01 119.08 354.88 113.92L341.63 104.23Z" fill="#FF8B7B"/>
<path d="M363.15 125.39C362.309 125.246 361.45 125.246 360.61 125.39C360.61 125.39 367.31 132.32 358.8 133.72C352.522 132.725 346.563 130.276 341.4 126.57C340.723 126.657 340.064 126.853 339.45 127.15C341.39 133.81 355.86 139.51 355.86 139.51C355.747 138.691 355.828 137.857 356.098 137.075C356.367 136.293 356.816 135.586 357.41 135.01L360.83 134.71C362.284 135.563 363.381 136.912 363.92 138.51C363.92 138.51 369.11 131.61 363.15 125.39Z" fill="white"/>
<path opacity="0.2" d="M347 108.17L354.84 113.88C354.619 115.081 354.505 116.299 354.5 117.52C351.69 117.33 347.64 114.58 347.12 111.7C346.867 110.54 346.827 109.344 347 108.17Z" fill="black"/>
<path d="M340.1 94.4899C341.32 103.27 341.59 108.49 346.4 112.65C353.62 118.95 364.2 114.06 365.63 105.09C366.91 97.0199 364.69 84.0199 355.78 81.1799C353.819 80.5419 351.728 80.4163 349.705 80.8149C347.683 81.2136 345.796 82.1233 344.224 83.4575C342.652 84.7916 341.448 86.5059 340.726 88.437C340.004 90.3681 339.789 92.4519 340.1 94.4899Z" fill="#FF8B7B"/>
<path d="M340 99.6499C342.33 103.3 349 91.6499 346.95 86.6499C344.9 81.6499 339.48 86.2099 339.48 86.2099C339.48 86.2099 336 93.3399 340 99.6499Z" fill="#263238"/>
<path d="M341.52 86C350.29 89.53 360.27 89.08 363.66 88.83C367.05 88.58 371.17 87.63 369.84 83.55C368.07 78.08 356.5 80.63 352.18 79.21C347.86 77.79 337.78 81.59 341.52 86Z" fill="#263238"/>
<path d="M337.1 102.58C338.064 104.377 339.694 105.727 341.64 106.34C344.19 107.1 345.42 104.74 344.64 102.24C343.97 99.9898 341.83 96.8798 339.3 97.2398C336.77 97.5998 335.9 100.34 337.1 102.58Z" fill="#FF8B7B"/>
<path d="M412.3 390.16L397.53 393.42C397.53 393.42 381.6 337 377 309.51C375.61 301.16 372.44 289.25 369.55 276.71C365.89 260.91 361.32 243.82 357.55 230.45C353.61 216.36 350.69 206.23 350.69 206.23L381.84 203.82C381.84 203.82 397.18 277.27 400.41 304.34C403.85 332.49 412.3 390.16 412.3 390.16Z" fill="#F28F8F"/>
<path opacity="0.3" d="M412.3 390.16L397.53 393.42C397.53 393.42 381.6 337 377 309.51C375.61 301.16 372.44 289.25 369.55 276.71C365.89 260.91 361.32 243.82 357.55 230.45C353.61 216.36 350.69 206.23 350.69 206.23L381.84 203.82C381.84 203.82 397.18 277.27 400.41 304.34C403.85 332.49 412.3 390.16 412.3 390.16Z" fill="#2B076E"/>
<path opacity="0.2" d="M369.58 276.71C365.92 260.91 361.35 243.82 357.58 230.45L360.78 223.45C368.66 232.6 371 261.17 369.58 276.71Z" fill="black"/>
<path d="M367.07 205C367.07 205 362.3 281.8 358.72 307.73C354.81 336.12 352.66 393.23 352.66 393.23H336.3C336.3 393.23 332.95 339.23 335.24 311.42C337.85 279.7 334.24 207.53 334.24 207.53L367.07 205Z" fill="#F28F8F"/>
<path opacity="0.3" d="M367.07 205C367.07 205 362.3 281.8 358.72 307.73C354.81 336.12 352.66 393.23 352.66 393.23H336.3C336.3 393.23 332.95 339.23 335.24 311.42C337.85 279.7 334.24 207.53 334.24 207.53L367.07 205Z" fill="#2B076E"/>
<path d="M354.62 393.56H335.36V387.8L355.37 386.69L354.62 393.56Z" fill="#F28F8F"/>
<path d="M414.23 390.1L396.63 393.99L395.38 388.3L413.8 383.65L414.23 390.1Z" fill="#F28F8F"/>
<path d="M353 95.92C353.06 96.64 353.48 97.19 353.95 97.15C354.42 97.11 354.76 96.51 354.7 95.79C354.64 95.07 354.22 94.52 353.75 94.55C353.28 94.58 352.92 95.2 353 95.92Z" fill="#263238"/>
<path d="M361.09 95.2899C361.15 96.0099 361.57 96.5599 362.09 96.5299C362.61 96.4999 362.9 95.8799 362.84 95.1599C362.78 94.4399 362.36 93.8899 361.84 93.9199C361.32 93.9499 361 94.5699 361.09 95.2899Z" fill="#263238"/>
<path d="M359.23 95.8499C360.259 97.9789 361.575 99.9572 363.14 101.73C361.96 103.01 359.76 102.64 359.76 102.64L359.23 95.8499Z" fill="#FF5652"/>
<path d="M356.88 104.79C356.074 104.763 355.282 104.571 354.553 104.228C353.824 103.884 353.173 103.394 352.64 102.79C352.62 102.77 352.604 102.747 352.593 102.721C352.582 102.696 352.577 102.668 352.577 102.64C352.577 102.612 352.582 102.584 352.593 102.559C352.604 102.533 352.62 102.51 352.64 102.49C352.679 102.453 352.731 102.432 352.785 102.432C352.839 102.432 352.891 102.453 352.93 102.49C353.531 103.156 354.281 103.673 355.118 103.997C355.955 104.322 356.856 104.446 357.75 104.36C357.804 104.357 357.857 104.375 357.898 104.411C357.939 104.446 357.965 104.496 357.97 104.55C357.972 104.578 357.97 104.605 357.962 104.632C357.954 104.659 357.94 104.683 357.923 104.705C357.905 104.726 357.883 104.744 357.859 104.757C357.834 104.77 357.807 104.777 357.78 104.78C357.48 104.806 357.18 104.809 356.88 104.79Z" fill="#263238"/>
<path d="M351 93.4898C350.928 93.4865 350.858 93.4622 350.8 93.4198C350.752 93.3913 350.711 93.3533 350.678 93.3083C350.646 93.2632 350.623 93.212 350.611 93.1577C350.598 93.1035 350.597 93.0473 350.608 92.9927C350.618 92.938 350.639 92.886 350.67 92.8398C351.02 92.267 351.503 91.7864 352.077 91.4384C352.651 91.0904 353.3 90.8852 353.97 90.8398C354.081 90.8398 354.188 90.8841 354.267 90.9629C354.346 91.0416 354.39 91.1485 354.39 91.2598C354.393 91.3154 354.384 91.3708 354.365 91.4229C354.345 91.475 354.316 91.5226 354.277 91.5628C354.239 91.603 354.193 91.635 354.142 91.6568C354.091 91.6787 354.036 91.6899 353.98 91.6898C353.449 91.7321 352.935 91.9012 352.483 92.1831C352.03 92.465 351.652 92.8514 351.38 93.3098C351.339 93.3714 351.282 93.4206 351.215 93.4523C351.148 93.484 351.074 93.4969 351 93.4898Z" fill="#263238"/>
<path d="M365.07 92.23C365 92.2269 364.932 92.2059 364.873 92.1692C364.813 92.1324 364.764 92.0811 364.73 92.02C364.475 91.5535 364.112 91.1543 363.672 90.8553C363.232 90.5563 362.728 90.366 362.2 90.3C362.089 90.2898 361.985 90.2377 361.911 90.1541C361.837 90.0705 361.797 89.9618 361.8 89.85C361.803 89.7948 361.816 89.7407 361.839 89.6907C361.863 89.6407 361.896 89.5958 361.937 89.5587C361.978 89.5215 362.026 89.4928 362.078 89.4742C362.13 89.4555 362.185 89.4473 362.24 89.45C362.909 89.5235 363.55 89.7561 364.11 90.1285C364.67 90.5008 365.133 91.002 365.46 91.59C365.489 91.6378 365.508 91.6908 365.516 91.746C365.524 91.8012 365.521 91.8574 365.507 91.9114C365.493 91.9654 365.468 92.0161 365.434 92.0605C365.401 92.1048 365.358 92.1421 365.31 92.17C365.236 92.2086 365.154 92.2292 365.07 92.23Z" fill="#263238"/>
<path d="M353.27 405.81C352.477 405.792 351.689 405.684 350.92 405.49C350.879 405.48 350.841 405.459 350.811 405.429C350.781 405.399 350.76 405.361 350.75 405.32C350.741 405.278 350.745 405.235 350.761 405.196C350.777 405.157 350.804 405.123 350.84 405.1C351.16 404.9 353.96 403.1 354.97 403.64C355.082 403.697 355.176 403.783 355.245 403.888C355.313 403.993 355.353 404.115 355.36 404.24C355.395 404.444 355.377 404.654 355.309 404.85C355.241 405.046 355.124 405.221 354.97 405.36C354.47 405.697 353.871 405.855 353.27 405.81ZM351.52 405.19C353.05 405.5 354.21 405.44 354.68 405.03C354.785 404.934 354.864 404.813 354.909 404.678C354.955 404.544 354.965 404.4 354.94 404.26C354.94 404.1 354.85 404.04 354.8 404.02C354.27 403.75 352.66 404.52 351.52 405.19Z" fill="#F28F8F"/>
<path d="M351 405.5C350.96 405.509 350.92 405.509 350.88 405.5C350.847 405.481 350.82 405.453 350.802 405.42C350.785 405.386 350.777 405.348 350.78 405.31C350.78 405.2 350.89 402.62 351.89 401.77C352.01 401.664 352.152 401.585 352.306 401.538C352.459 401.492 352.621 401.479 352.78 401.5C352.942 401.502 353.099 401.558 353.226 401.66C353.353 401.761 353.442 401.902 353.48 402.06C353.71 403.06 352 405.06 351.1 405.51C351.066 405.516 351.032 405.512 351 405.5ZM352.65 401.88C352.474 401.883 352.304 401.946 352.17 402.06C351.53 402.6 351.31 404.11 351.23 404.86C352.12 404.16 353.23 402.68 353.06 402.09C353.06 402.09 353.06 401.91 352.75 401.88H352.65Z" fill="#F28F8F"/>
<path d="M413 402.47C412.961 402.465 412.924 402.451 412.893 402.428C412.861 402.405 412.836 402.375 412.82 402.34C412.8 402.3 412.794 402.255 412.804 402.211C412.813 402.168 412.836 402.129 412.87 402.1C413.2 401.79 416.17 399.1 417.38 399.37C417.493 399.396 417.598 399.451 417.684 399.53C417.77 399.609 417.834 399.709 417.87 399.82C417.942 399.997 417.969 400.189 417.95 400.379C417.931 400.569 417.866 400.751 417.76 400.91C417.05 402.01 414.49 402.36 413.03 402.47H413ZM417.2 399.77C416.49 399.77 414.81 400.96 413.63 401.99C415.63 401.78 417.01 401.3 417.41 400.68C417.479 400.574 417.52 400.453 417.531 400.327C417.541 400.202 417.52 400.075 417.47 399.96C417.46 399.914 417.437 399.872 417.403 399.84C417.369 399.808 417.326 399.787 417.28 399.78L417.2 399.77Z" fill="#F28F8F"/>
<path d="M413 402.47H412.94C412.904 402.458 412.873 402.437 412.848 402.409C412.823 402.381 412.807 402.347 412.8 402.31C412.8 402.21 412.37 399.83 413.22 398.63C413.333 398.457 413.48 398.308 413.652 398.193C413.823 398.078 414.017 397.999 414.22 397.96C414.8 397.86 415.04 398.1 415.14 398.32C415.57 399.25 414.03 401.68 413.14 402.44C413.096 402.461 413.048 402.471 413 402.47ZM414.54 398.34C414.467 398.331 414.393 398.331 414.32 398.34C414.166 398.363 414.018 398.419 413.887 398.503C413.756 398.588 413.644 398.699 413.56 398.83C413.123 399.766 412.987 400.814 413.17 401.83C414.05 400.9 415.04 399.05 414.78 398.49C414.75 398.44 414.71 398.36 414.52 398.34H414.54Z" fill="#F28F8F"/>
<path d="M335.27 142.34C333.83 145.01 332.27 147.89 330.85 150.71C329.43 153.53 327.99 156.4 326.65 159.26C323.947 164.822 321.654 170.574 319.79 176.47L319.21 178.58C319.14 178.84 319.21 178.74 319.15 178.71C319.09 178.68 319.15 178.71 319.15 178.71C319.131 178.785 319.131 178.864 319.15 178.94C319.258 179.92 319.535 180.875 319.97 181.76C321.223 184.367 322.723 186.849 324.45 189.17C328.04 194.17 332.32 199.1 336.53 203.88L332.18 208.98C329.359 207.08 326.642 205.03 324.04 202.84C321.395 200.649 318.874 198.312 316.49 195.84C313.91 193.205 311.642 190.283 309.73 187.13C308.533 185.158 307.691 182.992 307.24 180.73C307.109 179.997 307.042 179.254 307.04 178.51C307.04 178.11 307.04 177.68 307.1 177.26L307.19 176.6C307.19 176.33 307.24 176.33 307.27 176.18L307.79 173.5C308.554 170.061 309.525 166.671 310.7 163.35C311.82 160.08 313.08 156.9 314.43 153.78C315.78 150.66 317.2 147.58 318.73 144.57C320.26 141.56 321.8 138.62 323.61 135.57L335.27 142.34Z" fill="#FF8B7B"/>
<path d="M325.5 130.29C320.66 132.35 316 147 316 147L328.83 156.66C328.83 156.66 333.01 150.08 336.15 144.66C342.19 134.23 335 126.25 325.5 130.29Z" fill="#263238"/>
<path d="M334.17 202.67L342.83 205.17L336.33 211.98C336.33 211.98 328.45 208.8 330.8 205.3L334.17 202.67Z" fill="#FF8B7B"/>
<path d="M346.56 212.65L340.54 216.52L336.32 211.98L342.82 205.17L346.56 212.65Z" fill="#FF8B7B"/>
<path d="M331.77 261.39C329.472 261.065 327.277 260.224 325.35 258.93L300.63 242.24C298.499 240.809 296.766 238.859 295.594 236.575C294.422 234.291 293.849 231.746 293.93 229.18L295.61 171.78C295.641 170.686 295.903 169.612 296.378 168.627C296.854 167.641 297.532 166.767 298.368 166.062C299.205 165.357 300.18 164.837 301.232 164.535C302.283 164.233 303.387 164.156 304.47 164.31C305.09 164.391 305.698 164.549 306.28 164.78C308.246 165.503 310.29 165.996 312.37 166.25C316.106 166.735 319.882 166.839 323.64 166.56C331.36 166.02 337.64 163.97 340.45 162.17C342.014 161.158 343.89 160.743 345.735 161C347.581 161.257 349.272 162.169 350.5 163.57C352.7 166.06 358.18 169.75 365.5 172.37C369.038 173.668 372.701 174.596 376.43 175.14C378.496 175.465 380.594 175.549 382.68 175.39C384.089 175.25 385.509 175.495 386.791 176.097C388.073 176.699 389.168 177.636 389.96 178.81C390.555 179.712 390.955 180.729 391.135 181.795C391.314 182.861 391.268 183.953 391 185L377 240.68C376.38 243.17 375.137 245.462 373.388 247.339C371.639 249.216 369.44 250.617 367 251.41L338.65 260.74C336.436 261.479 334.083 261.701 331.77 261.39Z" fill="#F28F8F"/>
<path opacity="0.3" d="M342.78 165.8C338.92 168.27 331.78 170.32 323.94 170.86C316.1 171.4 309.13 170.54 304.7 168.8C304.181 168.588 303.619 168.505 303.061 168.558C302.503 168.611 301.966 168.798 301.496 169.104C301.026 169.41 300.638 169.825 300.363 170.313C300.089 170.802 299.937 171.35 299.92 171.91L298.24 229.31C298.186 231.147 298.598 232.968 299.437 234.602C300.277 236.237 301.516 237.633 303.04 238.66L327.76 255.36C329.144 256.288 330.72 256.89 332.37 257.12L345.13 165.27C344.308 165.158 343.474 165.346 342.78 165.8Z" fill="#2B076E"/>
<path opacity="0.2" d="M365.62 247.36C367.367 246.786 368.941 245.779 370.195 244.432C371.449 243.086 372.341 241.444 372.79 239.66L386.79 183.99C386.925 183.446 386.927 182.877 386.795 182.331C386.664 181.786 386.402 181.28 386.033 180.858C385.663 180.436 385.197 180.109 384.674 179.906C384.152 179.702 383.587 179.628 383.03 179.69C378.29 180.16 371.22 179.05 363.96 176.43C356.7 173.81 350.26 169.86 347.22 166.43C346.672 165.802 345.915 165.394 345.09 165.28L332.33 257.13C333.975 257.359 335.651 257.208 337.23 256.69L365.62 247.36Z" fill="#2B076E"/>
<path d="M339.11 222.74C338.742 222.701 338.37 222.739 338.017 222.851C337.664 222.963 337.338 223.146 337.06 223.39L342 187.82C335.1 197.54 334.05 206.27 334.05 206.27L337.29 210.56L334.93 227.56C334.53 230.49 335.73 233.09 337.63 233.35C339.53 233.61 341.42 231.45 341.82 228.52C342.22 225.59 341 223 339.11 222.74ZM337.84 231.89C336.47 231.7 335.6 229.83 335.89 227.72C336.18 225.61 337.54 224.04 338.89 224.23C340.24 224.42 341.14 226.29 340.89 228.41C340.64 230.53 339.22 232.08 337.84 231.89Z" fill="white"/>
<path d="M330.1 216C330.315 216.302 330.465 216.646 330.54 217.009C330.616 217.372 330.616 217.747 330.54 218.11L359.18 196.45C354.06 207.18 347 212.36 347 212.36L341.68 211.62L327.92 222C325.56 223.78 322.71 224 321.55 222.46C320.39 220.92 321.37 218.23 323.72 216.46C326.07 214.69 328.94 214.43 330.1 216ZM322.73 221.57C323.57 222.67 325.63 222.57 327.33 221.24C329.03 219.91 329.73 218.01 328.9 216.91C328.07 215.81 326.01 215.91 324.3 217.24C322.59 218.57 321.89 220.43 322.73 221.54V221.57Z" fill="white"/>
<path d="M342.69 185.68L341.92 185.57L342.2 183.57L342.97 183.68L342.69 185.68ZM343.39 180.61L342.63 180.5L343.05 177.44L343.82 177.55L343.39 180.61ZM344.24 174.49L343.48 174.39L343.9 171.33L344.66 171.44L344.24 174.49ZM345.09 168.38L344.33 168.27L344.75 165.22L345.51 165.33L345.09 168.38Z" fill="white"/>
<path d="M332.75 257.17L331.99 257.07L332.27 255.07L333.03 255.17L332.75 257.17ZM333.46 252.11L332.69 252L333.12 248.94L333.88 249.05L333.46 252.11ZM334.31 245.99L333.54 245.89L333.97 242.83L334.73 242.94L334.31 245.99ZM335.16 239.88L334.39 239.77L334.82 236.72L335.58 236.82L335.16 239.88Z" fill="white"/>
<path d="M265.09 96.38C275.09 92.63 285.74 98.76 288.9 110.45C292.06 122.14 285.35 133.83 281.09 136.36C276.48 132.68 264.18 132.36 254.29 135.85C245.8 121.21 247.5 95.56 265.09 96.38Z" fill="#263238"/>
<path d="M251 157.22C250.84 160.14 250.5 162.81 250.13 165.59C249.76 168.37 249.24 171.06 248.67 173.78C247.565 179.287 245.972 184.685 243.91 189.91C243.42 191.24 242.77 192.53 242.2 193.84C241.63 195.15 240.97 196.31 240.33 197.52C239.05 199.93 237.75 202.3 236.4 204.65C233.69 209.34 230.91 213.96 227.9 218.47L223.82 216.35C225.75 211.35 227.82 206.35 229.91 201.44L233.03 194.07L234.52 190.43C234.96 189.24 235.46 188.11 235.83 186.89C237.447 182.016 238.716 177.034 239.63 171.98C240.12 169.44 240.48 166.86 240.86 164.29C241.24 161.72 241.51 159.08 241.73 156.64L251 157.22Z" fill="#CE7A63"/>
<path d="M244.69 146.15C240.95 147.1 238.33 162.51 238.33 162.51L252.65 172.25C252.65 172.25 258.54 153.98 255.65 149.87C252.66 145.58 250.16 144.76 244.69 146.15Z" fill="#263238"/>
<path opacity="0.2" d="M245.03 149.59L240.17 163.78L247.95 169.05L245.03 149.59Z" fill="black"/>
<path d="M224.58 214.54L220.78 223.54L228.86 222.1C228.86 222.1 230.77 216.58 228.21 213.81L224.58 214.54Z" fill="#CE7A63"/>
<path d="M219.39 228.05L227.36 226.53L228.86 222.1L220.78 223.54L219.39 228.05Z" fill="#CE7A63"/>
<path d="M236.959 215.133L215.942 225.934C215.544 226.139 215.387 226.627 215.592 227.025L220.954 237.458C221.158 237.856 221.646 238.013 222.044 237.808L243.061 227.007C243.459 226.802 243.616 226.314 243.411 225.916L238.05 215.483C237.845 215.086 237.357 214.929 236.959 215.133Z" fill="#F28F8F"/>
<path opacity="0.2" d="M236.959 215.133L215.942 225.934C215.544 226.139 215.387 226.627 215.592 227.025L220.954 237.458C221.158 237.856 221.646 238.013 222.044 237.808L243.061 227.007C243.459 226.802 243.616 226.314 243.411 225.916L238.05 215.483C237.845 215.086 237.357 214.929 236.959 215.133Z" fill="#2B076E"/>
<g opacity="0.6">
<path opacity="0.6" d="M230.53 233.45L225.67 235.95L218.23 224.75L223.09 222.26L230.53 233.45Z" fill="#2B076E"/>
<path opacity="0.6" d="M235.03 231.13L230.18 233.63L223.95 221.81L228.81 219.32L235.03 231.13Z" fill="#2B076E"/>
<path opacity="0.6" d="M238.25 229.48L235.82 230.73L228.38 219.54L230.81 218.29L238.25 229.48Z" fill="#2B076E"/>
<path opacity="0.6" d="M241.28 227.93L238.18 229.52L231.96 217.7L235.05 216.11L241.28 227.93Z" fill="#2B076E"/>
</g>
<path d="M208.978 215.515L208.48 215.771C207.684 216.18 207.37 217.156 207.779 217.952L223.786 249.111C224.194 249.907 225.171 250.221 225.967 249.812L226.465 249.556C227.261 249.147 227.574 248.171 227.166 247.375L211.159 216.216C210.75 215.42 209.774 215.106 208.978 215.515Z" fill="#2B076E"/>
<path d="M169.445 270.858L221.289 244.214L210.3 222.832L158.456 249.477L169.445 270.858Z" fill="#2B076E"/>
<path opacity="0.2" d="M162.653 257.65L214.498 231.006L211.915 225.98L160.071 252.625L162.653 257.65Z" fill="white"/>
<path opacity="0.2" d="M167.826 267.701L219.67 241.057L217.087 236.031L165.243 262.676L167.826 267.701Z" fill="white"/>
<path d="M212.17 213.87C212.521 214.549 212.663 215.318 212.577 216.078C212.491 216.838 212.182 217.556 211.687 218.14C211.193 218.723 210.536 219.147 209.8 219.357C209.065 219.566 208.283 219.553 207.555 219.318C206.827 219.083 206.186 218.637 205.712 218.036C205.238 217.436 204.953 216.708 204.894 215.945C204.834 215.182 205.002 214.419 205.377 213.752C205.752 213.086 206.317 212.545 207 212.2C207.907 211.738 208.961 211.655 209.93 211.968C210.899 212.281 211.704 212.965 212.17 213.87Z" fill="#2B076E"/>
<path d="M229.66 247.9C230.008 248.577 230.148 249.342 230.061 250.098C229.975 250.854 229.666 251.568 229.174 252.149C228.682 252.73 228.029 253.152 227.298 253.362C226.566 253.572 225.788 253.56 225.063 253.328C224.338 253.096 223.698 252.654 223.224 252.059C222.75 251.463 222.463 250.741 222.4 249.982C222.336 249.224 222.499 248.463 222.867 247.797C223.236 247.131 223.794 246.589 224.47 246.24C225.379 245.774 226.435 245.687 227.408 245.998C228.381 246.309 229.19 246.993 229.66 247.9Z" fill="#2B076E"/>
<path d="M144.36 270.23L169.45 270.85L158.46 249.46L144.36 270.23Z" fill="#2B076E"/>
<path opacity="0.6" d="M158.46 249.47L169.45 270.85L151.28 270.4L148.25 264.5L158.46 249.47Z" fill="white"/>
<path d="M242.17 149.36C241.7 154.68 242.17 167.88 247.45 200.63H284.34C283.76 186.4 283.71 177.33 289.82 150.19C289.957 149.581 289.969 148.949 289.854 148.335C289.738 147.721 289.499 147.137 289.149 146.619C288.8 146.101 288.348 145.66 287.822 145.323C287.296 144.986 286.706 144.761 286.09 144.66C282.491 144.067 278.862 143.67 275.22 143.47C269.64 143.07 264.039 143.07 258.46 143.47C253.88 143.89 248.91 144.72 245.91 145.27C244.924 145.446 244.023 145.942 243.347 146.682C242.671 147.421 242.257 148.362 242.17 149.36Z" fill="#263238"/>
<path opacity="0.2" d="M287.84 157.74C284.5 158.57 281.41 162.21 281.78 168.93C281.981 171.982 283.05 174.914 284.86 177.38C285.45 172.22 286.44 166.22 288.01 158.55L287.84 157.74Z" fill="black"/>
<path d="M273.56 124.61C272.5 130 271.44 139.87 275.22 143.47C275.22 143.47 271.45 146.82 261.62 152.01C254.15 146.01 258.46 143.47 258.46 143.47C264.46 142.04 264.32 137.58 263.27 133.39L273.56 124.61Z" fill="#CE7A63"/>
<path opacity="0.2" d="M269.36 128.19L263.28 133.38C263.536 134.363 263.707 135.367 263.79 136.38C266.09 136.05 269.7 134.09 270.19 131.59C270.43 130.39 269.56 128.75 269.36 128.19Z" fill="black"/>
<path d="M279.9 114C278.49 122.91 278.09 126.71 273.12 130.87C265.66 137.14 255.03 133.46 253.74 124.32C252.59 116.09 255.08 102.9 264.19 100.18C266.195 99.5664 268.324 99.4764 270.375 99.9183C272.425 100.36 274.328 101.319 275.902 102.705C277.477 104.09 278.671 105.855 279.371 107.832C280.071 109.809 280.253 111.933 279.9 114Z" fill="#CE7A63"/>
<path d="M265.39 115C265.32 115.73 264.87 116.28 264.39 116.23C263.91 116.18 263.58 115.56 263.65 114.83C263.72 114.1 264.16 113.55 264.65 113.59C265.14 113.63 265.46 114.31 265.39 115Z" fill="#263238"/>
<path d="M257.14 114.25C257.07 114.98 256.63 115.53 256.14 115.49C255.65 115.45 255.34 114.81 255.4 114.08C255.46 113.35 255.92 112.8 256.4 112.84C256.88 112.88 257.21 113.52 257.14 114.25Z" fill="#263238"/>
<path d="M256.61 112.91L254.91 112.23C254.91 112.23 255.68 113.69 256.61 112.91Z" fill="#263238"/>
<path d="M259.56 115.81C258.751 117.41 257.724 118.891 256.51 120.21C256.858 120.511 257.267 120.733 257.709 120.861C258.151 120.989 258.615 121.019 259.07 120.95L259.56 115.81Z" fill="#BA4D3C"/>
<path d="M262.77 124.19C262.41 124.214 262.05 124.214 261.69 124.19C261.634 124.19 261.581 124.168 261.541 124.128C261.502 124.089 261.48 124.036 261.48 123.98C261.48 123.924 261.502 123.871 261.541 123.831C261.581 123.792 261.634 123.77 261.69 123.77C262.596 123.874 263.514 123.765 264.37 123.45C265.226 123.136 265.997 122.626 266.62 121.96C266.637 121.938 266.658 121.92 266.682 121.907C266.706 121.893 266.733 121.885 266.76 121.881C266.788 121.878 266.815 121.88 266.842 121.888C266.869 121.895 266.893 121.908 266.915 121.925C266.937 121.942 266.955 121.963 266.968 121.987C266.982 122.011 266.99 122.038 266.994 122.065C266.997 122.093 266.995 122.12 266.987 122.147C266.98 122.173 266.967 122.198 266.95 122.22C266.418 122.808 265.775 123.285 265.057 123.623C264.34 123.962 263.562 124.154 262.77 124.19Z" fill="#263238"/>
<path d="M281.87 121.27C281.207 122.882 279.935 124.169 278.33 124.85C276.19 125.73 274.85 123.85 275.22 121.72C275.55 119.78 277.06 116.98 279.31 117.02C279.798 117.047 280.273 117.193 280.692 117.445C281.111 117.697 281.462 118.048 281.715 118.467C281.967 118.887 282.113 119.361 282.14 119.849C282.167 120.338 282.075 120.826 281.87 121.27Z" fill="#CE7A63"/>
<path d="M275.72 107.79C277.01 111.96 277.3 119.87 273.85 124.61C279.35 119.74 282.64 114.36 280.06 105.98C278.574 106.484 277.124 107.089 275.72 107.79Z" fill="#263238"/>
<path d="M264.86 98.43C258.03 99.01 257.16 104.04 255.76 106.57C260.76 105.69 274.95 109.73 277.4 113.14C282.67 114.25 281.64 105.69 281.64 105.69C281.64 105.69 280.51 97.61 264.86 98.43Z" fill="#263238"/>
<path d="M268.26 111.22C268.174 111.25 268.08 111.253 267.993 111.228C267.905 111.203 267.827 111.151 267.77 111.08C266.52 109.54 263.96 109.68 263.93 109.68C263.827 109.672 263.73 109.626 263.658 109.552C263.585 109.478 263.542 109.38 263.536 109.277C263.53 109.173 263.561 109.071 263.624 108.989C263.688 108.907 263.778 108.851 263.88 108.83C264 108.83 266.88 108.65 268.44 110.54C268.476 110.584 268.503 110.636 268.519 110.691C268.535 110.745 268.539 110.803 268.533 110.86C268.526 110.917 268.509 110.971 268.481 111.021C268.453 111.071 268.415 111.115 268.37 111.15C268.337 111.179 268.3 111.203 268.26 111.22Z" fill="#263238"/>
<path d="M254.15 110.31C254.054 110.318 253.958 110.295 253.878 110.242C253.797 110.19 253.737 110.112 253.706 110.021C253.675 109.93 253.675 109.831 253.707 109.74C253.738 109.65 253.799 109.572 253.88 109.52C254.438 109.125 255.082 108.869 255.758 108.774C256.435 108.678 257.125 108.745 257.77 108.97C257.864 109.021 257.937 109.104 257.973 109.205C258.008 109.306 258.006 109.416 257.964 109.515C257.923 109.614 257.846 109.694 257.749 109.739C257.653 109.784 257.542 109.792 257.44 109.76C256.926 109.589 256.379 109.542 255.843 109.624C255.308 109.706 254.799 109.914 254.36 110.23C254.299 110.275 254.226 110.303 254.15 110.31Z" fill="#263238"/>
<path d="M218.61 405.6L209.89 403.06L215.2 382.69L223.92 385.24L218.61 405.6Z" fill="#CE7A63"/>
<path d="M210 401.11L219.8 403.97C219.969 404.017 220.116 404.124 220.211 404.271C220.307 404.419 220.346 404.596 220.32 404.77L219.17 412.84C219.135 413.043 219.057 413.235 218.942 413.406C218.827 413.576 218.677 413.721 218.502 413.829C218.328 413.938 218.132 414.008 217.928 414.036C217.724 414.064 217.517 414.048 217.32 413.99C213.92 412.93 212.32 412.25 208.03 410.99C205.38 410.22 199.82 408.9 196.15 407.83C192.48 406.76 193.36 403.08 194.98 403.2C202.24 403.72 205.52 402.48 208.39 401.2C208.899 400.982 209.469 400.95 210 401.11Z" fill="#263238"/>
<g opacity="0.2">
<path opacity="0.2" d="M215.2 382.7L212.46 393.19L221.18 395.74L223.92 385.24L215.2 382.7Z" fill="black"/>
</g>
<path d="M247.45 200.63C247.45 200.63 231.83 271 227.57 298.35C223.15 326.8 211.33 390.19 211.33 390.19L223.12 393.63C223.12 393.63 240.65 328.39 246.71 300.46C253.32 270.02 274.64 229.3 274.46 200.63H247.45Z" fill="#2B076E"/>
<path d="M223 220.49L223.36 226.31C223.36 226.31 225.01 224.99 224.8 223.4C224.59 221.81 227.07 220.9 227.8 219.02L223 220.49Z" fill="#CE7A63"/>
<path opacity="0.2" d="M266.19 218.2C255.88 231.53 254.1 258.82 254.19 275.05C261.99 252.39 272.11 227.78 274.1 207.66C271.72 210.53 268.78 214.85 266.19 218.2Z" fill="black"/>
<path d="M281.03 405.13H271.95L271.34 384.09H280.42L281.03 405.13Z" fill="#CE7A63"/>
<path d="M271.63 404.08H281.84C282.016 404.078 282.186 404.14 282.321 404.254C282.455 404.368 282.543 404.526 282.57 404.7L283.73 412.77C283.751 412.975 283.729 413.181 283.665 413.376C283.601 413.572 283.497 413.752 283.359 413.904C283.222 414.057 283.054 414.179 282.866 414.263C282.678 414.346 282.475 414.39 282.27 414.39C278.71 414.33 277 414.12 272.51 414.12C269.75 414.12 264.04 414.4 260.23 414.4C256.42 414.4 256.23 410.63 257.8 410.29C264.92 408.76 267.72 406.65 270.12 404.64C270.54 404.279 271.076 404.08 271.63 404.08Z" fill="#263238"/>
<g opacity="0.2">
<path opacity="0.2" d="M271.34 384.1L271.65 394.94H280.74L280.43 384.1H271.34Z" fill="black"/>
</g>
<path d="M257.81 200.63C257.81 200.63 261.51 271.49 264 299.08C266.59 327.79 269.72 392.84 269.72 392.84H282C282 392.84 284.19 328.04 283.34 299.73C282.41 268.87 289.82 229.3 284.82 200.63H257.81Z" fill="#2B076E"/>
<path d="M283.07 393.28H268.66L267.6 388.68L283.74 388.12L283.07 393.28Z" fill="#263238"/>
<path d="M268.22 405.67C267.444 405.735 266.67 405.538 266.02 405.11C265.874 404.98 265.762 404.817 265.694 404.634C265.626 404.451 265.604 404.254 265.63 404.06C265.636 403.941 265.674 403.825 265.739 403.725C265.803 403.625 265.894 403.544 266 403.49C267.11 402.87 270.73 404.73 271.14 404.94C271.18 404.959 271.213 404.991 271.233 405.031C271.253 405.071 271.259 405.116 271.25 405.16C271.244 405.204 271.225 405.245 271.194 405.278C271.164 405.31 271.124 405.332 271.08 405.34C270.139 405.537 269.181 405.648 268.22 405.67ZM266.6 403.79C266.463 403.784 266.326 403.807 266.2 403.86C266.158 403.885 266.124 403.92 266.099 403.962C266.075 404.004 266.061 404.051 266.06 404.1C266.042 404.227 266.055 404.356 266.099 404.476C266.142 404.597 266.215 404.704 266.31 404.79C266.86 405.28 268.31 405.37 270.37 405.03C269.192 404.407 267.917 403.988 266.6 403.79Z" fill="#F28F8F"/>
<path d="M271 405.34C269.92 404.85 267.78 402.89 268 401.86C268 401.61 268.21 401.31 268.8 401.25C269.014 401.225 269.232 401.245 269.439 401.309C269.645 401.373 269.836 401.479 270 401.62C271.14 402.57 271.35 405.02 271.36 405.12C271.361 405.159 271.353 405.198 271.336 405.233C271.318 405.268 271.292 405.298 271.26 405.32C271.223 405.348 271.179 405.365 271.133 405.368C271.086 405.372 271.04 405.362 271 405.34ZM268.84 401.66H268.71C268.31 401.66 268.29 401.86 268.28 401.91C268.18 402.52 269.63 404.07 270.74 404.73C270.652 403.699 270.247 402.721 269.58 401.93C269.384 401.762 269.137 401.667 268.88 401.66H268.84Z" fill="#F28F8F"/>
<path d="M224.02 394.35L210.19 390.31L210.46 385.6L226.11 389.58L224.02 394.35Z" fill="#263238"/>
<path d="M205.51 401.41C204.728 401.268 204.021 400.858 203.51 400.25C203.408 400.085 203.347 399.898 203.333 399.705C203.319 399.512 203.352 399.318 203.43 399.14C203.469 399.028 203.537 398.928 203.626 398.849C203.716 398.77 203.823 398.716 203.94 398.69C205.19 398.41 208.14 401.21 208.47 401.53C208.503 401.559 208.527 401.598 208.536 401.642C208.545 401.685 208.539 401.73 208.52 401.77C208.501 401.809 208.471 401.843 208.434 401.866C208.396 401.889 208.353 401.901 208.31 401.9C207.363 401.823 206.426 401.659 205.51 401.41ZM204.51 399.15C204.378 399.118 204.241 399.118 204.11 399.15C204.062 399.158 204.017 399.179 203.98 399.211C203.943 399.243 203.915 399.284 203.9 399.33C203.84 399.444 203.809 399.571 203.809 399.7C203.809 399.829 203.84 399.956 203.9 400.07C204.29 400.7 205.7 401.2 207.73 401.44C206.785 400.497 205.686 399.723 204.48 399.15H204.51Z" fill="#F28F8F"/>
<path d="M208.31 401.89L208.23 401.84C207.32 401.07 205.82 398.59 206.23 397.65C206.34 397.43 206.59 397.18 207.23 397.29C207.641 397.379 208.001 397.627 208.23 397.98C209.06 399.22 208.58 401.62 208.56 401.72C208.553 401.758 208.535 401.794 208.509 401.822C208.482 401.851 208.448 401.871 208.41 401.88C208.378 401.893 208.343 401.897 208.31 401.89ZM207.26 397.75C207.217 397.74 207.172 397.74 207.13 397.75C206.74 397.67 206.68 397.82 206.65 397.87C206.38 398.43 207.35 400.32 208.22 401.27C208.421 400.26 208.306 399.212 207.89 398.27C207.755 398.022 207.529 397.835 207.26 397.75Z" fill="#F28F8F"/>
<path d="M264.86 113.69L263.15 113.02C263.15 113.02 263.92 114.48 264.86 113.69Z" fill="#263238"/>
<path d="M284.89 198.46L285.89 201.76C286.02 202.02 285.71 202.28 285.29 202.28H247.29C246.95 202.28 246.68 202.12 246.66 201.91L246.32 198.61C246.32 198.38 246.59 198.19 246.95 198.19H284.31C284.421 198.183 284.533 198.204 284.634 198.251C284.735 198.298 284.823 198.37 284.89 198.46Z" fill="#263238"/>
<path d="M279.75 202.64H280.75C280.95 202.64 281.11 202.54 281.09 202.41L280.62 198.12C280.62 198 280.43 197.89 280.24 197.89H279.24C279.05 197.89 278.89 198 278.91 198.12L279.38 202.41C279.38 202.54 279.55 202.64 279.75 202.64Z" fill="#F28F8F"/>
<path d="M250.08 202.64H251.08C251.28 202.64 251.43 202.54 251.42 202.41L250.95 198.12C250.95 198 250.76 197.89 250.56 197.89H249.56C249.36 197.89 249.21 198 249.22 198.12L249.69 202.41C249.7 202.54 249.88 202.64 250.08 202.64Z" fill="#F28F8F"/>
<path d="M264.85 202.64H265.85C266.05 202.64 266.21 202.54 266.19 202.41L265.72 198.12C265.72 198 265.53 197.89 265.34 197.89H264.34C264.15 197.89 263.99 198 264.01 198.12L264.48 202.41C264.48 202.54 264.65 202.64 264.85 202.64Z" fill="#F28F8F"/>
<path d="M291 200.24L281.55 202.89L289.19 208.08C289.19 208.08 294.39 205.44 294.47 201.67L291 200.24Z" fill="#CE7A63"/>
<path d="M294.7 153.48C296.52 157.58 298.256 161.713 299.91 165.88C301.59 170.05 303.21 174.22 304.73 178.52C305.11 179.6 305.48 180.67 305.85 181.85L305.98 182.29L306.16 182.99C306.268 183.447 306.338 183.912 306.37 184.38C306.447 185.25 306.416 186.127 306.28 186.99C305.752 189.748 304.599 192.347 302.91 194.59C300.077 198.467 296.62 201.847 292.68 204.59L289.62 201.16C292.328 197.956 294.703 194.485 296.71 190.8C297.537 189.331 298.055 187.707 298.23 186.03C298.234 185.781 298.207 185.532 298.15 185.29C298.132 185.204 298.105 185.12 298.07 185.04L297.89 184.58C297.53 183.65 297.09 182.58 296.67 181.58L291.39 169.37C289.6 165.3 287.86 161.19 286.16 157.08L294.7 153.48Z" fill="#CE7A63"/>
<path d="M285.79 144.82C294.84 144.82 299.1 159.53 299.1 159.53L286.58 170.42C286.58 170.42 281.25 161.9 280.58 156.92C279.93 151.73 281.38 144.82 285.79 144.82Z" fill="#263238"/>
<path d="M277 209.04L283.62 213.04L289.16 208.08L281.52 202.89L277 209.04Z" fill="#CE7A63"/>
<path d="M279.22 143.2C279.122 143.189 279.022 143.204 278.931 143.242C278.84 143.281 278.761 143.342 278.7 143.42C276.01 146.95 246.36 186.36 243.46 214.31C243.34 216.06 243.11 220.5 243.11 220.5C243.11 220.5 247.89 190.08 282.01 144.37C282.073 144.288 282.112 144.191 282.125 144.089C282.138 143.986 282.123 143.882 282.083 143.788C282.042 143.693 281.977 143.611 281.893 143.55C281.81 143.488 281.712 143.451 281.61 143.44L279.22 143.2Z" fill="#F28F8F"/>
<path opacity="0.4" d="M279.22 143.2C279.122 143.189 279.022 143.204 278.931 143.242C278.84 143.281 278.761 143.342 278.7 143.42C276.01 146.95 246.36 186.36 243.46 214.31C243.34 216.06 243.11 220.5 243.11 220.5C243.11 220.5 247.89 190.08 282.01 144.37C282.073 144.288 282.112 144.191 282.125 144.089C282.138 143.986 282.123 143.882 282.083 143.788C282.042 143.693 281.977 143.611 281.893 143.55C281.81 143.488 281.712 143.451 281.61 143.44L279.22 143.2Z" fill="#2B076E"/>
<defs>
<linearGradient id="paint0_linear" x1="513.951" y1="548.116" x2="593.266" y2="593.884" gradientUnits="userSpaceOnUse">
<stop stop-color="#BCBEFF"/>
<stop offset="0.23" stop-color="#AAADF8"/>
<stop offset="0.68" stop-color="#7C83E5"/>
<stop offset="1" stop-color="#5761D7"/>
</linearGradient>
<linearGradient id="paint1_linear" x1="504.002" y1="565.437" x2="603.935" y2="565.437" gradientUnits="userSpaceOnUse">
<stop stop-color="#E9E9FD"/>
<stop offset="0.36" stop-color="#D3D2F9"/>
<stop offset="0.71" stop-color="#C5C4F7"/>
<stop offset="1" stop-color="#C0BFF6"/>
</linearGradient>
<linearGradient id="paint2_linear" x1="52360" y1="9546.62" x2="54111.4" y2="12089" gradientUnits="userSpaceOnUse">
<stop stop-color="#BCBEFF"/>
<stop offset="0.23" stop-color="#AAADF8"/>
<stop offset="0.68" stop-color="#7C83E5"/>
<stop offset="1" stop-color="#5761D7"/>
</linearGradient>
<linearGradient id="paint3_linear" x1="51817" y1="14093.8" x2="56956.7" y2="14093.8" gradientUnits="userSpaceOnUse">
<stop stop-color="#E9E9FD"/>
<stop offset="0.36" stop-color="#D3D2F9"/>
<stop offset="0.71" stop-color="#C5C4F7"/>
<stop offset="1" stop-color="#C0BFF6"/>
</linearGradient>
<linearGradient id="paint4_linear" x1="364.959" y1="471.479" x2="535.052" y2="471.479" gradientUnits="userSpaceOnUse">
<stop stop-color="#5778FF"/>
<stop offset="0.1042" stop-color="#567FFF"/>
<stop offset="0.2607" stop-color="#5394FF"/>
<stop offset="0.4503" stop-color="#4DB6FF"/>
<stop offset="0.6638" stop-color="#46E4FF"/>
<stop offset="0.7742" stop-color="#42FFFF"/>
</linearGradient>
<linearGradient id="paint5_linear" x1="43049.8" y1="11859.4" x2="44801.1" y2="14401.9" gradientUnits="userSpaceOnUse">
<stop stop-color="#BCBEFF"/>
<stop offset="0.23" stop-color="#AAADF8"/>
<stop offset="0.68" stop-color="#7C83E5"/>
<stop offset="1" stop-color="#5761D7"/>
</linearGradient>
<linearGradient id="paint6_linear" x1="42531.6" y1="17457.7" x2="47674.8" y2="17457.7" gradientUnits="userSpaceOnUse">
<stop stop-color="#E9E9FD"/>
<stop offset="0.36" stop-color="#D3D2F9"/>
<stop offset="0.71" stop-color="#C5C4F7"/>
<stop offset="1" stop-color="#C0BFF6"/>
</linearGradient>
<linearGradient id="paint7_linear" x1="43049.8" y1="10510.5" x2="44800.6" y2="13052.3" gradientUnits="userSpaceOnUse">
<stop stop-color="#BCBEFF"/>
<stop offset="0.23" stop-color="#AAADF8"/>
<stop offset="0.68" stop-color="#7C83E5"/>
<stop offset="1" stop-color="#5761D7"/>
</linearGradient>
<linearGradient id="paint8_linear" x1="42531.6" y1="15521.9" x2="47674.8" y2="15521.9" gradientUnits="userSpaceOnUse">
<stop stop-color="#E9E9FD"/>
<stop offset="0.36" stop-color="#D3D2F9"/>
<stop offset="0.71" stop-color="#C5C4F7"/>
<stop offset="1" stop-color="#C0BFF6"/>
</linearGradient>
<linearGradient id="paint9_linear" x1="224.231" y1="487.7" x2="54.1412" y2="488.704" gradientUnits="userSpaceOnUse">
<stop stop-color="#5778FF"/>
<stop offset="0.1042" stop-color="#567FFF"/>
<stop offset="0.2607" stop-color="#5394FF"/>
<stop offset="0.4503" stop-color="#4DB6FF"/>
<stop offset="0.6638" stop-color="#46E4FF"/>
<stop offset="0.7742" stop-color="#42FFFF"/>
</linearGradient>
<linearGradient id="paint10_linear" x1="26610.7" y1="5179.86" x2="28362.1" y2="7720.14" gradientUnits="userSpaceOnUse">
<stop stop-color="#BCBEFF"/>
<stop offset="0.23" stop-color="#AAADF8"/>
<stop offset="0.68" stop-color="#7C83E5"/>
<stop offset="1" stop-color="#5761D7"/>
</linearGradient>
<linearGradient id="paint11_linear" x1="26074.4" y1="7918.77" x2="31208.5" y2="7918.77" gradientUnits="userSpaceOnUse">
<stop stop-color="#E9E9FD"/>
<stop offset="0.36" stop-color="#D3D2F9"/>
<stop offset="0.71" stop-color="#C5C4F7"/>
<stop offset="1" stop-color="#C0BFF6"/>
</linearGradient>
<linearGradient id="paint12_linear" x1="26610.7" y1="3966.11" x2="28367.1" y2="6508.26" gradientUnits="userSpaceOnUse">
<stop stop-color="#BCBEFF"/>
<stop offset="0.23" stop-color="#AAADF8"/>
<stop offset="0.68" stop-color="#7C83E5"/>
<stop offset="1" stop-color="#5761D7"/>
</linearGradient>
<linearGradient id="paint13_linear" x1="517.702" y1="134.854" x2="588.41" y2="175.638" gradientUnits="userSpaceOnUse">
<stop offset="0.24" stop-color="#5761D7"/>
<stop offset="0.39" stop-color="#7A82E5"/>
<stop offset="0.55" stop-color="#979CF0"/>
<stop offset="0.7" stop-color="#ACAFF8"/>
<stop offset="0.85" stop-color="#B8BAFD"/>
<stop offset="1" stop-color="#BCBEFF"/>
</linearGradient>
<linearGradient id="paint14_linear" x1="26099.3" y1="6168.71" x2="31238.3" y2="6168.71" gradientUnits="userSpaceOnUse">
<stop stop-color="#E9E9FD"/>
<stop offset="0.36" stop-color="#D3D2F9"/>
<stop offset="0.71" stop-color="#C5C4F7"/>
<stop offset="1" stop-color="#C0BFF6"/>
</linearGradient>
<linearGradient id="paint15_linear" x1="25381.1" y1="5981.93" x2="30207.3" y2="5981.93" gradientUnits="userSpaceOnUse">
<stop stop-color="#E9E9FD"/>
<stop offset="0.36" stop-color="#D3D2F9"/>
<stop offset="0.71" stop-color="#C5C4F7"/>
<stop offset="1" stop-color="#C0BFF6"/>
</linearGradient>
<linearGradient id="paint16_linear" x1="411.839" y1="329.499" x2="496.886" y2="182.194" gradientUnits="userSpaceOnUse">
<stop stop-color="#5778FF"/>
<stop offset="0.1042" stop-color="#567FFF"/>
<stop offset="0.2607" stop-color="#5394FF"/>
<stop offset="0.4503" stop-color="#4DB6FF"/>
<stop offset="0.6638" stop-color="#46E4FF"/>
<stop offset="0.7742" stop-color="#42FFFF"/>
</linearGradient>
</defs>
</svg>
