<svg width="770" height="364" viewBox="0 0 770 364" fill="none" xmlns="http://www.w3.org/2000/svg">
<g filter="url(#filter0_b)">
<rect x="152" width="610" height="364" rx="16" fill="#35068C"/>
</g>
<path d="M374.004 57.5925H375.849V54.1522H377.798C380.149 54.1522 381.412 52.7403 381.412 50.7814C381.412 48.8376 380.164 47.4107 377.822 47.4107H374.004V57.5925ZM375.849 52.6359V48.9519H377.539C378.921 48.9519 379.533 49.6976 379.533 50.7814C379.533 51.8653 378.921 52.6359 377.549 52.6359H375.849ZM382.934 57.5925H384.734V53.1032C384.734 52.1337 385.465 51.4476 386.454 51.4476C386.758 51.4476 387.135 51.5023 387.29 51.552V49.8965C387.126 49.8667 386.842 49.8468 386.643 49.8468C385.768 49.8468 385.037 50.3439 384.759 51.2289H384.68V49.9562H382.934V57.5925ZM388.485 57.5925H390.285V49.9562H388.485V57.5925ZM389.39 48.8724C389.962 48.8724 390.429 48.4349 390.429 47.8979C390.429 47.356 389.962 46.9185 389.39 46.9185C388.813 46.9185 388.346 47.356 388.346 47.8979C388.346 48.4349 388.813 48.8724 389.39 48.8724ZM395.467 57.7417C397.386 57.7417 398.609 56.6032 398.738 54.9824H397.018C396.864 55.8028 396.272 56.2751 395.482 56.2751C394.358 56.2751 393.632 55.3354 393.632 53.7743C393.632 52.2332 394.373 51.3084 395.482 51.3084C396.347 51.3084 396.879 51.8653 397.018 52.6011H398.738C398.614 50.9455 397.321 49.8567 395.457 49.8567C393.219 49.8567 391.808 51.4725 391.808 53.8042C391.808 56.116 393.185 57.7417 395.467 57.7417ZM403.596 57.7417C405.376 57.7417 406.599 56.8716 406.917 55.5442L405.237 55.3553C404.993 56.0016 404.397 56.3397 403.621 56.3397C402.458 56.3397 401.687 55.5741 401.672 54.2665H406.992V53.7147C406.992 51.035 405.381 49.8567 403.502 49.8567C401.314 49.8567 399.888 51.4626 399.888 53.8191C399.888 56.2154 401.295 57.7417 403.596 57.7417ZM401.677 53.0535C401.732 52.079 402.453 51.2587 403.527 51.2587C404.561 51.2587 405.257 52.0144 405.267 53.0535H401.677Z" fill="white"/>
<path d="M503.719 50.8461C503.406 48.584 501.666 47.2715 499.409 47.2715C496.749 47.2715 494.746 49.2104 494.746 52.5016C494.746 55.7878 496.724 57.7317 499.409 57.7317C501.83 57.7317 503.436 56.1657 503.719 54.2218L501.86 54.2118C501.626 55.405 500.652 56.0762 499.434 56.0762C497.783 56.0762 496.6 54.8383 496.6 52.5016C496.6 50.2047 497.773 48.927 499.439 48.927C500.677 48.927 501.646 49.628 501.86 50.8461H503.719ZM507.129 53.1181C507.129 52.0144 507.815 51.378 508.779 51.378C509.724 51.378 510.281 51.9796 510.281 53.0087V57.5925H512.08V52.7303C512.08 50.8859 511.036 49.8567 509.45 49.8567C508.277 49.8567 507.531 50.3887 507.178 51.2538H507.089V47.4107H505.329V57.5925H507.129V53.1181ZM516.112 57.7466C517.311 57.7466 518.026 57.1849 518.355 56.5435H518.414V57.5925H520.144V52.4817C520.144 50.4633 518.499 49.8567 517.042 49.8567C515.436 49.8567 514.203 50.5726 513.806 51.9647L515.486 52.2033C515.665 51.6813 516.172 51.2339 517.052 51.2339C517.887 51.2339 518.345 51.6614 518.345 52.4121V52.442C518.345 52.959 517.803 52.9839 516.455 53.128C514.974 53.2871 513.557 53.7296 513.557 55.4498C513.557 56.9512 514.656 57.7466 516.112 57.7466ZM516.58 56.4242C515.829 56.4242 515.292 56.0812 515.292 55.4199C515.292 54.7289 515.894 54.4405 516.699 54.3262C517.171 54.2616 518.116 54.1422 518.35 53.9533V54.8532C518.35 55.7033 517.664 56.4242 516.58 56.4242ZM523.754 53.1181C523.754 52.0144 524.42 51.378 525.369 51.378C526.299 51.378 526.856 51.9895 526.856 53.0087V57.5925H528.656V52.7303C528.661 50.9008 527.617 49.8567 526.041 49.8567C524.897 49.8567 524.112 50.4036 523.764 51.2538H523.674V49.9562H521.954V57.5925H523.754V53.1181ZM533.806 60.6153C535.869 60.6153 537.391 59.6707 537.391 57.7168V49.9562H535.616V51.2189H535.517C535.243 50.6671 534.671 49.8567 533.324 49.8567C531.559 49.8567 530.172 51.2388 530.172 53.7495C530.172 56.2403 531.559 57.4832 533.319 57.4832C534.627 57.4832 535.238 56.7822 535.517 56.2204H535.606V57.6671C535.606 58.7907 534.86 59.253 533.836 59.253C532.752 59.253 532.275 58.741 532.056 58.2935L530.436 58.6863C530.764 59.7552 531.862 60.6153 533.806 60.6153ZM533.821 56.0712C532.633 56.0712 532.007 55.1465 532.007 53.7395C532.007 52.3525 532.623 51.3333 533.821 51.3333C534.98 51.3333 535.616 52.2928 535.616 53.7395C535.616 55.1962 534.97 56.0712 533.821 56.0712ZM542.616 57.7417C544.396 57.7417 545.619 56.8716 545.937 55.5442L544.257 55.3553C544.013 56.0016 543.416 56.3397 542.641 56.3397C541.477 56.3397 540.707 55.5741 540.692 54.2665H546.012V53.7147C546.012 51.035 544.401 49.8567 542.521 49.8567C540.334 49.8567 538.907 51.4626 538.907 53.8191C538.907 56.2154 540.314 57.7417 542.616 57.7417ZM540.697 53.0535C540.752 52.079 541.472 51.2587 542.546 51.2587C543.58 51.2587 544.276 52.0144 544.286 53.0535H540.697Z" fill="white"/>
<path d="M637.367 47.4107H635.343L638.928 57.5925H641.205L644.794 47.4107H642.766L640.121 55.4249H640.017L637.367 47.4107ZM648.566 57.7417C650.804 57.7417 652.226 56.1657 652.226 53.8042C652.226 51.4377 650.804 49.8567 648.566 49.8567C646.329 49.8567 644.907 51.4377 644.907 53.8042C644.907 56.1657 646.329 57.7417 648.566 57.7417ZM648.576 56.2999C647.338 56.2999 646.732 55.1962 646.732 53.7992C646.732 52.4022 647.338 51.2836 648.576 51.2836C649.794 51.2836 650.401 52.4022 650.401 53.7992C650.401 55.1962 649.794 56.2999 648.576 56.2999ZM655.553 47.4107H653.753V57.5925H655.553V47.4107ZM662.271 54.3809C662.271 55.5442 661.44 56.1209 660.645 56.1209C659.78 56.1209 659.203 55.5094 659.203 54.54V49.9562H657.403V54.8184C657.403 56.6529 658.448 57.692 659.949 57.692C661.092 57.692 661.898 57.0904 662.246 56.2353H662.325V57.5925H664.07V49.9562H662.271V54.3809ZM665.921 57.5925H667.721V52.9491C667.721 52.0094 668.347 51.3731 669.123 51.3731C669.883 51.3731 670.405 51.8851 670.405 52.6707V57.5925H672.17V52.8297C672.17 51.9697 672.682 51.3731 673.552 51.3731C674.278 51.3731 674.855 51.8006 674.855 52.7452V57.5925H676.66V52.4668C676.66 50.7616 675.675 49.8567 674.273 49.8567C673.165 49.8567 672.319 50.4036 671.981 51.2538H671.902C671.609 50.3887 670.868 49.8567 669.839 49.8567C668.815 49.8567 668.049 50.3837 667.731 51.2538H667.641V49.9562H665.921V57.5925ZM681.866 57.7417C683.646 57.7417 684.869 56.8716 685.187 55.5442L683.507 55.3553C683.263 56.0016 682.667 56.3397 681.891 56.3397C680.728 56.3397 679.957 55.5741 679.942 54.2665H685.262V53.7147C685.262 51.035 683.651 49.8567 681.772 49.8567C679.584 49.8567 678.157 51.4626 678.157 53.8191C678.157 56.2154 679.564 57.7417 681.866 57.7417ZM679.947 53.0535C680.002 52.079 680.723 51.2587 681.797 51.2587C682.831 51.2587 683.527 52.0144 683.537 53.0535H679.947ZM690.704 53.4413C690.704 55.9221 691.366 57.9853 692.673 59.7552H694.368C693.359 58.4427 692.579 55.7978 692.579 53.4413C692.579 51.0797 693.359 48.4349 694.368 47.1224H692.673C691.366 48.8922 690.704 50.9604 690.704 53.4413ZM695.747 57.5925H702.727V56.0513H698.292V55.9817L700.047 54.1969C702.026 52.2978 702.573 51.3731 702.573 50.2246C702.573 48.5194 701.186 47.2715 699.137 47.2715C697.119 47.2715 695.687 48.5243 695.687 50.4583H697.442C697.442 49.4192 698.098 48.768 699.113 48.768C700.082 48.768 700.803 49.3596 700.803 50.3191C700.803 51.1692 700.286 51.7758 699.282 52.7949L695.747 56.2601V57.5925ZM704.039 55.7033H708.897V57.5925H710.657V55.7033H711.959V54.187H710.657V47.4107H708.36L704.039 54.2367V55.7033ZM708.917 54.187H705.929V54.1074L708.837 49.4988H708.917V54.187ZM715.367 53.1181C715.367 52.0144 716.053 51.378 717.018 51.378C717.962 51.378 718.519 51.9796 718.519 53.0087V57.5925H720.319V52.7303C720.319 50.8859 719.275 49.8567 717.689 49.8567C716.516 49.8567 715.77 50.3887 715.417 51.2538H715.327V47.4107H713.568V57.5925H715.367V53.1181ZM725.365 53.4413C725.365 50.9604 724.704 48.8972 723.396 47.1273H721.701C722.71 48.4398 723.491 51.0847 723.491 53.4413C723.491 55.8028 722.71 58.4476 721.701 59.7601H723.396C724.704 57.9903 725.365 55.9221 725.365 53.4413Z" fill="white"/>
<path d="M249.409 125.071H253.614C256.364 125.071 257.5 123.73 257.5 121.98C257.5 120.139 256.227 119.139 255.159 119.071V118.958C256.159 118.685 257.045 118.026 257.045 116.526C257.045 114.821 255.909 113.435 253.477 113.435H249.409V125.071ZM250.818 123.821V119.776H253.682C255.205 119.776 256.159 120.799 256.159 121.98C256.159 123.003 255.455 123.821 253.614 123.821H250.818ZM250.818 118.549V114.685H253.477C255.023 114.685 255.705 115.503 255.705 116.526C255.705 117.753 254.705 118.549 253.432 118.549H250.818ZM259.794 125.071H261.134V116.344H259.794V125.071ZM260.475 114.889C260.998 114.889 261.43 114.48 261.43 113.98C261.43 113.48 260.998 113.071 260.475 113.071C259.953 113.071 259.521 113.48 259.521 113.98C259.521 114.48 259.953 114.889 260.475 114.889ZM267.546 116.344H265.682V114.253H264.341V116.344H263.023V117.48H264.341V122.935C264.341 124.458 265.569 125.185 266.705 125.185C267.205 125.185 267.523 125.094 267.705 125.026L267.432 123.821C267.319 123.844 267.137 123.889 266.841 123.889C266.25 123.889 265.682 123.708 265.682 122.571V117.48H267.546V116.344ZM273.175 125.253C275.106 125.253 276.379 124.071 276.606 122.526H275.266C275.016 123.48 274.22 124.049 273.175 124.049C271.584 124.049 270.561 122.73 270.561 120.708C270.561 118.73 271.606 117.435 273.175 117.435C274.356 117.435 275.061 118.162 275.266 118.958H276.606C276.379 117.321 274.993 116.23 273.152 116.23C270.788 116.23 269.22 118.094 269.22 120.753C269.22 123.367 270.72 125.253 273.175 125.253ZM282.272 125.253C284.636 125.253 286.227 123.458 286.227 120.753C286.227 118.026 284.636 116.23 282.272 116.23C279.908 116.23 278.318 118.026 278.318 120.753C278.318 123.458 279.908 125.253 282.272 125.253ZM282.272 124.049C280.477 124.049 279.658 122.503 279.658 120.753C279.658 119.003 280.477 117.435 282.272 117.435C284.068 117.435 284.886 119.003 284.886 120.753C284.886 122.503 284.068 124.049 282.272 124.049ZM288.434 125.071H289.774V116.344H288.434V125.071ZM289.115 114.889C289.638 114.889 290.07 114.48 290.07 113.98C290.07 113.48 289.638 113.071 289.115 113.071C288.593 113.071 288.161 113.48 288.161 113.98C288.161 114.48 288.593 114.889 289.115 114.889ZM293.731 119.821C293.731 118.299 294.674 117.435 295.959 117.435C297.203 117.435 297.959 118.247 297.959 119.617V125.071H299.299V119.526C299.299 117.299 298.112 116.23 296.345 116.23C295.027 116.23 294.209 116.821 293.799 117.708H293.686V116.344H292.39V125.071H293.731V119.821Z" fill="#F2F2F2"/>
<path d="M249.264 98.5554H255.479C258.746 98.5554 260.486 96.8509 260.486 94.5355C260.486 92.3835 258.945 91.0838 257.29 91.0057V90.8637C258.803 90.5227 259.918 89.4503 259.918 87.7387C259.918 85.5583 258.298 84.01 255.088 84.01H249.264V98.5554ZM252.339 96.0412V92.1776H254.918C256.395 92.1776 257.311 93.0299 257.311 94.2301C257.311 95.3239 256.565 96.0412 254.847 96.0412H252.339ZM252.339 90.0966V86.4958H254.676C256.04 86.4958 256.814 87.1989 256.814 88.25C256.814 89.4006 255.876 90.0966 254.619 90.0966H252.339ZM261.933 86.5455H266.386V98.5554H269.426V86.5455H273.879V84.01H261.933V86.5455ZM288.036 89.1023C287.631 85.7429 285.088 83.8111 281.722 83.8111C277.879 83.8111 274.946 86.5242 274.946 91.2827C274.946 96.027 277.83 98.7543 281.722 98.7543C285.45 98.7543 287.702 96.2756 288.036 93.598L284.925 93.5838C284.634 95.1392 283.412 96.0341 281.771 96.0341C279.562 96.0341 278.064 94.3935 278.064 91.2827C278.064 88.2571 279.541 86.5313 281.793 86.5313C283.476 86.5313 284.69 87.5043 284.925 89.1023H288.036Z" fill="white"/>
<ellipse cx="212" cy="104.623" rx="20" ry="21.7964" fill="#C4C4C4"/>
<g clip-path="url(#clip0)">
<path d="M231.402 109.894C228.73 121.577 217.869 128.679 207.164 125.766C196.444 122.854 189.927 111.018 192.599 99.352C195.272 87.6692 206.117 80.5673 216.837 83.4797C227.542 86.3749 234.074 98.211 231.402 109.894Z" fill="url(#paint0_linear)"/>
<path d="M221.522 101.907C221.913 99.0122 219.897 97.4456 217.116 96.4069L218.022 92.4733L215.835 91.8773L214.96 95.7087C214.382 95.5554 213.788 95.4022 213.194 95.266L214.069 91.4175L211.882 90.8215L210.991 94.7381C210.507 94.6189 210.038 94.4997 209.585 94.3805V94.3634L206.554 93.5461L205.975 96.1003C205.975 96.1003 207.6 96.509 207.569 96.5261C208.46 96.7645 208.616 97.4115 208.585 97.9224L207.554 102.401C207.616 102.418 207.694 102.435 207.788 102.486C207.71 102.469 207.632 102.452 207.554 102.418L206.116 108.684C206.007 108.974 205.725 109.417 205.116 109.246C205.132 109.28 203.522 108.821 203.522 108.821L202.429 111.562L205.288 112.345C205.819 112.499 206.335 112.635 206.85 112.788L205.944 116.756L208.132 117.352L209.038 113.418C209.632 113.589 210.225 113.759 210.788 113.912L209.897 117.829L212.085 118.425L212.991 114.457C216.741 115.223 219.554 114.917 220.725 111.222C221.679 108.259 220.679 106.539 218.71 105.415C220.163 105.057 221.241 104.019 221.522 101.907ZM216.507 109.57C215.835 112.533 211.241 110.932 209.757 110.523L210.96 105.262C212.444 105.67 217.225 106.471 216.507 109.57ZM217.194 101.856C216.569 104.563 212.757 103.184 211.522 102.844L212.616 98.0756C213.85 98.4162 217.835 99.0463 217.194 101.856Z" fill="white"/>
</g>
<path d="M377.636 111.27H378.568V110.003C380.955 109.838 382.295 108.429 382.295 106.656C382.295 104.474 380.227 103.77 379.023 103.452L378.568 103.327V99.2868C379.773 99.4061 380.648 100.054 380.773 101.088H382.136C382.08 99.4288 380.625 98.1675 378.568 98.0311V96.7243H377.636V98.0481C375.688 98.247 374.227 99.4856 374.227 101.27C374.227 102.838 375.364 103.77 377.182 104.292L377.636 104.423V108.724C376.443 108.599 375.466 107.986 375.364 106.815H373.909C374.04 108.605 375.403 109.855 377.636 110.003V111.27ZM378.568 108.724V104.69L378.614 104.702C379.841 105.042 380.932 105.474 380.932 106.633C380.932 107.775 379.943 108.571 378.568 108.724ZM377.636 103.077C376.773 102.832 375.591 102.355 375.591 101.202C375.591 100.219 376.386 99.4686 377.636 99.3038V103.077ZM388.271 109.974C390.624 110.003 392.158 108.23 392.158 106.065C392.158 103.815 390.493 102.202 388.499 102.202C387.3 102.202 386.271 102.787 385.635 103.747H385.544C385.55 100.912 386.652 99.2697 388.453 99.2697C389.68 99.2697 390.419 100.042 390.68 101.088H392.067C391.783 99.2811 390.408 98.0197 388.453 98.0197C385.834 98.0197 384.226 100.338 384.226 104.452C384.226 108.753 386.362 109.952 388.271 109.974ZM388.271 108.724C386.811 108.724 385.743 107.48 385.749 106.088C385.754 104.696 386.874 103.452 388.317 103.452C389.743 103.452 390.794 104.622 390.794 106.065C390.794 107.542 389.697 108.724 388.271 108.724ZM394.756 109.815H396.233L401.415 99.497V98.1788H393.96V99.4288H399.96V99.5197L394.756 109.815ZM407.013 109.974C409.229 109.974 410.854 108.338 410.854 106.111C410.854 103.855 409.286 102.202 407.149 102.202C406.365 102.202 405.604 102.48 405.126 102.861H405.058L405.467 99.4288H410.331V98.1788H404.286L403.581 103.906L404.899 104.065C405.382 103.719 406.206 103.469 406.922 103.474C408.405 103.486 409.49 104.611 409.49 106.133C409.49 107.628 408.445 108.724 407.013 108.724C405.82 108.724 404.871 107.957 404.763 106.906H403.399C403.484 108.679 405.013 109.974 407.013 109.974ZM416.906 109.974C419.474 109.974 420.952 107.798 420.952 103.997C420.952 100.224 419.452 98.0197 416.906 98.0197C414.361 98.0197 412.861 100.224 412.861 103.997C412.861 107.798 414.338 109.974 416.906 109.974ZM416.906 108.724C415.213 108.724 414.224 107.025 414.224 103.997C414.224 100.974 415.224 99.247 416.906 99.247C418.588 99.247 419.588 100.974 419.588 103.997C419.588 107.025 418.599 108.724 416.906 108.724Z" fill="#F2F2F2"/>
<ellipse opacity="0.1" cx="502" cy="105.713" rx="8" ry="8.71857" fill="#8FFFBE"/>
<path d="M505.388 107.595L502.181 103.542C502.089 103.426 501.912 103.426 501.819 103.542L498.612 107.595C498.493 107.746 498.6 107.968 498.793 107.968H505.207C505.399 107.968 505.507 107.746 505.388 107.595Z" fill="#8FFFBE"/>
<path d="M522.636 107.77H523.909V104.656H527.023V103.383H523.909V100.27H522.636V103.383H519.523V104.656H522.636V107.77ZM529.756 109.815H531.233L536.415 99.497V98.1788H528.96V99.4288H534.96V99.5197L529.756 109.815ZM537.533 109.906C538.095 109.906 538.555 109.446 538.555 108.883C538.555 108.321 538.095 107.861 537.533 107.861C536.97 107.861 536.51 108.321 536.51 108.883C536.51 109.446 536.97 109.906 537.533 109.906ZM544.433 109.974C546.689 109.974 548.365 108.56 548.365 106.656C548.365 105.179 547.49 104.105 546.024 103.861V103.77C547.2 103.412 547.933 102.446 547.933 101.133C547.933 99.4856 546.632 98.0197 544.479 98.0197C542.467 98.0197 540.797 99.2584 540.729 101.088H542.092C542.143 99.9288 543.246 99.247 544.456 99.247C545.74 99.247 546.57 100.025 546.57 101.202C546.57 102.429 545.609 103.224 544.229 103.224H543.297V104.474H544.229C545.996 104.474 546.979 105.372 546.979 106.656C546.979 107.889 545.905 108.724 544.411 108.724C543.064 108.724 541.996 108.031 541.911 106.906H540.479C540.564 108.736 542.178 109.974 544.433 109.974ZM556.621 107.633C556.621 108.906 557.416 109.974 558.893 109.974C560.348 109.974 561.143 108.906 561.143 107.633V107.02C561.143 105.747 560.371 104.679 558.893 104.679C557.439 104.679 556.621 105.747 556.621 107.02V107.633ZM550.825 100.974C550.825 102.247 551.621 103.315 553.098 103.315C554.553 103.315 555.348 102.247 555.348 100.974V100.361C555.348 99.0879 554.575 98.0197 553.098 98.0197C551.643 98.0197 550.825 99.0879 550.825 100.361V100.974ZM551.257 109.815H552.553L560.553 98.1788H559.257L551.257 109.815ZM557.78 107.02C557.78 106.315 558.098 105.656 558.893 105.656C559.712 105.656 559.984 106.315 559.984 107.02V107.633C559.984 108.338 559.689 108.997 558.893 108.997C558.075 108.997 557.78 108.338 557.78 107.633V107.02ZM551.984 100.361C551.984 99.6561 552.303 98.997 553.098 98.997C553.916 98.997 554.189 99.6561 554.189 100.361V100.974C554.189 101.679 553.893 102.338 553.098 102.338C552.28 102.338 551.984 101.679 551.984 100.974V100.361Z" fill="#8FFFBE"/>
<path d="M639.637 111.27H640.568V110.003C642.955 109.838 644.296 108.429 644.296 106.656C644.296 104.474 642.228 103.77 641.023 103.452L640.568 103.327V99.2868C641.773 99.4061 642.648 100.054 642.773 101.088H644.137C644.08 99.4288 642.625 98.1675 640.568 98.0311V96.7243H639.637V98.0481C637.688 98.247 636.228 99.4856 636.228 101.27C636.228 102.838 637.364 103.77 639.182 104.292L639.637 104.423V108.724C638.443 108.599 637.466 107.986 637.364 106.815H635.909C636.04 108.605 637.404 109.855 639.637 110.003V111.27ZM640.568 108.724V104.69L640.614 104.702C641.841 105.042 642.932 105.474 642.932 106.633C642.932 107.775 641.943 108.571 640.568 108.724ZM639.637 103.077C638.773 102.832 637.591 102.355 637.591 101.202C637.591 100.219 638.387 99.4686 639.637 99.3038V103.077ZM650.34 109.974C652.595 109.974 654.272 108.56 654.272 106.656C654.272 105.179 653.397 104.105 651.931 103.861V103.77C653.107 103.412 653.84 102.446 653.84 101.133C653.84 99.4856 652.539 98.0197 650.385 98.0197C648.374 98.0197 646.703 99.2584 646.635 101.088H647.999C648.05 99.9288 649.152 99.247 650.362 99.247C651.647 99.247 652.476 100.025 652.476 101.202C652.476 102.429 651.516 103.224 650.135 103.224H649.203V104.474H650.135C651.902 104.474 652.885 105.372 652.885 106.656C652.885 107.889 651.811 108.724 650.317 108.724C648.97 108.724 647.902 108.031 647.817 106.906H646.385C646.47 108.736 648.084 109.974 650.34 109.974ZM656.323 107.429H661.8V109.815H663.141V107.429H664.732V106.179H663.141V98.1788H661.436L656.323 106.27V107.429ZM661.8 106.179H657.845V106.088L661.709 99.9743H661.8V106.179ZM666.861 109.815H674.202V108.565H668.793V108.474L671.406 105.679C673.406 103.537 673.997 102.537 673.997 101.247C673.997 99.4515 672.543 98.0197 670.497 98.0197C668.458 98.0197 666.906 99.4061 666.906 101.452H668.247C668.247 100.128 669.105 99.247 670.452 99.247C671.713 99.247 672.679 100.02 672.679 101.247C672.679 102.321 672.049 103.116 670.702 104.588L666.861 108.792V109.815ZM680.344 109.974C682.912 109.974 684.389 107.798 684.389 103.997C684.389 100.224 682.889 98.0197 680.344 98.0197C677.799 98.0197 676.299 100.224 676.299 103.997C676.299 107.798 677.776 109.974 680.344 109.974ZM680.344 108.724C678.651 108.724 677.662 107.025 677.662 103.997C677.662 100.974 678.662 99.247 680.344 99.247C682.026 99.247 683.026 100.974 683.026 103.997C683.026 107.025 682.037 108.724 680.344 108.724ZM686.549 109.815H693.889V108.565H688.48V108.474L691.094 105.679C693.094 103.537 693.685 102.537 693.685 101.247C693.685 99.4515 692.23 98.0197 690.185 98.0197C688.145 98.0197 686.594 99.4061 686.594 101.452H687.935C687.935 100.128 688.793 99.247 690.139 99.247C691.401 99.247 692.367 100.02 692.367 101.247C692.367 102.321 691.736 103.116 690.389 104.588L686.549 108.792V109.815ZM700.327 98.1788H698.918L696.009 100.111V101.542L698.85 99.6561H698.918V109.815H700.327V98.1788ZM703.401 107.429H708.878V109.815H710.219V107.429H711.81V106.179H710.219V98.1788H708.514L703.401 106.27V107.429ZM708.878 106.179H704.924V106.088L708.787 99.9743H708.878V106.179Z" fill="#F2F2F2"/>
<g filter="url(#filter1_d)">
<rect x="80" y="156.935" width="610" height="86.0958" rx="16" fill="#4610AD"/>
<path d="M177.409 219.886H184.523V218.636H178.818V214.681H184.068V213.431H178.818V209.5H184.432V208.25H177.409V219.886ZM190.745 211.159H188.882V209.068H187.541V211.159H186.222V212.295H187.541V217.75C187.541 219.272 188.768 220 189.904 220C190.404 220 190.722 219.909 190.904 219.841L190.632 218.636C190.518 218.659 190.336 218.704 190.041 218.704C189.45 218.704 188.882 218.522 188.882 217.386V212.295H190.745V211.159ZM194.451 214.636C194.451 213.113 195.422 212.25 196.746 212.25C198.007 212.25 198.769 213.045 198.769 214.431V219.886H200.11V214.341C200.11 212.096 198.917 211.045 197.132 211.045C195.757 211.045 194.973 211.619 194.564 212.522H194.451V208.25H193.11V219.886H194.451V214.636ZM206.382 220.068C208.155 220.068 209.45 219.181 209.859 217.863L208.564 217.5C208.223 218.409 207.433 218.863 206.382 218.863C204.808 218.863 203.723 217.846 203.66 215.977H209.996V215.409C209.996 212.159 208.064 211.045 206.246 211.045C203.882 211.045 202.314 212.909 202.314 215.591C202.314 218.272 203.859 220.068 206.382 220.068ZM203.66 214.818C203.751 213.46 204.712 212.25 206.246 212.25C207.7 212.25 208.632 213.341 208.632 214.818H203.66ZM212.195 219.886H213.536V214.363C213.536 213.181 214.468 212.318 215.741 212.318C216.099 212.318 216.468 212.386 216.559 212.409V211.045C216.406 211.034 216.053 211.022 215.854 211.022C214.809 211.022 213.9 211.613 213.582 212.477H213.491V211.159H212.195V219.886ZM221.702 220.068C223.475 220.068 224.77 219.181 225.179 217.863L223.884 217.5C223.543 218.409 222.753 218.863 221.702 218.863C220.128 218.863 219.043 217.846 218.98 215.977H225.316V215.409C225.316 212.159 223.384 211.045 221.566 211.045C219.202 211.045 217.634 212.909 217.634 215.591C217.634 218.272 219.179 220.068 221.702 220.068ZM218.98 214.818C219.071 213.46 220.032 212.25 221.566 212.25C223.02 212.25 223.952 213.341 223.952 214.818H218.98ZM233.015 216.318C233.015 217.954 231.765 218.704 230.765 218.704C229.652 218.704 228.856 217.886 228.856 216.613V211.159H227.515V216.704C227.515 218.931 228.697 220 230.334 220C231.652 220 232.515 219.295 232.924 218.409H233.015V219.886H234.356V211.159H233.015V216.318ZM236.972 219.886H238.313V214.431C238.313 213.153 239.245 212.25 240.29 212.25C241.307 212.25 242.018 212.914 242.018 213.909V219.886H243.381V214.204C243.381 213.079 244.086 212.25 245.313 212.25C246.268 212.25 247.086 212.755 247.086 214.045V219.886H248.427V214.045C248.427 211.994 247.325 211.045 245.768 211.045C244.518 211.045 243.603 211.619 243.154 212.522H243.063C242.631 211.591 241.87 211.045 240.722 211.045C239.586 211.045 238.745 211.591 238.381 212.522H238.268V211.159H236.972V219.886Z" fill="#F2F2F2"/>
<path d="M177.264 193.37H187.094V190.835H180.339V187.362H186.561V184.826H180.339V181.36H187.065V178.825H177.264V193.37ZM188.956 181.36H193.409V193.37H196.449V181.36H200.902V178.825H188.956V181.36ZM202.87 193.37H205.945V187.362H212.188V193.37H215.256V178.825H212.188V184.826H205.945V178.825H202.87V193.37Z" fill="white"/>
<path d="M159.892 200.516C159.892 212.49 150.985 222.197 139.997 222.197C129.01 222.197 120.103 212.49 120.103 200.516C120.103 188.541 129.01 178.834 139.997 178.834C150.984 178.834 159.892 188.541 159.892 200.516Z" fill="#6374C3"/>
<path d="M139.933 190.465L139.81 190.92V204.129L139.933 204.262L145.559 200.638L139.933 190.465Z" fill="white"/>
<path d="M139.933 190.465L134.307 200.638L139.933 204.262V197.851V190.465Z" fill="white"/>
<path d="M139.933 206.257L139.863 206.349V211.054L139.933 211.274L145.562 202.634L139.933 206.257Z" fill="white"/>
<path d="M139.933 211.274V206.257L134.307 202.634L139.933 211.274Z" fill="white"/>
<path d="M139.933 204.263L145.559 200.639L139.933 197.853V204.263Z" fill="white"/>
<path d="M134.307 200.639L139.933 204.263V197.853L134.307 200.639Z" fill="white"/>
<path d="M305.636 206.084H306.568V204.817C308.955 204.653 310.295 203.244 310.295 201.471C310.295 199.289 308.227 198.584 307.023 198.266L306.568 198.141V194.101C307.773 194.221 308.648 194.869 308.773 195.903H310.136C310.08 194.244 308.625 192.982 306.568 192.846V191.539H305.636V192.863C303.688 193.062 302.227 194.3 302.227 196.084C302.227 197.653 303.364 198.584 305.182 199.107L305.636 199.238V203.539C304.443 203.414 303.466 202.8 303.364 201.63H301.909C302.04 203.42 303.403 204.67 305.636 204.817V206.084ZM306.568 203.539V199.505L306.614 199.516C307.841 199.857 308.932 200.289 308.932 201.448C308.932 202.59 307.943 203.386 306.568 203.539ZM305.636 197.891C304.773 197.647 303.591 197.17 303.591 196.016C303.591 195.033 304.386 194.283 305.636 194.119V197.891ZM316.499 192.994H315.089L312.18 194.925V196.357L315.021 194.471H315.089V204.63H316.499V192.994ZM323.482 204.789C325.697 204.789 327.322 203.153 327.322 200.925C327.322 198.67 325.754 197.016 323.618 197.016C322.834 197.016 322.072 197.295 321.595 197.675H321.527L321.936 194.244H326.8V192.994H320.754L320.05 198.721L321.368 198.88C321.851 198.533 322.675 198.283 323.391 198.289C324.874 198.3 325.959 199.425 325.959 200.948C325.959 202.442 324.913 203.539 323.482 203.539C322.288 203.539 321.339 202.772 321.232 201.721H319.868C319.953 203.494 321.482 204.789 323.482 204.789ZM333.443 204.789C335.795 204.817 337.33 203.045 337.33 200.88C337.33 198.63 335.665 197.016 333.67 197.016C332.472 197.016 331.443 197.601 330.807 198.562H330.716C330.722 195.726 331.824 194.084 333.625 194.084C334.852 194.084 335.591 194.857 335.852 195.903H337.239C336.955 194.096 335.58 192.834 333.625 192.834C331.006 192.834 329.398 195.153 329.398 199.266C329.398 203.567 331.534 204.766 333.443 204.789ZM333.443 203.539C331.983 203.539 330.915 202.295 330.92 200.903C330.926 199.511 332.045 198.266 333.489 198.266C334.915 198.266 335.966 199.437 335.966 200.88C335.966 202.357 334.869 203.539 333.443 203.539ZM340.017 204.721C340.58 204.721 341.04 204.261 341.04 203.698C341.04 203.136 340.58 202.675 340.017 202.675C339.455 202.675 338.994 203.136 338.994 203.698C338.994 204.261 339.455 204.721 340.017 204.721ZM346.791 204.789C349.115 204.789 350.734 203.431 350.746 201.539C350.734 200.067 349.751 198.817 348.496 198.584V198.516C349.587 198.232 350.303 197.164 350.314 195.925C350.303 194.153 348.814 192.834 346.791 192.834C344.746 192.834 343.257 194.153 343.268 195.925C343.257 197.164 343.973 198.232 345.087 198.516V198.584C343.808 198.817 342.825 200.067 342.837 201.539C342.825 203.431 344.445 204.789 346.791 204.789ZM346.791 203.539C345.195 203.539 344.212 202.721 344.223 201.471C344.212 200.158 345.297 199.221 346.791 199.221C348.263 199.221 349.348 200.158 349.359 201.471C349.348 202.721 348.365 203.539 346.791 203.539ZM346.791 198.016C345.518 198.016 344.621 197.221 344.632 196.016C344.621 194.834 345.484 194.062 346.791 194.062C348.075 194.062 348.939 194.834 348.95 196.016C348.939 197.221 348.041 198.016 346.791 198.016ZM356.855 204.789C359.111 204.789 360.787 203.374 360.787 201.471C360.787 199.994 359.912 198.92 358.446 198.675V198.584C359.622 198.226 360.355 197.261 360.355 195.948C360.355 194.3 359.054 192.834 356.901 192.834C354.889 192.834 353.219 194.073 353.151 195.903H354.514C354.565 194.744 355.668 194.062 356.878 194.062C358.162 194.062 358.991 194.84 358.991 196.016C358.991 197.244 358.031 198.039 356.651 198.039H355.719V199.289H356.651C358.418 199.289 359.401 200.187 359.401 201.471C359.401 202.704 358.327 203.539 356.832 203.539C355.486 203.539 354.418 202.846 354.332 201.721H352.901C352.986 203.55 354.599 204.789 356.855 204.789Z" fill="#F2F2F2"/>
<ellipse opacity="0.1" cx="430" cy="200.528" rx="8" ry="8.71857" fill="#FF7676"/>
<path d="M433.207 198.27H426.793C426.6 198.27 426.493 198.491 426.612 198.642L429.819 202.695C429.911 202.811 430.088 202.811 430.181 202.695L433.388 198.642C433.507 198.491 433.399 198.27 433.207 198.27Z" fill="#FF7676"/>
<path d="M452.227 198.187H447.136V199.437H452.227V198.187ZM458.359 204.789C460.928 204.789 462.405 202.613 462.405 198.812C462.405 195.039 460.905 192.834 458.359 192.834C455.814 192.834 454.314 195.039 454.314 198.812C454.314 202.613 455.791 204.789 458.359 204.789ZM458.359 203.539C456.666 203.539 455.678 201.84 455.678 198.812C455.678 195.789 456.678 194.062 458.359 194.062C460.041 194.062 461.041 195.789 461.041 198.812C461.041 201.84 460.053 203.539 458.359 203.539ZM465.158 204.721C465.72 204.721 466.18 204.261 466.18 203.698C466.18 203.136 465.72 202.675 465.158 202.675C464.595 202.675 464.135 203.136 464.135 203.698C464.135 204.261 464.595 204.721 465.158 204.721ZM472.159 192.834C469.795 192.806 468.273 194.584 468.273 196.721C468.273 198.971 469.932 200.584 471.932 200.584C473.136 200.584 474.159 199.994 474.795 199.039H474.886C474.886 201.903 473.773 203.539 471.977 203.539C470.75 203.539 470 202.766 469.75 201.698H468.364C468.636 203.539 470.023 204.789 471.977 204.789C474.591 204.789 476.205 202.471 476.205 198.334C476.205 194.062 474.068 192.857 472.159 192.834ZM472.159 194.084C473.614 194.084 474.682 195.334 474.682 196.698C474.682 198.084 473.545 199.334 472.114 199.334C470.682 199.334 469.636 198.175 469.636 196.721C469.636 195.266 470.727 194.084 472.159 194.084ZM484.371 202.448C484.371 203.721 485.166 204.789 486.643 204.789C488.098 204.789 488.893 203.721 488.893 202.448V201.834C488.893 200.562 488.121 199.494 486.643 199.494C485.189 199.494 484.371 200.562 484.371 201.834V202.448ZM478.575 195.789C478.575 197.062 479.371 198.13 480.848 198.13C482.303 198.13 483.098 197.062 483.098 195.789V195.175C483.098 193.903 482.325 192.834 480.848 192.834C479.393 192.834 478.575 193.903 478.575 195.175V195.789ZM479.007 204.63H480.303L488.303 192.994H487.007L479.007 204.63ZM485.53 201.834C485.53 201.13 485.848 200.471 486.643 200.471C487.462 200.471 487.734 201.13 487.734 201.834V202.448C487.734 203.153 487.439 203.812 486.643 203.812C485.825 203.812 485.53 203.153 485.53 202.448V201.834ZM479.734 195.175C479.734 194.471 480.053 193.812 480.848 193.812C481.666 193.812 481.939 194.471 481.939 195.175V195.789C481.939 196.494 481.643 197.153 480.848 197.153C480.03 197.153 479.734 196.494 479.734 195.789V195.175Z" fill="#FF7676"/>
<path d="M567.636 206.084H568.568V204.817C570.955 204.653 572.295 203.244 572.295 201.471C572.295 199.289 570.227 198.584 569.023 198.266L568.568 198.141V194.101C569.773 194.221 570.648 194.869 570.773 195.903H572.136C572.08 194.244 570.625 192.982 568.568 192.846V191.539H567.636V192.863C565.688 193.062 564.227 194.3 564.227 196.084C564.227 197.653 565.364 198.584 567.182 199.107L567.636 199.238V203.539C566.443 203.414 565.466 202.8 565.364 201.63H563.909C564.04 203.42 565.403 204.67 567.636 204.817V206.084ZM568.568 203.539V199.505L568.614 199.516C569.841 199.857 570.932 200.289 570.932 201.448C570.932 202.59 569.943 203.386 568.568 203.539ZM567.636 197.891C566.773 197.647 565.591 197.17 565.591 196.016C565.591 195.033 566.386 194.283 567.636 194.119V197.891ZM578.499 192.994H577.089L574.18 194.925V196.357L577.021 194.471H577.089V204.63H578.499V192.994ZM585.572 204.789C587.896 204.789 589.516 203.431 589.527 201.539C589.516 200.067 588.533 198.817 587.277 198.584V198.516C588.368 198.232 589.084 197.164 589.095 195.925C589.084 194.153 587.595 192.834 585.572 192.834C583.527 192.834 582.038 194.153 582.05 195.925C582.038 197.164 582.754 198.232 583.868 198.516V198.584C582.589 198.817 581.607 200.067 581.618 201.539C581.607 203.431 583.226 204.789 585.572 204.789ZM585.572 203.539C583.976 203.539 582.993 202.721 583.004 201.471C582.993 200.158 584.078 199.221 585.572 199.221C587.044 199.221 588.129 200.158 588.141 201.471C588.129 202.721 587.146 203.539 585.572 203.539ZM585.572 198.016C584.3 198.016 583.402 197.221 583.413 196.016C583.402 194.834 584.266 194.062 585.572 194.062C586.857 194.062 587.72 194.834 587.732 196.016C587.72 197.221 586.822 198.016 585.572 198.016ZM595.795 192.994H594.386L591.477 194.925V196.357L594.318 194.471H594.386V204.63H595.795V192.994ZM599.142 204.63H606.483V203.38H601.074V203.289L603.688 200.494C605.688 198.351 606.278 197.351 606.278 196.062C606.278 194.266 604.824 192.834 602.778 192.834C600.739 192.834 599.188 194.221 599.188 196.266H600.528C600.528 194.942 601.386 194.062 602.733 194.062C603.994 194.062 604.96 194.834 604.96 196.062C604.96 197.136 604.33 197.931 602.983 199.403L599.142 203.607V204.63ZM612.761 204.789C615.017 204.789 616.693 203.374 616.693 201.471C616.693 199.994 615.818 198.92 614.352 198.675V198.584C615.528 198.226 616.261 197.261 616.261 195.948C616.261 194.3 614.96 192.834 612.807 192.834C610.795 192.834 609.125 194.073 609.057 195.903H610.42C610.472 194.744 611.574 194.062 612.784 194.062C614.068 194.062 614.898 194.84 614.898 196.016C614.898 197.244 613.938 198.039 612.557 198.039H611.625V199.289H612.557C614.324 199.289 615.307 200.187 615.307 201.471C615.307 202.704 614.233 203.539 612.739 203.539C611.392 203.539 610.324 202.846 610.239 201.721H608.807C608.892 203.55 610.506 204.789 612.761 204.789ZM622.653 204.789C624.869 204.789 626.494 203.153 626.494 200.925C626.494 198.67 624.926 197.016 622.79 197.016C622.006 197.016 621.244 197.295 620.767 197.675H620.699L621.108 194.244H625.972V192.994H619.926L619.222 198.721L620.54 198.88C621.023 198.533 621.847 198.283 622.562 198.289C624.045 198.3 625.131 199.425 625.131 200.948C625.131 202.442 624.085 203.539 622.653 203.539C621.46 203.539 620.511 202.772 620.403 201.721H619.04C619.125 203.494 620.653 204.789 622.653 204.789ZM632.547 204.789C635.115 204.789 636.592 202.613 636.592 198.812C636.592 195.039 635.092 192.834 632.547 192.834C630.001 192.834 628.501 195.039 628.501 198.812C628.501 202.613 629.979 204.789 632.547 204.789ZM632.547 203.539C630.854 203.539 629.865 201.84 629.865 198.812C629.865 195.789 630.865 194.062 632.547 194.062C634.229 194.062 635.229 195.789 635.229 198.812C635.229 201.84 634.24 203.539 632.547 203.539Z" fill="#F2F2F2"/>
</g>
<path d="M377.636 300.9H378.568V299.633C380.955 299.468 382.295 298.059 382.295 296.286C382.295 294.104 380.227 293.4 379.023 293.082L378.568 292.957V288.917C379.773 289.036 380.648 289.684 380.773 290.718H382.136C382.08 289.059 380.625 287.798 378.568 287.661V286.354H377.636V287.678C375.688 287.877 374.227 289.116 374.227 290.9C374.227 292.468 375.364 293.4 377.182 293.923L377.636 294.053V298.354C376.443 298.229 375.466 297.616 375.364 296.445H373.909C374.04 298.235 375.403 299.485 377.636 299.633V300.9ZM378.568 298.354V294.32L378.614 294.332C379.841 294.673 380.932 295.104 380.932 296.263C380.932 297.406 379.943 298.201 378.568 298.354ZM377.636 292.707C376.773 292.462 375.591 291.985 375.591 290.832C375.591 289.849 376.386 289.099 377.636 288.934V292.707ZM388.135 299.604C390.459 299.604 392.078 298.246 392.089 296.354C392.078 294.883 391.095 293.633 389.839 293.4V293.332C390.93 293.048 391.646 291.979 391.658 290.741C391.646 288.968 390.158 287.65 388.135 287.65C386.089 287.65 384.601 288.968 384.612 290.741C384.601 291.979 385.317 293.048 386.43 293.332V293.4C385.152 293.633 384.169 294.883 384.18 296.354C384.169 298.246 385.788 299.604 388.135 299.604ZM388.135 298.354C386.538 298.354 385.555 297.536 385.567 296.286C385.555 294.974 386.641 294.036 388.135 294.036C389.607 294.036 390.692 294.974 390.703 296.286C390.692 297.536 389.709 298.354 388.135 298.354ZM388.135 292.832C386.862 292.832 385.964 292.036 385.976 290.832C385.964 289.65 386.828 288.877 388.135 288.877C389.419 288.877 390.283 289.65 390.294 290.832C390.283 292.036 389.385 292.832 388.135 292.832ZM397.903 299.604C400.119 299.604 401.744 297.968 401.744 295.741C401.744 293.485 400.176 291.832 398.04 291.832C397.256 291.832 396.494 292.11 396.017 292.491H395.949L396.358 289.059H401.222V287.809H395.176L394.472 293.536L395.79 293.695C396.273 293.349 397.097 293.099 397.812 293.104C399.295 293.116 400.381 294.241 400.381 295.763C400.381 297.258 399.335 298.354 397.903 298.354C396.71 298.354 395.761 297.587 395.653 296.536H394.29C394.375 298.309 395.903 299.604 397.903 299.604ZM407.933 299.604C410.189 299.604 411.865 298.19 411.865 296.286C411.865 294.809 410.99 293.735 409.524 293.491V293.4C410.7 293.042 411.433 292.076 411.433 290.763C411.433 289.116 410.132 287.65 407.979 287.65C405.967 287.65 404.297 288.888 404.229 290.718H405.592C405.643 289.559 406.746 288.877 407.956 288.877C409.24 288.877 410.07 289.656 410.07 290.832C410.07 292.059 409.109 292.854 407.729 292.854H406.797V294.104H407.729C409.496 294.104 410.479 295.002 410.479 296.286C410.479 297.519 409.405 298.354 407.911 298.354C406.564 298.354 405.496 297.661 405.411 296.536H403.979C404.064 298.366 405.678 299.604 407.933 299.604ZM417.825 299.604C420.041 299.604 421.666 297.968 421.666 295.741C421.666 293.485 420.098 291.832 417.962 291.832C417.178 291.832 416.416 292.11 415.939 292.491H415.871L416.28 289.059H421.143V287.809H415.098L414.393 293.536L415.712 293.695C416.195 293.349 417.018 293.099 417.734 293.104C419.217 293.116 420.303 294.241 420.303 295.763C420.303 297.258 419.257 298.354 417.825 298.354C416.632 298.354 415.683 297.587 415.575 296.536H414.212C414.297 298.309 415.825 299.604 417.825 299.604Z" fill="#F2F2F2"/>
<ellipse opacity="0.1" cx="502" cy="295.343" rx="8" ry="8.71857" fill="#8FFFBE"/>
<path d="M505.388 297.225L502.181 293.172C502.089 293.056 501.912 293.056 501.819 293.172L498.612 297.225C498.493 297.376 498.6 297.598 498.793 297.598H505.207C505.399 297.598 505.507 297.376 505.388 297.225Z" fill="#8FFFBE"/>
<path d="M522.636 297.4H523.909V294.286H527.023V293.013H523.909V289.9H522.636V293.013H519.523V294.286H522.636V297.4ZM533.479 299.604C535.803 299.604 537.422 298.246 537.433 296.354C537.422 294.883 536.439 293.633 535.183 293.4V293.332C536.274 293.048 536.99 291.979 537.001 290.741C536.99 288.968 535.501 287.65 533.479 287.65C531.433 287.65 529.945 288.968 529.956 290.741C529.945 291.979 530.661 293.048 531.774 293.332V293.4C530.496 293.633 529.513 294.883 529.524 296.354C529.513 298.246 531.132 299.604 533.479 299.604ZM533.479 298.354C531.882 298.354 530.899 297.536 530.911 296.286C530.899 294.974 531.984 294.036 533.479 294.036C534.95 294.036 536.036 294.974 536.047 296.286C536.036 297.536 535.053 298.354 533.479 298.354ZM533.479 292.832C532.206 292.832 531.308 292.036 531.32 290.832C531.308 289.65 532.172 288.877 533.479 288.877C534.763 288.877 535.626 289.65 535.638 290.832C535.626 292.036 534.729 292.832 533.479 292.832ZM540.251 299.536C540.814 299.536 541.274 299.076 541.274 298.513C541.274 297.951 540.814 297.491 540.251 297.491C539.689 297.491 539.229 297.951 539.229 298.513C539.229 299.076 539.689 299.536 540.251 299.536ZM543.658 299.445H550.999V298.195H545.589V298.104L548.203 295.309C550.203 293.167 550.794 292.167 550.794 290.877C550.794 289.082 549.339 287.65 547.294 287.65C545.254 287.65 543.703 289.036 543.703 291.082H545.044C545.044 289.758 545.902 288.877 547.249 288.877C548.51 288.877 549.476 289.65 549.476 290.877C549.476 291.951 548.845 292.746 547.499 294.218L543.658 298.423V299.445ZM559.277 297.263C559.277 298.536 560.072 299.604 561.55 299.604C563.004 299.604 563.8 298.536 563.8 297.263V296.65C563.8 295.377 563.027 294.309 561.55 294.309C560.095 294.309 559.277 295.377 559.277 296.65V297.263ZM553.482 290.604C553.482 291.877 554.277 292.945 555.754 292.945C557.209 292.945 558.004 291.877 558.004 290.604V289.991C558.004 288.718 557.232 287.65 555.754 287.65C554.3 287.65 553.482 288.718 553.482 289.991V290.604ZM553.913 299.445H555.209L563.209 287.809H561.913L553.913 299.445ZM560.436 296.65C560.436 295.945 560.754 295.286 561.55 295.286C562.368 295.286 562.641 295.945 562.641 296.65V297.263C562.641 297.968 562.345 298.627 561.55 298.627C560.732 298.627 560.436 297.968 560.436 297.263V296.65ZM554.641 289.991C554.641 289.286 554.959 288.627 555.754 288.627C556.572 288.627 556.845 289.286 556.845 289.991V290.604C556.845 291.309 556.55 291.968 555.754 291.968C554.936 291.968 554.641 291.309 554.641 290.604V289.991Z" fill="#8FFFBE"/>
<path d="M639.637 300.9H640.568V299.633C642.955 299.468 644.296 298.059 644.296 296.286C644.296 294.104 642.228 293.4 641.023 293.082L640.568 292.957V288.917C641.773 289.036 642.648 289.684 642.773 290.718H644.137C644.08 289.059 642.625 287.798 640.568 287.661V286.354H639.637V287.678C637.688 287.877 636.228 289.116 636.228 290.9C636.228 292.468 637.364 293.4 639.182 293.923L639.637 294.053V298.354C638.443 298.229 637.466 297.616 637.364 296.445H635.909C636.04 298.235 637.404 299.485 639.637 299.633V300.9ZM640.568 298.354V294.32L640.614 294.332C641.841 294.673 642.932 295.104 642.932 296.263C642.932 297.406 641.943 298.201 640.568 298.354ZM639.637 292.707C638.773 292.462 637.591 291.985 637.591 290.832C637.591 289.849 638.387 289.099 639.637 288.934V292.707ZM650.044 299.604C652.26 299.604 653.885 297.968 653.885 295.741C653.885 293.485 652.317 291.832 650.181 291.832C649.397 291.832 648.635 292.11 648.158 292.491H648.09L648.499 289.059H653.362V287.809H647.317L646.612 293.536L647.931 293.695C648.414 293.349 649.237 293.099 649.953 293.104C651.436 293.116 652.522 294.241 652.522 295.763C652.522 297.258 651.476 298.354 650.044 298.354C648.851 298.354 647.902 297.587 647.794 296.536H646.431C646.516 298.309 648.044 299.604 650.044 299.604ZM659.87 299.604C662.193 299.604 663.813 298.246 663.824 296.354C663.813 294.883 662.83 293.633 661.574 293.4V293.332C662.665 293.048 663.381 291.979 663.392 290.741C663.381 288.968 661.892 287.65 659.87 287.65C657.824 287.65 656.335 288.968 656.347 290.741C656.335 291.979 657.051 293.048 658.165 293.332V293.4C656.887 293.633 655.904 294.883 655.915 296.354C655.904 298.246 657.523 299.604 659.87 299.604ZM659.87 298.354C658.273 298.354 657.29 297.536 657.301 296.286C657.29 294.974 658.375 294.036 659.87 294.036C661.341 294.036 662.426 294.974 662.438 296.286C662.426 297.536 661.443 298.354 659.87 298.354ZM659.87 292.832C658.597 292.832 657.699 292.036 657.71 290.832C657.699 289.65 658.563 288.877 659.87 288.877C661.154 288.877 662.017 289.65 662.029 290.832C662.017 292.036 661.12 292.832 659.87 292.832ZM666.002 299.445H673.343V298.195H667.933V298.104L670.547 295.309C672.547 293.167 673.138 292.167 673.138 290.877C673.138 289.082 671.683 287.65 669.638 287.65C667.598 287.65 666.047 289.036 666.047 291.082H667.388C667.388 289.758 668.246 288.877 669.593 288.877C670.854 288.877 671.82 289.65 671.82 290.877C671.82 291.951 671.189 292.746 669.843 294.218L666.002 298.423V299.445ZM679.485 299.604C682.053 299.604 683.53 297.428 683.53 293.627C683.53 289.854 682.03 287.65 679.485 287.65C676.939 287.65 675.439 289.854 675.439 293.627C675.439 297.428 676.916 299.604 679.485 299.604ZM679.485 298.354C677.791 298.354 676.803 296.656 676.803 293.627C676.803 290.604 677.803 288.877 679.485 288.877C681.166 288.877 682.166 290.604 682.166 293.627C682.166 296.656 681.178 298.354 679.485 298.354ZM689.621 299.604C691.877 299.604 693.553 298.19 693.553 296.286C693.553 294.809 692.678 293.735 691.212 293.491V293.4C692.388 293.042 693.121 292.076 693.121 290.763C693.121 289.116 691.82 287.65 689.666 287.65C687.655 287.65 685.985 288.888 685.916 290.718H687.28C687.331 289.559 688.433 288.877 689.644 288.877C690.928 288.877 691.757 289.656 691.757 290.832C691.757 292.059 690.797 292.854 689.416 292.854H688.485V294.104H689.416C691.183 294.104 692.166 295.002 692.166 296.286C692.166 297.519 691.093 298.354 689.598 298.354C688.252 298.354 687.183 297.661 687.098 296.536H685.666C685.752 298.366 687.365 299.604 689.621 299.604ZM699.581 287.65C697.218 287.621 695.695 289.4 695.695 291.536C695.695 293.786 697.354 295.4 699.354 295.4C700.558 295.4 701.581 294.809 702.218 293.854H702.308C702.308 296.718 701.195 298.354 699.399 298.354C698.172 298.354 697.422 297.582 697.172 296.513H695.786C696.058 298.354 697.445 299.604 699.399 299.604C702.013 299.604 703.627 297.286 703.627 293.15C703.627 288.877 701.49 287.673 699.581 287.65ZM699.581 288.9C701.036 288.9 702.104 290.15 702.104 291.513C702.104 292.9 700.968 294.15 699.536 294.15C698.104 294.15 697.058 292.991 697.058 291.536C697.058 290.082 698.149 288.9 699.581 288.9ZM709.566 287.65C707.202 287.621 705.679 289.4 705.679 291.536C705.679 293.786 707.338 295.4 709.338 295.4C710.543 295.4 711.566 294.809 712.202 293.854H712.293C712.293 296.718 711.179 298.354 709.384 298.354C708.156 298.354 707.406 297.582 707.156 296.513H705.77C706.043 298.354 707.429 299.604 709.384 299.604C711.997 299.604 713.611 297.286 713.611 293.15C713.611 288.877 711.475 287.673 709.566 287.65ZM709.566 288.9C711.02 288.9 712.088 290.15 712.088 291.513C712.088 292.9 710.952 294.15 709.52 294.15C708.088 294.15 707.043 292.991 707.043 291.536C707.043 290.082 708.134 288.9 709.566 288.9Z" fill="#F2F2F2"/>
<path d="M249.409 314.701H256.227V313.451H250.818V303.065H249.409V314.701ZM258.387 314.701H259.728V305.974H258.387V314.701ZM259.069 304.52C259.592 304.52 260.024 304.111 260.024 303.611C260.024 303.111 259.592 302.701 259.069 302.701C258.546 302.701 258.115 303.111 258.115 303.611C258.115 304.111 258.546 304.52 259.069 304.52ZM266.14 305.974H264.276V303.883H262.935V305.974H261.617V307.111H262.935V312.565C262.935 314.088 264.162 314.815 265.299 314.815C265.799 314.815 266.117 314.724 266.299 314.656L266.026 313.451C265.912 313.474 265.731 313.52 265.435 313.52C264.844 313.52 264.276 313.338 264.276 312.201V307.111H266.14V305.974ZM271.882 314.883C273.655 314.883 274.95 313.997 275.359 312.679L274.064 312.315C273.723 313.224 272.933 313.679 271.882 313.679C270.308 313.679 269.223 312.662 269.16 310.792H275.496V310.224C275.496 306.974 273.564 305.861 271.746 305.861C269.382 305.861 267.814 307.724 267.814 310.406C267.814 313.088 269.359 314.883 271.882 314.883ZM269.16 309.633C269.251 308.275 270.212 307.065 271.746 307.065C273.2 307.065 274.132 308.156 274.132 309.633H269.16ZM281.241 314.883C283.173 314.883 284.445 313.701 284.673 312.156H283.332C283.082 313.111 282.286 313.679 281.241 313.679C279.65 313.679 278.627 312.361 278.627 310.338C278.627 308.361 279.673 307.065 281.241 307.065C282.423 307.065 283.127 307.792 283.332 308.588H284.673C284.445 306.951 283.059 305.861 281.218 305.861C278.854 305.861 277.286 307.724 277.286 310.383C277.286 312.997 278.786 314.883 281.241 314.883ZM290.338 314.883C292.702 314.883 294.293 313.088 294.293 310.383C294.293 307.656 292.702 305.861 290.338 305.861C287.975 305.861 286.384 307.656 286.384 310.383C286.384 313.088 287.975 314.883 290.338 314.883ZM290.338 313.679C288.543 313.679 287.725 312.133 287.725 310.383C287.725 308.633 288.543 307.065 290.338 307.065C292.134 307.065 292.952 308.633 292.952 310.383C292.952 312.133 292.134 313.679 290.338 313.679ZM296.5 314.701H297.841V305.974H296.5V314.701ZM297.182 304.52C297.704 304.52 298.136 304.111 298.136 303.611C298.136 303.111 297.704 302.701 297.182 302.701C296.659 302.701 296.227 303.111 296.227 303.611C296.227 304.111 296.659 304.52 297.182 304.52ZM301.798 309.451C301.798 307.929 302.741 307.065 304.025 307.065C305.269 307.065 306.025 307.878 306.025 309.247V314.701H307.366V309.156C307.366 306.929 306.178 305.861 304.411 305.861C303.093 305.861 302.275 306.451 301.866 307.338H301.752V305.974H300.457V314.701H301.798V309.451Z" fill="#F2F2F2"/>
<path d="M249.264 288.186H258.575V285.65H252.339V273.64H249.264V288.186ZM258.241 276.176H262.695V288.186H265.734V276.176H270.188V273.64H258.241V276.176ZM284.344 278.732C283.939 275.373 281.397 273.441 278.03 273.441C274.188 273.441 271.255 276.154 271.255 280.913C271.255 285.657 274.138 288.384 278.03 288.384C281.759 288.384 284.01 285.906 284.344 283.228L281.233 283.214C280.942 284.769 279.721 285.664 278.08 285.664C275.871 285.664 274.373 284.024 274.373 280.913C274.373 277.887 275.85 276.161 278.101 276.161C279.784 276.161 280.999 277.134 281.233 278.732H284.344Z" fill="white"/>
<path d="M231.891 295.332C231.891 307.306 222.984 317.013 211.997 317.013C201.009 317.013 192.102 307.306 192.102 295.332C192.102 283.357 201.009 273.65 211.997 273.65C222.984 273.65 231.891 283.357 231.891 295.332Z" fill="#59C19C"/>
<path d="M211.301 298.989L212.194 295.327L214.307 294.485L214.833 292.333L214.815 292.279L212.735 293.108L214.233 286.958H209.983L208.023 294.983L206.387 295.635L205.846 297.854L207.481 297.203L206.326 301.933H217.638L218.363 298.989H211.301Z" fill="white"/>
<defs>
<filter id="filter0_b" x="148" y="-4" width="618" height="372" filterUnits="userSpaceOnUse" color-interpolation-filters="sRGB">
<feFlood flood-opacity="0" result="BackgroundImageFix"/>
<feGaussianBlur in="BackgroundImage" stdDeviation="2"/>
<feComposite in2="SourceAlpha" operator="in" result="effect1_backgroundBlur"/>
<feBlend mode="normal" in="SourceGraphic" in2="effect1_backgroundBlur" result="shape"/>
</filter>
<filter id="filter1_d" x="0" y="96.9346" width="770" height="246.096" filterUnits="userSpaceOnUse" color-interpolation-filters="sRGB">
<feFlood flood-opacity="0" result="BackgroundImageFix"/>
<feColorMatrix in="SourceAlpha" type="matrix" values="0 0 0 0 0 0 0 0 0 0 0 0 0 0 0 0 0 0 127 0"/>
<feOffset dy="20"/>
<feGaussianBlur stdDeviation="40"/>
<feColorMatrix type="matrix" values="0 0 0 0 0.211765 0 0 0 0 0.443137 0 0 0 0 0.913725 0 0 0 0.1 0"/>
<feBlend mode="normal" in2="BackgroundImageFix" result="effect1_dropShadow"/>
<feBlend mode="normal" in="SourceGraphic" in2="effect1_dropShadow" result="shape"/>
</filter>
<linearGradient id="paint0_linear" x1="211.989" y1="82.8162" x2="211.989" y2="126.415" gradientUnits="userSpaceOnUse">
<stop stop-color="#F9AA4B"/>
<stop offset="1" stop-color="#F7931A"/>
</linearGradient>
<clipPath id="clip0">
<rect width="40" height="43.5928" fill="white" transform="translate(192 82.8264)"/>
</clipPath>
</defs>
</svg>
