<svg width="580" height="457" viewBox="0 0 580 457" fill="none" xmlns="http://www.w3.org/2000/svg">
<rect width="580" height="318.937" rx="16" fill="#35068C"/>
<path d="M498.629 67.9427H499.967V65.2481H502.661V63.9108H499.967V61.2211H498.629V63.9108H495.94V65.2481H498.629V67.9427ZM508.944 59.4711H507.447L504.907 61.1316V62.6032L507.343 61.0123H507.403V69.653H508.944V59.4711ZM511.838 69.653H518.54V68.3355H513.956V68.2609L515.979 66.143C517.844 64.2588 518.376 63.3589 518.376 62.2204C518.376 60.5848 517.043 59.3319 515.124 59.3319C513.22 59.3319 511.828 60.5649 511.828 62.4243H513.295C513.29 61.3305 513.996 60.6146 515.094 60.6146C516.129 60.6146 516.914 61.251 516.914 62.2652C516.914 63.165 516.377 63.8113 515.283 64.9697L511.838 68.5393V69.653ZM523.925 69.7922C525.973 69.7922 527.435 68.3454 527.43 66.3618C527.435 64.393 526.063 62.9612 524.208 62.9612C523.453 62.9612 522.752 63.2495 522.354 63.6373H522.294L522.617 60.7886H526.938V59.4711H521.34L520.768 64.6018L522.175 64.8106C522.558 64.4676 523.244 64.2339 523.86 64.2339C525.068 64.2439 525.943 65.1487 525.943 66.3916C525.943 67.6146 525.093 68.4995 523.925 68.4995C522.94 68.4995 522.16 67.8731 522.08 66.9981H520.589C520.649 68.6189 522.055 69.7922 523.925 69.7922ZM534.7 67.7439C534.705 68.8923 535.426 69.8618 536.773 69.8618C538.106 69.8618 538.837 68.8923 538.837 67.7439V67.2069C538.837 66.0535 538.126 65.089 536.773 65.089C535.446 65.089 534.705 66.0585 534.7 67.2069V67.7439ZM529.58 61.9172C529.58 63.0656 530.305 64.0351 531.653 64.0351C532.98 64.0351 533.716 63.0706 533.711 61.9172V61.3802C533.716 60.2268 533 59.2623 531.653 59.2623C530.33 59.2623 529.58 60.2268 529.58 61.3802V61.9172ZM529.997 69.653H531.185L538.185 59.4711H536.997L529.997 69.653ZM535.859 67.2069C535.864 66.6352 536.112 66.0834 536.773 66.0834C537.46 66.0834 537.673 66.6352 537.673 67.2069V67.7439C537.673 68.3156 537.44 68.8674 536.773 68.8674C536.097 68.8674 535.864 68.3106 535.859 67.7439V67.2069ZM530.743 61.3802C530.743 60.8135 530.991 60.2566 531.653 60.2566C532.339 60.2566 532.553 60.8085 532.553 61.3802V61.9172C532.553 62.4889 532.319 63.0407 531.653 63.0407C530.977 63.0407 530.743 62.4889 530.743 61.9172V61.3802Z" fill="#42FFFF"/>
<path d="M100.375 92.268C102.622 92.268 103.915 90.3639 103.915 87.0379C103.915 83.7367 102.602 81.8078 100.375 81.8078C98.1477 81.8078 96.8352 83.7367 96.8352 87.0379C96.8352 90.3639 98.1278 92.268 100.375 92.268ZM100.375 91.1742C98.8935 91.1742 98.0284 89.6877 98.0284 87.0379C98.0284 84.393 98.9034 82.8816 100.375 82.8816C101.847 82.8816 102.722 84.393 102.722 87.0379C102.722 89.6877 101.857 91.1742 100.375 91.1742ZM106.464 92.2083C106.956 92.2083 107.358 91.8056 107.358 91.3134C107.358 90.8213 106.956 90.4186 106.464 90.4186C105.971 90.4186 105.569 90.8213 105.569 91.3134C105.569 91.8056 105.971 92.2083 106.464 92.2083ZM112.55 92.268C114.797 92.268 116.089 90.3639 116.089 87.0379C116.089 83.7367 114.777 81.8078 112.55 81.8078C110.322 81.8078 109.01 83.7367 109.01 87.0379C109.01 90.3639 110.302 92.268 112.55 92.268ZM112.55 91.1742C111.068 91.1742 110.203 89.6877 110.203 87.0379C110.203 84.393 111.078 82.8816 112.55 82.8816C114.021 82.8816 114.896 84.393 114.896 87.0379C114.896 89.6877 114.031 91.1742 112.55 91.1742ZM121.44 92.268C123.687 92.268 124.979 90.3639 124.979 87.0379C124.979 83.7367 123.667 81.8078 121.44 81.8078C119.212 81.8078 117.9 83.7367 117.9 87.0379C117.9 90.3639 119.192 92.268 121.44 92.268ZM121.44 91.1742C119.958 91.1742 119.093 89.6877 119.093 87.0379C119.093 84.393 119.968 82.8816 121.44 82.8816C122.911 82.8816 123.786 84.393 123.786 87.0379C123.786 89.6877 122.921 91.1742 121.44 91.1742ZM130.33 92.268C132.577 92.268 133.869 90.3639 133.869 87.0379C133.869 83.7367 132.557 81.8078 130.33 81.8078C128.102 81.8078 126.79 83.7367 126.79 87.0379C126.79 90.3639 128.082 92.268 130.33 92.268ZM130.33 91.1742C128.848 91.1742 127.983 89.6877 127.983 87.0379C127.983 84.393 128.858 82.8816 130.33 82.8816C131.801 82.8816 132.676 84.393 132.676 87.0379C132.676 89.6877 131.811 91.1742 130.33 91.1742ZM139.16 92.268C141.193 92.268 142.61 91.0798 142.62 89.4242C142.61 88.1366 141.75 87.0428 140.651 86.839V86.7794C141.606 86.5308 142.232 85.5961 142.242 84.5123C142.232 82.9612 140.93 81.8078 139.16 81.8078C137.37 81.8078 136.068 82.9612 136.077 84.5123C136.068 85.5961 136.694 86.5308 137.668 86.7794V86.839C136.55 87.0428 135.69 88.1366 135.7 89.4242C135.69 91.0798 137.107 92.268 139.16 92.268ZM139.16 91.1742C137.763 91.1742 136.903 90.4583 136.913 89.3646C136.903 88.2161 137.852 87.3958 139.16 87.3958C140.448 87.3958 141.397 88.2161 141.407 89.3646C141.397 90.4583 140.537 91.1742 139.16 91.1742ZM139.16 86.3419C138.046 86.3419 137.261 85.6458 137.271 84.5919C137.261 83.5578 138.016 82.8816 139.16 82.8816C140.283 82.8816 141.039 83.5578 141.049 84.5919C141.039 85.6458 140.254 86.3419 139.16 86.3419ZM147.986 92.268C150.234 92.268 151.526 90.3639 151.526 87.0379C151.526 83.7367 150.214 81.8078 147.986 81.8078C145.759 81.8078 144.447 83.7367 144.447 87.0379C144.447 90.3639 145.739 92.268 147.986 92.268ZM147.986 91.1742C146.505 91.1742 145.64 89.6877 145.64 87.0379C145.64 84.393 146.515 82.8816 147.986 82.8816C149.458 82.8816 150.333 84.393 150.333 87.0379C150.333 89.6877 149.468 91.1742 147.986 91.1742ZM157.812 92.1288H161.491C163.897 92.1288 164.891 90.9555 164.891 89.4242C164.891 87.8134 163.778 86.9384 162.843 86.8788V86.7794C163.718 86.5407 164.494 85.964 164.494 84.6515C164.494 83.16 163.499 81.947 161.372 81.947H157.812V92.1288ZM159.045 91.035V87.4953H161.551C162.883 87.4953 163.718 88.3901 163.718 89.4242C163.718 90.3191 163.102 91.035 161.491 91.035H159.045ZM159.045 86.4214V83.0407H161.372C162.724 83.0407 163.32 83.7566 163.32 84.6515C163.32 85.7254 162.445 86.4214 161.332 86.4214H159.045ZM166.501 83.0407H169.702V92.1288H170.935V83.0407H174.137V81.947H166.501V83.0407ZM183.949 85.1288C183.571 83.0407 181.901 81.8078 179.853 81.8078C177.247 81.8078 175.358 83.8163 175.358 87.0379C175.358 90.2595 177.247 92.268 179.853 92.268C181.901 92.268 183.571 91.035 183.949 88.947H182.716C182.418 90.3589 181.205 91.1146 179.853 91.1146C178.003 91.1146 176.551 89.6828 176.551 87.0379C176.551 84.393 178.003 82.9612 179.853 82.9612C181.205 82.9612 182.418 83.7169 182.716 85.1288H183.949Z" fill="#F2F2F2"/>
<path d="M97.517 65.8107H104.974C108.895 65.8107 110.983 63.7652 110.983 60.9868C110.983 58.4044 109.134 56.8448 107.148 56.751V56.5806C108.963 56.1715 110.301 54.8845 110.301 52.8306C110.301 50.2141 108.358 48.3561 104.506 48.3561H97.517V65.8107ZM101.207 62.7936V58.1573H104.301C106.074 58.1573 107.173 59.18 107.173 60.6203C107.173 61.9328 106.278 62.7936 104.216 62.7936H101.207ZM101.207 55.6601V51.3391H104.011C105.648 51.3391 106.577 52.1828 106.577 53.4442C106.577 54.8249 105.452 55.6601 103.943 55.6601H101.207ZM113.316 65.8107H116.947V52.7198H113.316V65.8107ZM115.14 51.0323C116.222 51.0323 117.109 50.2056 117.109 49.1913C117.109 48.1857 116.222 47.359 115.14 47.359C114.066 47.359 113.18 48.1857 113.18 49.1913C113.18 50.2056 114.066 51.0323 115.14 51.0323ZM126.818 52.7198H124.355V49.5834H120.724V52.7198H118.935V55.447H120.724V62.2652C120.707 64.8306 122.455 66.1004 125.088 65.9896C126.026 65.9556 126.69 65.7681 127.057 65.6487L126.486 62.947C126.307 62.9811 125.923 63.0664 125.582 63.0664C124.858 63.0664 124.355 62.7936 124.355 61.7879V55.447H126.818V52.7198ZM134.957 66.0664C138.443 66.0664 140.634 64.0209 140.804 61.0124H137.378C137.165 62.4101 136.244 63.1942 135 63.1942C133.304 63.1942 132.205 61.7709 132.205 59.2652C132.205 56.7936 133.312 55.3789 135 55.3789C136.33 55.3789 137.182 56.2567 137.378 57.5607H140.804C140.651 54.5351 138.358 52.5493 134.94 52.5493C130.969 52.5493 128.514 55.3021 128.514 59.3164C128.514 63.2965 130.926 66.0664 134.957 66.0664ZM149.043 66.0664C153.015 66.0664 155.487 63.3476 155.487 59.3164C155.487 55.2595 153.015 52.5493 149.043 52.5493C145.072 52.5493 142.6 55.2595 142.6 59.3164C142.6 63.3476 145.072 66.0664 149.043 66.0664ZM149.06 63.2539C147.228 63.2539 146.29 61.5749 146.29 59.2908C146.29 57.0067 147.228 55.3192 149.06 55.3192C150.859 55.3192 151.796 57.0067 151.796 59.2908C151.796 61.5749 150.859 63.2539 149.06 63.2539ZM157.847 65.8107H161.478V52.7198H157.847V65.8107ZM159.671 51.0323C160.754 51.0323 161.64 50.2056 161.64 49.1913C161.64 48.1857 160.754 47.359 159.671 47.359C158.597 47.359 157.711 48.1857 157.711 49.1913C157.711 50.2056 158.597 51.0323 159.671 51.0323ZM168.017 58.2425C168.026 56.555 169.031 55.5664 170.497 55.5664C171.955 55.5664 172.832 56.5209 172.824 58.1232V65.8107H176.455V57.4754C176.455 54.4243 174.665 52.5493 171.938 52.5493C169.994 52.5493 168.588 53.5038 168 55.0294H167.847V52.7198H164.386V65.8107H168.017V58.2425Z" fill="white"/>
<path opacity="0.7" d="M187.148 63.1622H191.858C194.523 63.1622 195.83 61.8043 195.83 59.9918C195.83 58.2304 194.58 57.1963 193.341 57.1338V57.0202C194.477 56.7531 195.375 55.9577 195.375 54.5429C195.375 52.81 194.125 51.5259 191.602 51.5259H187.148V63.1622ZM189.256 61.4009V57.9918H191.58C192.881 57.9918 193.688 58.7872 193.688 59.827C193.688 60.7531 193.051 61.4009 191.523 61.4009H189.256ZM189.256 56.4747V53.2645H191.386C192.625 53.2645 193.267 53.9179 193.267 54.8156C193.267 55.8384 192.438 56.4747 191.341 56.4747H189.256ZM197.152 53.2929H200.749V63.1622H202.839V53.2929H206.436V51.5259H197.152V53.2929ZM217.686 55.452C217.328 52.8668 215.339 51.3668 212.76 51.3668C209.72 51.3668 207.43 53.5827 207.43 57.344C207.43 61.0997 209.692 63.3213 212.76 63.3213C215.527 63.3213 217.362 61.5315 217.686 59.31L215.561 59.2986C215.294 60.6622 214.18 61.4293 212.788 61.4293C210.902 61.4293 209.55 60.0145 209.55 57.344C209.55 54.719 210.891 53.2588 212.794 53.2588C214.209 53.2588 215.317 54.06 215.561 55.452H217.686Z" fill="#CFCFCF"/>
<ellipse cx="60" cy="64.2158" rx="20" ry="21.4052" fill="#C4C4C4"/>
<g clip-path="url(#clip0)">
<path d="M79.4018 69.3923C76.7296 80.8655 65.8685 87.8399 55.1638 84.9798C44.4435 82.1199 37.927 70.4962 40.5993 59.0396C43.2715 47.5664 54.1168 40.592 64.8371 43.4521C75.5418 46.2953 82.0742 57.919 79.4018 69.3923Z" fill="url(#paint0_linear)"/>
<path d="M69.5223 61.5488C69.913 58.7059 67.8973 57.1674 65.1161 56.1473L66.0223 52.2843L63.8348 51.699L62.9598 55.4617C62.3817 55.3112 61.788 55.1607 61.1942 55.0269L62.0692 51.2475L59.8817 50.6622L58.9911 54.5085C58.5067 54.3914 58.038 54.2744 57.5848 54.1573V54.1406L54.5536 53.3379L53.9755 55.8463C53.9755 55.8463 55.6005 56.2476 55.5692 56.2644C56.4598 56.4985 56.6161 57.1339 56.5848 57.6356L55.5536 62.0337C55.6161 62.0504 55.6942 62.0672 55.788 62.1173C55.7098 62.1006 55.6317 62.0839 55.5536 62.0504L54.1161 68.2044C54.0067 68.4887 53.7255 68.9235 53.1161 68.7563C53.1317 68.7897 51.5223 68.3382 51.5223 68.3382L50.4286 71.0306L53.288 71.7998C53.8192 71.9503 54.3348 72.0841 54.8505 72.2346L53.9442 76.131L56.1317 76.7163L57.038 72.8534C57.6317 73.0206 58.2255 73.1878 58.788 73.3383L57.8973 77.1846L60.0848 77.7699L60.9911 73.8734C64.7411 74.626 67.5536 74.325 68.7255 70.6961C69.6786 67.7864 68.6786 66.0974 66.7098 64.9937C68.163 64.6425 69.2411 63.6224 69.5223 61.5488ZM64.5067 69.074C63.8348 71.9838 59.2411 70.4118 57.7567 70.0105L58.9598 64.8431C60.4442 65.2445 65.2255 66.0305 64.5067 69.074ZM65.1942 61.4986C64.5692 64.1575 60.7567 62.803 59.5223 62.4685L60.6161 57.7861C61.8505 58.1206 65.8348 58.7393 65.1942 61.4986Z" fill="white"/>
</g>
<g filter="url(#filter0_b)">
<rect x="64" y="260.073" width="178" height="196.927" rx="16" fill="#491F98"/>
</g>
<path d="M84.0696 292.214H81.4347V306.759H84.0696V292.214ZM89.5803 300.367C89.5803 298.79 90.532 297.881 91.8886 297.881C93.2167 297.881 94.0121 298.755 94.0121 300.211V306.759H96.5832V299.813C96.5903 297.199 95.0988 295.708 92.8474 295.708C91.2138 295.708 90.0917 296.489 89.5945 297.704H89.4667V295.85H87.0093V306.759H89.5803V300.367ZM104.155 306.972C106.897 306.972 108.644 305.346 108.829 303.03H106.371C106.151 304.202 105.306 304.877 104.177 304.877C102.572 304.877 101.535 303.535 101.535 301.305C101.535 299.103 102.593 297.782 104.177 297.782C105.412 297.782 106.172 298.577 106.371 299.628H108.829C108.651 297.263 106.804 295.708 104.141 295.708C100.945 295.708 98.9281 298.016 98.9281 301.347C98.9281 304.65 100.895 306.972 104.155 306.972ZM111.14 306.759H113.711V300.346C113.711 298.961 114.755 297.981 116.168 297.981C116.601 297.981 117.141 298.059 117.361 298.13V295.765C117.127 295.722 116.722 295.694 116.438 295.694C115.188 295.694 114.144 296.404 113.746 297.668H113.633V295.85H111.14V306.759ZM123.65 306.972C126.192 306.972 127.94 305.729 128.394 303.833L125.994 303.563C125.646 304.486 124.793 304.969 123.685 304.969C122.023 304.969 120.923 303.876 120.901 302.008H128.501V301.219C128.501 297.391 126.2 295.708 123.515 295.708C120.39 295.708 118.351 298.002 118.351 301.369C118.351 304.792 120.361 306.972 123.65 306.972ZM120.908 300.275C120.986 298.883 122.016 297.711 123.55 297.711C125.028 297.711 126.022 298.79 126.036 300.275H120.908ZM134.015 306.979C135.727 306.979 136.749 306.177 137.218 305.261H137.303V306.759H139.775V299.458C139.775 296.574 137.424 295.708 135.343 295.708C133.049 295.708 131.288 296.731 130.719 298.719L133.12 299.06C133.376 298.315 134.1 297.675 135.357 297.675C136.55 297.675 137.204 298.286 137.204 299.359V299.401C137.204 300.14 136.43 300.175 134.505 300.381C132.388 300.609 130.364 301.241 130.364 303.698C130.364 305.843 131.934 306.979 134.015 306.979ZM134.683 305.09C133.61 305.09 132.843 304.6 132.843 303.655C132.843 302.668 133.702 302.256 134.853 302.093C135.528 302.001 136.877 301.83 137.211 301.56V302.846C137.211 304.06 136.231 305.09 134.683 305.09ZM151.182 298.734C150.827 296.887 149.35 295.708 146.793 295.708C144.165 295.708 142.375 297.001 142.383 299.018C142.375 300.609 143.356 301.66 145.451 302.093L147.312 302.484C148.313 302.704 148.782 303.109 148.782 303.726C148.782 304.472 147.972 305.033 146.75 305.033C145.571 305.033 144.804 304.522 144.584 303.542L142.077 303.783C142.397 305.786 144.08 306.972 146.758 306.972C149.485 306.972 151.41 305.559 151.417 303.492C151.41 301.937 150.408 300.985 148.348 300.538L146.488 300.14C145.38 299.891 144.939 299.508 144.946 298.876C144.939 298.137 145.756 297.626 146.829 297.626C148.015 297.626 148.64 298.272 148.838 298.989L151.182 298.734ZM158.566 306.972C161.109 306.972 162.856 305.729 163.311 303.833L160.91 303.563C160.562 304.486 159.71 304.969 158.602 304.969C156.94 304.969 155.839 303.876 155.818 302.008H163.417V301.219C163.417 297.391 161.116 295.708 158.431 295.708C155.306 295.708 153.268 298.002 153.268 301.369C153.268 304.792 155.278 306.972 158.566 306.972ZM155.825 300.275C155.903 298.883 156.933 297.711 158.467 297.711C159.944 297.711 160.938 298.79 160.953 300.275H155.825ZM170.953 306.759H173.524V295.85H170.953V306.759ZM172.246 294.302C173.062 294.302 173.73 293.677 173.73 292.91C173.73 292.136 173.062 291.511 172.246 291.511C171.422 291.511 170.754 292.136 170.754 292.91C170.754 293.677 171.422 294.302 172.246 294.302ZM178.939 300.367C178.939 298.79 179.891 297.881 181.247 297.881C182.575 297.881 183.371 298.755 183.371 300.211V306.759H185.942V299.813C185.949 297.199 184.457 295.708 182.206 295.708C180.572 295.708 179.45 296.489 178.953 297.704H178.825V295.85H176.368V306.759H178.939V300.367ZM80.7955 322.423H85.2912V334.759H87.9048V322.423H92.4006V320.214H80.7955V322.423ZM93.5913 334.759H96.1624V328.346C96.1624 326.961 97.2064 325.981 98.6197 325.981C99.053 325.981 99.5928 326.059 99.8129 326.13V323.765C99.5786 323.722 99.1737 323.694 98.8896 323.694C97.6396 323.694 96.5956 324.404 96.1979 325.668H96.0842V323.85H93.5913V334.759ZM104.645 334.979C106.357 334.979 107.38 334.177 107.849 333.261H107.934V334.759H110.405V327.458C110.405 324.574 108.054 323.708 105.974 323.708C103.679 323.708 101.918 324.731 101.35 326.719L103.75 327.06C104.006 326.315 104.731 325.675 105.988 325.675C107.181 325.675 107.834 326.286 107.834 327.359V327.401C107.834 328.14 107.06 328.175 105.135 328.381C103.019 328.609 100.995 329.241 100.995 331.698C100.995 333.843 102.564 334.979 104.645 334.979ZM105.313 333.09C104.241 333.09 103.474 332.6 103.474 331.655C103.474 330.668 104.333 330.256 105.483 330.093C106.158 330.001 107.508 329.83 107.841 329.56V330.846C107.841 332.06 106.861 333.09 105.313 333.09ZM117.239 334.951C119.114 334.951 119.959 333.836 120.364 333.04H120.52V334.759H123.049V320.214H120.47V325.654H120.364C119.973 324.866 119.171 323.708 117.246 323.708C114.725 323.708 112.743 325.682 112.743 329.319C112.743 332.913 114.668 334.951 117.239 334.951ZM117.956 332.842C116.259 332.842 115.364 331.35 115.364 329.305C115.364 327.273 116.245 325.817 117.956 325.817C119.611 325.817 120.52 327.188 120.52 329.305C120.52 331.421 119.597 332.842 117.956 332.842ZM130.818 334.972C133.36 334.972 135.108 333.729 135.562 331.833L133.162 331.563C132.813 332.486 131.961 332.969 130.853 332.969C129.191 332.969 128.09 331.876 128.069 330.008H135.669V329.219C135.669 325.391 133.367 323.708 130.683 323.708C127.558 323.708 125.519 326.002 125.519 329.369C125.519 332.792 127.529 334.972 130.818 334.972ZM128.076 328.275C128.154 326.883 129.184 325.711 130.718 325.711C132.196 325.711 133.19 326.79 133.204 328.275H128.076Z" fill="white"/>
<path d="M87.7727 417.251H89.1364C89.0739 415.496 87.4545 414.183 85.2045 414.183C82.9773 414.183 81.2273 415.479 81.2273 417.433C81.2273 419.001 82.3636 419.933 84.1818 420.456L85.6136 420.865C86.8409 421.206 87.9318 421.638 87.9318 422.797C87.9318 424.07 86.7045 424.911 85.0909 424.911C83.7045 424.911 82.4773 424.297 82.3636 422.979H80.9091C81.0455 424.888 82.5909 426.183 85.0909 426.183C87.7727 426.183 89.2955 424.706 89.2955 422.82C89.2955 420.638 87.2273 419.933 86.0227 419.615L84.8409 419.297C83.9773 419.07 82.5909 418.615 82.5909 417.365C82.5909 416.251 83.6136 415.433 85.1591 415.433C86.5682 415.433 87.6364 416.104 87.7727 417.251ZM95.2495 426.161C97.0222 426.161 98.3177 425.274 98.7268 423.956L97.4313 423.592C97.0904 424.501 96.3006 424.956 95.2495 424.956C93.6756 424.956 92.5904 423.939 92.5279 422.07H98.8631V421.501C98.8631 418.251 96.9313 417.138 95.1131 417.138C92.7495 417.138 91.1813 419.001 91.1813 421.683C91.1813 424.365 92.7268 426.161 95.2495 426.161ZM92.5279 420.911C92.6188 419.553 93.579 418.342 95.1131 418.342C96.5677 418.342 97.4995 419.433 97.4995 420.911H92.5279ZM102.404 414.342H101.063V425.979H102.404V414.342ZM106.361 414.342H105.02V425.979H106.361V414.342ZM117.182 426.161C119.546 426.161 121.137 424.365 121.137 421.661C121.137 418.933 119.546 417.138 117.182 417.138C114.818 417.138 113.228 418.933 113.228 421.661C113.228 424.365 114.818 426.161 117.182 426.161ZM117.182 424.956C115.387 424.956 114.568 423.411 114.568 421.661C114.568 419.911 115.387 418.342 117.182 418.342C118.978 418.342 119.796 419.911 119.796 421.661C119.796 423.411 118.978 424.956 117.182 424.956ZM123.344 429.251H124.684V424.638H124.798C125.094 425.115 125.662 426.161 127.344 426.161C129.525 426.161 131.048 424.411 131.048 421.638C131.048 418.888 129.525 417.138 127.321 417.138C125.616 417.138 125.094 418.183 124.798 418.638H124.639V417.251H123.344V429.251ZM124.662 421.615C124.662 419.661 125.525 418.342 127.162 418.342C128.866 418.342 129.707 419.774 129.707 421.615C129.707 423.479 128.844 424.956 127.162 424.956C125.548 424.956 124.662 423.592 124.662 421.615ZM137.049 417.251H135.185V415.161H133.844V417.251H132.526V418.388H133.844V423.842C133.844 425.365 135.072 426.092 136.208 426.092C136.708 426.092 137.026 426.001 137.208 425.933L136.935 424.729C136.822 424.751 136.64 424.797 136.344 424.797C135.754 424.797 135.185 424.615 135.185 423.479V418.388H137.049V417.251ZM139.226 425.979H140.567V417.251H139.226V425.979ZM139.908 415.797C140.431 415.797 140.862 415.388 140.862 414.888C140.862 414.388 140.431 413.979 139.908 413.979C139.385 413.979 138.953 414.388 138.953 414.888C138.953 415.388 139.385 415.797 139.908 415.797ZM146.728 426.161C149.092 426.161 150.683 424.365 150.683 421.661C150.683 418.933 149.092 417.138 146.728 417.138C144.365 417.138 142.774 418.933 142.774 421.661C142.774 424.365 144.365 426.161 146.728 426.161ZM146.728 424.956C144.933 424.956 144.115 423.411 144.115 421.661C144.115 419.911 144.933 418.342 146.728 418.342C148.524 418.342 149.342 419.911 149.342 421.661C149.342 423.411 148.524 424.956 146.728 424.956ZM154.231 420.729C154.231 419.206 155.174 418.342 156.458 418.342C157.702 418.342 158.458 419.155 158.458 420.524V425.979H159.799V420.433C159.799 418.206 158.611 417.138 156.844 417.138C155.526 417.138 154.708 417.729 154.299 418.615H154.185V417.251H152.89V425.979H154.231V420.729Z" fill="#F2F2F2"/>
<path d="M86.6307 383.159H89.6818V378.651H94.1903V375.6H89.6818V371.091H86.6307V375.6H82.1222V378.651H86.6307V383.159ZM97.9545 385.818H101.764L109.008 371.423V368.364H96.7613V371.381H105.19V371.5L97.9545 385.818ZM117.918 386.057C121.805 386.057 124.447 383.526 124.438 379.997C124.447 376.656 122.111 374.253 118.967 374.253C117.432 374.253 116.111 374.892 115.498 375.753H115.395L115.847 371.381H123.475V368.364H112.805L111.978 377.568L115.259 378.156C115.796 377.432 116.836 376.98 117.867 376.98C119.623 376.989 120.884 378.259 120.884 380.091C120.884 381.906 119.648 383.159 117.918 383.159C116.452 383.159 115.268 382.239 115.182 380.884H111.603C111.671 383.901 114.305 386.057 117.918 386.057ZM136.806 382.546C136.814 384.642 138.153 386.423 140.65 386.423C143.121 386.423 144.502 384.642 144.493 382.546V381.625C144.502 379.512 143.155 377.747 140.65 377.747C138.187 377.747 136.814 379.529 136.806 381.625V382.546ZM127.849 372.557C127.857 374.654 129.195 376.418 131.684 376.418C134.164 376.418 135.545 374.671 135.536 372.557V371.637C135.545 369.523 134.198 367.759 131.684 367.759C129.246 367.759 127.857 369.523 127.849 371.637V372.557ZM128.684 385.818H130.908L142.908 368.364H140.684L128.684 385.818ZM139.286 381.625C139.295 380.79 139.627 379.929 140.65 379.929C141.724 379.929 142.005 380.79 141.996 381.625V382.546C142.005 383.381 141.689 384.225 140.65 384.225C139.61 384.225 139.295 383.355 139.286 382.546V381.625ZM130.346 371.637C130.354 370.827 130.67 369.941 131.684 369.941C132.758 369.941 133.047 370.801 133.039 371.637V372.557C133.047 373.392 132.724 374.236 131.684 374.236C130.678 374.236 130.354 373.392 130.346 372.557V371.637Z" fill="white"/>
<path d="M171.71 378.112L166.71 372.761C166.615 372.663 166.503 372.587 166.38 372.536C166.137 372.429 165.864 372.429 165.62 372.536C165.498 372.587 165.385 372.663 165.29 372.761L160.29 378.112C160.197 378.212 160.123 378.33 160.073 378.461C160.022 378.591 159.996 378.731 159.996 378.872C159.996 379.157 160.102 379.43 160.29 379.632C160.479 379.833 160.734 379.947 161 379.947C161.267 379.947 161.522 379.833 161.71 379.632L165 376.1V384.223C165 384.507 165.106 384.779 165.293 384.98C165.481 385.181 165.735 385.293 166 385.293C166.266 385.293 166.52 385.181 166.707 384.98C166.895 384.779 167 384.507 167 384.223V376.1L170.29 379.632C170.383 379.732 170.494 379.812 170.616 379.866C170.738 379.92 170.868 379.948 171 379.948C171.132 379.948 171.263 379.92 171.385 379.866C171.507 379.812 171.617 379.732 171.71 379.632C171.804 379.532 171.878 379.414 171.929 379.283C171.98 379.153 172.006 379.013 172.006 378.872C172.006 378.731 171.98 378.591 171.929 378.46C171.878 378.33 171.804 378.212 171.71 378.112Z" fill="#FD8589"/>
<g filter="url(#filter1_d)">
<rect x="355" y="272.915" width="169" height="89.9017" rx="16" fill="#491F98"/>
<path d="M405.322 315.221H407.334L407.351 313.252C411.041 312.971 413.18 311.011 413.189 308.054C413.18 305.147 410.99 303.605 407.956 302.923L407.453 302.804L407.487 298.542C408.621 298.806 409.311 299.531 409.413 300.605H412.95C412.907 297.784 410.802 295.764 407.521 295.406L407.538 293.403H405.527L405.51 295.389C402.177 295.713 399.825 297.724 399.842 300.63C399.834 303.204 401.649 304.679 404.598 305.386L405.416 305.59L405.373 310.099C403.984 309.835 403.047 308.982 402.953 307.559H399.382C399.467 311.002 401.726 312.929 405.339 313.244L405.322 315.221ZM407.385 310.099L407.419 306.119C408.74 306.536 409.456 307.073 409.464 308.045C409.456 309.076 408.672 309.843 407.385 310.099ZM405.442 302.284C404.376 301.917 403.609 301.363 403.626 300.383C403.626 299.471 404.274 298.764 405.476 298.517L405.442 302.284ZM423.402 295.585H419.934L415.613 298.321V301.593L419.61 299.088H419.712V313.039H423.402V295.585ZM434.166 313.278C438.052 313.278 440.694 310.747 440.686 307.218C440.694 303.877 438.359 301.474 435.214 301.474C433.68 301.474 432.359 302.113 431.745 302.974H431.643L432.095 298.602H439.723V295.585H429.052L428.226 304.789L431.507 305.377C432.044 304.653 433.083 304.201 434.115 304.201C435.87 304.21 437.132 305.48 437.132 307.312C437.132 309.127 435.896 310.38 434.166 310.38C432.7 310.38 431.515 309.46 431.43 308.105H427.851C427.919 311.122 430.552 313.278 434.166 313.278ZM445.117 313.261C446.208 313.261 447.154 312.349 447.162 311.215C447.154 310.099 446.208 309.187 445.117 309.187C443.992 309.187 443.063 310.099 443.071 311.215C443.063 312.349 443.992 313.261 445.117 313.261ZM456.262 313.278C460.182 313.278 462.986 311.122 462.978 308.139C462.986 305.965 461.605 304.414 459.04 304.09V303.954C460.992 303.605 462.338 302.224 462.33 300.264C462.338 297.511 459.926 295.346 456.313 295.346C452.733 295.346 450.04 297.443 449.989 300.46H453.526C453.568 299.13 454.787 298.269 456.296 298.269C457.787 298.269 458.784 299.173 458.776 300.485C458.784 301.857 457.617 302.786 455.938 302.786H454.31V305.497H455.938C457.915 305.497 459.151 306.485 459.142 307.892C459.151 309.281 457.958 310.235 456.27 310.235C454.642 310.235 453.424 309.383 453.355 308.105H449.639C449.699 311.156 452.426 313.278 456.262 313.278ZM465.87 313.039H478.313V310.022H470.984V309.903L473.532 307.406C477.12 304.133 478.083 302.497 478.083 300.511C478.083 297.485 475.612 295.346 471.87 295.346C468.205 295.346 465.691 297.536 465.7 300.963H469.203C469.194 299.292 470.251 298.269 471.845 298.269C473.379 298.269 474.521 299.224 474.521 300.758C474.521 302.147 473.669 303.102 472.083 304.627L465.87 310.38V313.039Z" fill="white"/>
<path d="M388.609 340.357H390.018V336.107H392.564C395.274 336.107 396.496 334.46 396.496 332.403C396.496 330.346 395.274 328.721 392.541 328.721H388.609V340.357ZM390.018 334.857V329.971H392.496C394.388 329.971 395.109 331.005 395.109 332.403C395.109 333.801 394.388 334.857 392.518 334.857H390.018ZM398.744 340.357H400.085V334.835C400.085 333.653 401.017 332.789 402.289 332.789C402.647 332.789 403.017 332.857 403.107 332.88V331.517C402.954 331.505 402.602 331.494 402.403 331.494C401.357 331.494 400.448 332.085 400.13 332.948H400.039V331.63H398.744V340.357ZM404.857 340.357H406.198V331.63H404.857V340.357ZM405.539 330.176C406.062 330.176 406.493 329.767 406.493 329.267C406.493 328.767 406.062 328.357 405.539 328.357C405.016 328.357 404.584 328.767 404.584 329.267C404.584 329.767 405.016 330.176 405.539 330.176ZM412.359 340.539C414.291 340.539 415.564 339.357 415.791 337.812H414.45C414.2 338.767 413.405 339.335 412.359 339.335C410.768 339.335 409.746 338.017 409.746 335.994C409.746 334.017 410.791 332.721 412.359 332.721C413.541 332.721 414.246 333.448 414.45 334.244H415.791C415.564 332.607 414.177 331.517 412.337 331.517C409.973 331.517 408.405 333.38 408.405 336.039C408.405 338.653 409.905 340.539 412.359 340.539ZM421.57 340.539C423.343 340.539 424.639 339.653 425.048 338.335L423.752 337.971C423.411 338.88 422.622 339.335 421.57 339.335C419.997 339.335 418.911 338.318 418.849 336.448H425.184V335.88C425.184 332.63 423.252 331.517 421.434 331.517C419.07 331.517 417.502 333.38 417.502 336.062C417.502 338.744 419.048 340.539 421.57 340.539ZM418.849 335.289C418.94 333.931 419.9 332.721 421.434 332.721C422.889 332.721 423.82 333.812 423.82 335.289H418.849ZM432.044 340.357H433.385V331.63H432.044V340.357ZM432.726 330.176C433.248 330.176 433.68 329.767 433.68 329.267C433.68 328.767 433.248 328.357 432.726 328.357C432.203 328.357 431.771 328.767 431.771 329.267C431.771 329.767 432.203 330.176 432.726 330.176ZM437.342 335.107C437.342 333.585 438.285 332.721 439.569 332.721C440.813 332.721 441.569 333.534 441.569 334.903V340.357H442.91V334.812C442.91 332.585 441.722 331.517 439.955 331.517C438.637 331.517 437.819 332.107 437.41 332.994H437.296V331.63H436.001V340.357H437.342V335.107ZM453.476 340.539C455.157 340.539 455.726 339.494 456.021 339.017H456.18V340.357H457.476V328.721H456.135V333.017H456.021C455.726 332.562 455.203 331.517 453.498 331.517C451.294 331.517 449.771 333.267 449.771 336.017C449.771 338.789 451.294 340.539 453.476 340.539ZM453.657 339.335C451.976 339.335 451.112 337.857 451.112 335.994C451.112 334.153 451.953 332.721 453.657 332.721C455.294 332.721 456.157 334.039 456.157 335.994C456.157 337.971 455.271 339.335 453.657 339.335ZM463.823 340.539C466.187 340.539 467.778 338.744 467.778 336.039C467.778 333.312 466.187 331.517 463.823 331.517C461.459 331.517 459.868 333.312 459.868 336.039C459.868 338.744 461.459 340.539 463.823 340.539ZM463.823 339.335C462.028 339.335 461.209 337.789 461.209 336.039C461.209 334.289 462.028 332.721 463.823 332.721C465.618 332.721 466.437 334.289 466.437 336.039C466.437 337.789 465.618 339.335 463.823 339.335ZM471.325 328.721H469.984V340.357H471.325V328.721ZM475.282 328.721H473.941V340.357H475.282V328.721ZM480.466 340.562C481.989 340.562 482.785 339.744 483.057 339.176H483.125V340.357H484.466V334.607C484.466 331.835 482.353 331.517 481.239 331.517C479.921 331.517 478.421 331.971 477.739 333.562L479.012 334.017C479.307 333.38 480.006 332.698 481.285 332.698C482.518 332.698 483.125 333.352 483.125 334.471V334.517C483.125 335.164 482.466 335.107 480.875 335.312C479.256 335.522 477.489 335.88 477.489 337.88C477.489 339.585 478.807 340.562 480.466 340.562ZM480.671 339.357C479.603 339.357 478.83 338.88 478.83 337.948C478.83 336.926 479.762 336.607 480.807 336.471C481.375 336.403 482.898 336.244 483.125 335.971V337.198C483.125 338.289 482.262 339.357 480.671 339.357ZM487.074 340.357H488.415V334.835C488.415 333.653 489.347 332.789 490.619 332.789C490.977 332.789 491.347 332.857 491.437 332.88V331.517C491.284 331.505 490.932 331.494 490.733 331.494C489.687 331.494 488.778 332.085 488.46 332.948H488.369V331.63H487.074V340.357Z" fill="#F2F2F2"/>
</g>
<path d="M73.801 181.475C61.8839 181.475 40 197.516 40 197.516V267.564H540V144.044C540 144.044 518.954 153.843 509.388 150.461C495.902 145.694 483.24 122.816 474.949 122.121C462.194 121.051 466.02 128.003 439.872 128.003C415 128.003 426.185 141.906 401.607 141.906C388.15 141.906 368.444 153.672 368.444 153.672H329.541C311.046 153.672 307.276 188.261 286.811 185.755C266.976 183.326 267.679 177.731 251.735 177.731C236.14 177.731 233.738 185.915 217.934 184.148C198.801 182.009 199.439 159.016 173.291 159.016C141.403 159.016 135.663 187.356 110.153 189.495C91.4237 191.066 94.3698 181.475 73.801 181.475Z" fill="url(#paint1_linear)"/>
<path d="M40 197.97C40 197.97 61.8839 181.916 73.801 181.916C94.3698 181.916 91.4237 191.514 110.153 189.943C135.663 187.802 141.403 159.44 173.291 159.44C199.439 159.44 198.801 182.451 217.934 184.592C233.738 186.36 236.14 178.17 251.735 178.17C267.679 178.17 266.976 183.769 286.811 186.2C307.276 188.708 311.046 154.092 329.541 154.092C345.139 154.092 368.444 154.092 368.444 154.092C368.444 154.092 388.15 142.316 401.607 142.316C426.185 142.316 415 128.403 439.872 128.403C466.02 128.403 462.194 121.446 474.949 122.516C483.24 123.212 495.902 146.108 509.388 150.878C518.954 154.263 540 144.457 540 144.457" stroke="#6EDCB5" stroke-width="4"/>
<defs>
<filter id="filter0_b" x="-186" y="10.0728" width="678" height="696.927" filterUnits="userSpaceOnUse" color-interpolation-filters="sRGB">
<feFlood flood-opacity="0" result="BackgroundImageFix"/>
<feGaussianBlur in="BackgroundImage" stdDeviation="125"/>
<feComposite in2="SourceAlpha" operator="in" result="effect1_backgroundBlur"/>
<feBlend mode="normal" in="SourceGraphic" in2="effect1_backgroundBlur" result="shape"/>
</filter>
<filter id="filter1_d" x="330" y="252.915" width="249" height="169.902" filterUnits="userSpaceOnUse" color-interpolation-filters="sRGB">
<feFlood flood-opacity="0" result="BackgroundImageFix"/>
<feColorMatrix in="SourceAlpha" type="matrix" values="0 0 0 0 0 0 0 0 0 0 0 0 0 0 0 0 0 0 127 0"/>
<feOffset dx="15" dy="20"/>
<feGaussianBlur stdDeviation="20"/>
<feColorMatrix type="matrix" values="0 0 0 0 0.454902 0 0 0 0 0.458824 0 0 0 0 0.854902 0 0 0 0.15 0"/>
<feBlend mode="normal" in2="BackgroundImageFix" result="effect1_dropShadow"/>
<feBlend mode="normal" in="SourceGraphic" in2="effect1_dropShadow" result="shape"/>
</filter>
<linearGradient id="paint0_linear" x1="59.9893" y1="42.8005" x2="59.9893" y2="85.6168" gradientUnits="userSpaceOnUse">
<stop stop-color="#F9AA4B"/>
<stop offset="1" stop-color="#F7931A"/>
</linearGradient>
<linearGradient id="paint1_linear" x1="290" y1="122.009" x2="290" y2="267.564" gradientUnits="userSpaceOnUse">
<stop stop-color="#6EDCB5" stop-opacity="0.4"/>
<stop offset="1" stop-color="#6EDCB5" stop-opacity="0"/>
</linearGradient>
<clipPath id="clip0">
<rect width="40" height="42.8103" fill="white" transform="translate(40 42.8107)"/>
</clipPath>
</defs>
</svg>
