<svg width="135" height="128" viewBox="0 0 135 128" fill="none" xmlns="http://www.w3.org/2000/svg">
<g clip-path="url(#clip0)">
<path d="M42.2327 100.039C30.441 92.4275 22.3302 80.9508 19.2598 68.063L18.4962 68.787C18.1716 69.0948 17.7397 69.2645 17.2804 69.2645C16.8211 69.2645 16.3894 69.0948 16.0646 68.787L15.1895 67.9573C18.3029 82.1398 27.0942 94.8038 40.007 103.139C40.9101 103.722 42.1399 103.5 42.7545 102.644C43.3691 101.788 43.1355 100.622 42.2327 100.039V100.039Z" fill="#FE9738"/>
<path d="M115.46 100.182H111.103C124.902 89.5015 133.004 73.4927 133.004 56.4475C133.004 41.3697 126.812 27.1948 115.567 16.5333C104.323 5.87175 89.3719 0 73.4696 0C62.5952 0 52.167 2.74725 43.0635 7.8925C43.83 8.0565 44.4048 8.706 44.4048 9.48175V11.548C52.8668 6.6055 62.8225 3.75 73.4696 3.75C104.116 3.75 129.049 27.39 129.049 56.4475C129.049 72.8587 121.005 88.2425 107.376 98.2015V92.518C107.376 91.4825 106.491 90.643 105.399 90.643C104.307 90.643 103.421 91.4825 103.421 92.518V102.057C103.421 103.093 104.307 103.932 105.399 103.932H115.46C116.552 103.932 117.437 103.093 117.437 102.057C117.437 101.022 116.552 100.182 115.46 100.182V100.182Z" fill="#FE9738"/>
<path d="M72.9038 18.8083C70.2523 18.8433 67.662 19.1293 65.1571 19.6403L66.5282 20.9403C66.8528 21.2483 67.0318 21.6576 67.0318 22.0931C67.0318 22.5286 66.853 22.9378 66.5282 23.2458L61.6405 27.8801C60.9484 28.5363 60.788 29.5393 61.2413 30.3761C61.8841 31.5623 62.4278 32.8033 62.8573 34.0643C63.1616 34.9576 64.0222 35.5576 64.9991 35.5576H71.9066C72.8547 35.5576 73.626 36.2888 73.626 37.1878V46.1811C73.626 47.0798 72.8547 47.8113 71.9066 47.8113H64.9991C64.0222 47.8113 63.1616 48.4113 62.8573 49.3046C62.4281 50.5653 61.8844 51.8063 61.2413 52.9928C60.788 53.8296 60.9484 54.8326 61.6405 55.4886L66.5282 60.1228C66.8528 60.4306 67.0318 60.8401 67.0318 61.2756C67.0318 61.7111 66.853 62.1203 66.5282 62.4283L59.8214 68.7876C59.4966 69.0953 59.0649 69.2651 58.6056 69.2651C58.1463 69.2651 57.7147 69.0953 57.3898 68.7876L52.5021 64.1533C52.0805 63.7536 51.5181 63.5336 50.9185 63.5336C50.5568 63.5336 50.1942 63.6168 49.8699 63.7748C48.6188 64.3843 47.3102 64.8998 45.98 65.3071C45.0379 65.5956 44.405 66.4116 44.405 67.3378V73.8873C44.405 74.7861 43.6338 75.5176 42.6856 75.5176H39.2368C41.4403 79.0651 44.2371 82.2416 47.5019 84.9206C51.3151 88.0493 54.3734 91.9196 56.5706 96.2233L58.6602 100.316H88.279L90.3691 96.2223C92.5948 91.8628 95.7383 87.9863 99.5845 84.7991C107.911 77.8993 113.171 67.7568 113.171 56.4481C113.171 35.4793 95.0896 18.5153 72.9038 18.8083V18.8083Z" fill="#FED402"/>
<path d="M58.5324 100.066H72.3249L67.7233 91.052C65.5261 86.7483 62.4677 82.8783 58.6545 79.7493C53.8241 75.7858 50.0145 70.735 47.6444 64.9998C47.1236 65.1953 46.5971 65.38 46.0605 65.5443C45.2352 65.797 44.6683 66.5148 44.6683 67.337V73.8865C44.6683 74.925 43.7805 75.7668 42.6852 75.7668H39.3901C41.5691 79.214 44.3134 82.3035 47.5017 84.9198C51.315 88.0485 54.3733 91.9188 56.5705 96.2225L58.5324 100.066Z" fill="#FAC600"/>
<path d="M77.2686 74.7675V100.317H81.2236V73.6085C79.967 74.121 78.6431 74.5118 77.2686 74.7675Z" fill="#FE9738"/>
<path d="M69.6704 100.316V74.7621C68.3104 74.5068 66.9844 74.1183 65.7153 73.6021V100.316H69.6704Z" fill="#FE9738"/>
<path d="M73.6257 37.53V46.1808C73.6257 47.0795 72.8545 47.811 71.9063 47.811H64.9989C64.022 47.811 63.1614 48.411 62.8571 49.3043C62.4279 50.565 61.8842 51.806 61.2411 52.9925C60.7878 53.8293 60.9481 54.8323 61.6403 55.4883L66.528 60.1225C66.8525 60.4303 67.0316 60.8398 67.0316 61.2753C67.0316 61.7108 66.8528 62.12 66.528 62.428L59.8212 68.7873C59.5388 69.0548 59.176 69.2175 58.7842 69.2558C62.4313 73.013 67.6594 75.3688 73.4694 75.3688C84.4906 75.3688 93.4251 66.8975 93.4251 56.4478C93.4251 46.0473 84.5747 37.6103 73.6257 37.53V37.53Z" fill="white"/>
<path d="M73.626 37.5298V42.857C75.5732 41.0695 77.903 39.6543 80.4878 38.733C78.3507 37.9715 76.0396 37.5475 73.626 37.5298Z" fill="#FFF3DE"/>
<path d="M67.5504 56.4475C67.5504 53.3353 68.3457 50.4003 69.7502 47.811H64.9994C64.0225 47.811 63.1619 48.411 62.8576 49.3043C62.4283 50.565 61.8847 51.806 61.2416 52.9925C60.7883 53.8293 60.9486 54.8323 61.6408 55.4883L66.5284 60.1225C66.853 60.4303 67.0321 60.8398 67.0321 61.2753C67.0321 61.7108 66.8533 62.12 66.5284 62.428L59.8217 68.7873C59.5393 69.0548 59.1765 69.2175 58.7847 69.2558C62.4318 73.013 67.6599 75.3688 73.4699 75.3688C75.9405 75.3688 78.3046 74.9403 80.4883 74.162C72.9299 71.4685 67.5504 64.5548 67.5504 56.4475V56.4475Z" fill="#FFF3DE"/>
<path d="M61.9419 117.741L63.217 126.287C63.3636 127.27 64.2503 128 65.2969 128H81.6416C82.6881 128 83.5748 127.27 83.7214 126.287L84.9966 117.741H61.9419Z" fill="#8B8089"/>
<path d="M73.1257 126.287L71.8878 117.991H61.9795L63.2174 126.287C63.364 127.27 64.2508 128 65.2973 128H75.2055C74.159 128 73.2723 127.27 73.1257 126.287Z" fill="#7B7179"/>
<path d="M73.8896 46.1807V37.1877C73.8896 36.1492 73.0018 35.3074 71.9065 35.3074H64.9991C64.1319 35.3074 63.3746 34.7699 63.1083 33.9874C62.6685 32.6964 62.1206 31.4517 61.4759 30.2617C61.0789 29.5289 61.2125 28.6394 61.8269 28.0567L66.7146 23.4224C67.489 22.6882 67.489 21.4977 66.7146 20.7634L60.0078 14.4042C59.2334 13.6699 57.9778 13.6699 57.2034 14.4042L52.3157 19.0384C51.7014 19.6209 50.7632 19.7477 49.9901 19.3712C48.7351 18.7599 47.4222 18.2404 46.0606 17.8234C45.2353 17.5707 44.6684 16.8529 44.6684 16.0307V9.48169C44.6684 8.44319 43.7807 7.60144 42.6854 7.60144H33.2006C32.1053 7.60144 31.2175 8.44319 31.2175 9.48169V16.0309C31.2175 16.8532 30.6506 17.5712 29.8253 17.8237C28.4637 18.2407 27.1509 18.7602 25.8958 19.3714C25.123 19.7479 24.1848 19.6212 23.5702 19.0387L18.6828 14.4044C17.9084 13.6702 16.6528 13.6702 15.8784 14.4044L9.17162 20.7634C8.39722 21.4977 8.39722 22.6882 9.17162 23.4224L14.0593 28.0567C14.6737 28.6392 14.8073 29.5287 14.4103 30.2617C13.7656 31.4517 13.2174 32.6964 12.7779 33.9874C12.5113 34.7699 11.7543 35.3074 10.8871 35.3074H3.97966C2.88437 35.3074 1.99658 36.1492 1.99658 37.1877V46.1807C1.99658 47.2192 2.88437 48.0609 3.97966 48.0609H10.8871C11.7543 48.0609 12.5116 48.5984 12.7779 49.3809C13.2177 50.6719 13.7656 51.9167 14.4103 53.1067C14.8073 53.8397 14.6737 54.7289 14.0593 55.3117L9.17162 59.9459C8.39722 60.6802 8.39722 61.8707 9.17162 62.6049L15.8784 68.9642C16.6528 69.6984 17.9084 69.6984 18.6828 68.9642L23.5705 64.3299C24.1848 63.7474 25.123 63.6207 25.8958 63.9972C27.1509 64.6084 28.4637 65.1279 29.8253 65.5449C30.6506 65.7977 31.2175 66.5154 31.2175 67.3377V73.8872C31.2175 74.9257 32.1053 75.7674 33.2006 75.7674H42.6854C43.7807 75.7674 44.6684 74.9257 44.6684 73.8872V67.3377C44.6684 66.5154 45.2353 65.7974 46.0606 65.5449C47.4222 65.1279 48.7351 64.6084 49.9901 63.9972C50.763 63.6207 51.7011 63.7474 52.3155 64.3299L57.2034 68.9642C57.9778 69.6984 59.2334 69.6984 60.0078 68.9642L66.7146 62.6049C67.489 61.8707 67.489 60.6802 66.7146 59.9459L61.8269 55.3117C61.2125 54.7292 61.0789 53.8397 61.4759 53.1067C62.1206 51.9167 62.6685 50.6719 63.1083 49.3809C63.3749 48.5984 64.1319 48.0609 64.9991 48.0609H71.9065C73.0018 48.0609 73.8896 47.2192 73.8896 46.1807V46.1807Z" fill="#BAAFB9"/>
<path d="M19.1234 41.6842C19.1234 27.9902 30.4267 16.8007 44.6695 16.0424C44.6695 16.0384 44.6684 16.0349 44.6684 16.0309V9.48169C44.6684 8.44319 43.7807 7.60144 42.6854 7.60144H33.2006C32.1053 7.60144 31.2175 8.44319 31.2175 9.48169V16.0309C31.2175 16.8532 30.6506 17.5712 29.8253 17.8237C28.4637 18.2407 27.1509 18.7602 25.8958 19.3714C25.1227 19.7479 24.1848 19.6212 23.5702 19.0387L18.6828 14.4044C17.9084 13.6702 16.6528 13.6702 15.8784 14.4044L9.17162 20.7634C8.39722 21.4977 8.39722 22.6882 9.17162 23.4224L14.0593 28.0567C14.6737 28.6392 14.8073 29.5287 14.4103 30.2617C13.7656 31.4517 13.2177 32.6964 12.7779 33.9874C12.5113 34.7699 11.7543 35.3074 10.8871 35.3074H3.97966C2.88437 35.3074 1.99658 36.1492 1.99658 37.1877V46.1807C1.99658 47.2192 2.88437 48.0609 3.97966 48.0609H10.8871C11.7543 48.0609 12.5116 48.5984 12.7779 49.3809C13.2177 50.6719 13.7656 51.9167 14.4103 53.1067C14.8073 53.8397 14.6737 54.7289 14.0593 55.3117L9.17162 59.9459C8.39722 60.6802 8.39722 61.8707 9.17162 62.6049L15.8784 68.9642C16.6528 69.6984 17.9084 69.6984 18.6828 68.9642L23.5707 64.3299C24.1851 63.7474 25.1232 63.6207 25.8961 63.9972C27.1511 64.6084 28.464 65.1279 29.8256 65.5449C30.6509 65.7977 31.2177 66.5154 31.2177 67.3377V73.8872C31.2177 74.9257 32.1055 75.7674 33.2008 75.7674H42.6856C43.7809 75.7674 44.6687 74.9257 44.6687 73.8872V67.3377C44.6687 67.3339 44.6698 67.3302 44.6698 67.3264C30.4267 66.5677 19.1234 55.3782 19.1234 41.6842V41.6842Z" fill="#AA9EA9"/>
<path d="M37.9434 56.4717C46.5569 56.4717 53.5396 49.8511 53.5396 41.6842C53.5396 33.5173 46.5569 26.8967 37.9434 26.8967C29.3298 26.8967 22.3472 33.5173 22.3472 41.6842C22.3472 49.8511 29.3298 56.4717 37.9434 56.4717Z" fill="#E5E1E5"/>
<path d="M37.9434 58.3467C28.2532 58.3467 20.3696 50.872 20.3696 41.6842C20.3696 32.4965 28.2532 25.0217 37.9434 25.0217C47.6336 25.0217 55.5171 32.4965 55.5171 41.6842C55.5171 50.872 47.6336 58.3467 37.9434 58.3467ZM37.9434 28.7717C30.434 28.7717 24.3247 34.5642 24.3247 41.6842C24.3247 48.8042 30.434 54.5967 37.9434 54.5967C45.4527 54.5967 51.562 48.8042 51.562 41.6842C51.562 34.5642 45.4527 28.7717 37.9434 28.7717V28.7717Z" fill="#9B8E99"/>
<path d="M37.9434 47.3092C41.2198 47.3092 43.876 44.7908 43.876 41.6842C43.876 38.5776 41.2198 36.0592 37.9434 36.0592C34.6669 36.0592 32.0107 38.5776 32.0107 41.6842C32.0107 44.7908 34.6669 47.3092 37.9434 47.3092Z" fill="#BAAFB9"/>
<path d="M37.4419 41.6842C37.4419 39.5057 38.7489 37.618 40.6589 36.6837C39.845 36.2855 38.9224 36.0592 37.9434 36.0592C34.667 36.0592 32.0107 38.5777 32.0107 41.6842C32.0107 44.7907 34.667 47.3092 37.9434 47.3092C38.9224 47.3092 39.845 47.083 40.6589 46.6847C38.7489 45.7502 37.4419 43.8625 37.4419 41.6842Z" fill="#AA9EA9"/>
<path d="M93.0056 117.991H53.9342C52.774 117.991 51.8335 117.099 51.8335 115.999V102.057C51.8335 100.957 52.774 100.066 53.9342 100.066H93.0056C94.1658 100.066 95.1063 100.957 95.1063 102.057V115.999C95.1063 117.099 94.1658 117.991 93.0056 117.991Z" fill="#BAAFB9"/>
<path d="M65.6243 115.999V102.058C65.6243 100.958 66.5648 100.066 67.725 100.066H53.9342C52.774 100.066 51.8335 100.958 51.8335 102.058V115.999C51.8335 117.099 52.774 117.991 53.9342 117.991H67.725C66.5648 117.991 65.6243 117.099 65.6243 115.999Z" fill="#AA9EA9"/>
</g>
<defs>
<clipPath id="clip0">
<rect width="135" height="128" fill="white"/>
</clipPath>
</defs>
</svg>
