<svg width="135" height="119" viewBox="0 0 135 119" fill="none" xmlns="http://www.w3.org/2000/svg">
<g clip-path="url(#clip0)">
<path d="M54.3972 25.7129H64.5296C64.9731 25.7129 65.3325 26.0284 65.3325 26.4177V44.5241C65.9864 44.4637 66.6496 44.4315 67.3214 44.4315H81.6153C82.2869 44.4315 82.9503 44.4637 83.6039 44.5241V26.4177C83.6039 26.0284 83.9633 25.7129 84.4068 25.7129H94.5392C95.235 25.7129 95.6013 24.9892 95.1351 24.5358L75.0641 5.018C74.7453 4.70787 74.1908 4.70787 73.8721 5.018L53.8011 24.5358C53.3352 24.9892 53.7017 25.7129 54.3972 25.7129Z" fill="#0593FC"/>
<path d="M54.3972 25.7129H64.5296C64.9731 25.7129 65.3325 26.0283 65.3325 26.4176V44.2903C65.9864 44.2311 66.6496 44.2 67.3211 44.2H71.2944V21.6061C71.2944 21.2168 70.935 20.9014 70.4915 20.9014H57.5386L53.8011 24.5358C53.3352 24.9892 53.7017 25.7129 54.3972 25.7129Z" fill="#0182FC"/>
<path d="M44.1439 33.0435L37.5841 27.2853C37.2133 26.9597 36.7102 26.7769 36.1858 26.7769C35.6614 26.7769 35.1583 26.9597 34.7876 27.2853L28.2277 33.0435C27.4554 33.7214 27.4554 34.8205 28.2277 35.4982C28.6137 35.837 29.1199 36.0067 29.6259 36.0067C30.1319 36.0067 30.6381 35.8372 31.0242 35.4982L34.2083 32.7032V66.5162C34.2083 67.4749 35.0937 68.2521 36.1858 68.2521C37.2779 68.2521 38.1633 67.4749 38.1633 66.5162V32.7032L41.3474 35.4982C42.1197 36.1761 43.3719 36.1761 44.1439 35.4982C44.9162 34.8205 44.9162 33.7214 44.1439 33.0435Z" fill="#0593FC"/>
<path d="M120.71 33.0435L114.15 27.2853C113.779 26.9597 113.276 26.7769 112.751 26.7769C112.227 26.7769 111.724 26.9597 111.353 27.2853L104.793 33.0435C104.02 33.7214 104.02 34.8205 104.793 35.4982C105.565 36.1761 106.817 36.1763 107.589 35.4982L110.773 32.7032V66.5162C110.773 67.4749 111.659 68.2521 112.751 68.2521C113.843 68.2521 114.729 67.4749 114.729 66.5162V32.7035L117.912 35.4984C118.299 35.8375 118.805 36.0069 119.311 36.0069C119.817 36.0069 120.323 35.8375 120.709 35.4984C121.482 34.8205 121.482 33.7214 120.71 33.0435Z" fill="#0593FC"/>
<path d="M51.7617 70.7696H56.7356V68.4199C56.7356 66.7362 58.296 65.3665 60.2142 65.3665H72.0396C72.8987 65.3665 73.7366 65.22 74.5297 64.9311L86.1171 60.713C86.5273 60.5638 86.9542 60.4881 87.3861 60.4881C87.6342 60.4881 87.8805 60.5138 88.1175 60.5647C90.5214 61.0803 92.2002 62.9597 92.2002 65.135V70.7696H97.1741C98.6193 70.7696 99.9129 71.3498 100.769 72.2589V61.0139C100.769 51.7283 92.1931 44.2008 81.6146 44.2008H67.3207C56.7422 44.2008 48.1665 51.7283 48.1665 61.0139V72.2589C49.0229 71.3498 50.3165 70.7696 51.7617 70.7696Z" fill="#D88A55"/>
<path d="M51.7616 70.5372H56.4719V68.419C56.4719 66.887 57.6684 65.6037 59.2845 65.2403V61.0129C59.2845 51.7274 67.8601 44.1998 78.4386 44.1998H67.3212C56.7427 44.1998 48.167 51.7274 48.167 61.0129V71.9115C49.0658 71.0679 50.3418 70.5372 51.7616 70.5372Z" fill="#C57A44"/>
<path d="M103.651 94.6218H85.6365V102.351C85.6365 102.727 85.2755 102.959 84.9409 102.959C84.7877 102.959 84.6406 102.913 84.5159 102.826L75.5903 96.6049C75.2726 96.3834 74.8739 96.2614 74.4681 96.2614C74.0623 96.2614 73.6637 96.3834 73.3459 96.6049L64.4204 102.826C64.2954 102.913 64.1485 102.959 63.9951 102.959C63.6605 102.959 63.2995 102.727 63.2995 102.351V94.6218H50.5457C50.961 95.9755 51.1862 97.3971 51.1862 98.8645C51.1862 106.279 45.5257 112.551 37.7998 114.537V116.703C37.7998 117.696 38.7161 118.5 39.8467 118.5H109.089C110.219 118.5 111.136 117.696 111.136 116.703V101.192C111.136 97.5633 107.785 94.6218 103.651 94.6218Z" fill="#97D729"/>
<path d="M48.8468 116.703V107.257C46.4237 110.867 42.4865 113.598 37.8003 114.78V116.703C37.8003 117.695 38.7166 118.5 39.8472 118.5H50.8937C49.7631 118.5 48.8468 117.696 48.8468 116.703Z" fill="#8BC727"/>
<path d="M75.5909 96.6048C75.2732 96.3833 74.8745 96.2614 74.4688 96.2614C74.063 96.2614 73.6643 96.3833 73.3466 96.6048L72.4912 97.201V118.5H76.4463V97.201L75.5909 96.6048Z" fill="#A2E62E"/>
<path d="M78.7428 91.5603H70.1945C67.5652 91.5603 65.1117 90.8925 63.0366 89.7437V102.351C63.0366 103.052 63.9592 103.444 64.5849 103.007L73.5105 96.7861C74.0715 96.3949 74.8655 96.3949 75.4266 96.7861L84.3521 103.007C84.9778 103.443 85.9004 103.052 85.9004 102.351V89.7437C83.8256 90.8923 81.3718 91.5603 78.7428 91.5603Z" fill="#8BC727"/>
<path d="M56.7359 79.7465V70.5371H51.762C49.042 70.5371 46.8369 72.4727 46.8369 74.8603V78.4382C46.8369 80.8258 49.042 82.7614 51.762 82.7614H57.1818C56.892 81.7985 56.7359 80.7883 56.7359 79.7465Z" fill="#FFE5C2"/>
<path d="M97.1751 70.5371H92.2012V79.7465C92.2012 80.7883 92.0451 81.7985 91.7554 82.7614H97.1751C99.8952 82.7614 102.1 80.8258 102.1 78.4382V74.8603C102.1 72.4727 99.8952 70.5371 97.1751 70.5371Z" fill="#FED2A4"/>
<path d="M86.0169 60.4983C86.7016 60.2491 87.4607 60.1845 88.1808 60.3391C90.6398 60.8666 92.4647 62.8133 92.4647 65.1342V79.7467C92.4647 86.3989 86.3211 91.7918 78.7424 91.7918H70.1942C62.6157 91.7918 56.4722 86.3991 56.4722 79.7467V68.4193C56.4722 66.605 58.1478 65.1344 60.2145 65.1344H72.0399C72.8599 65.1344 73.6717 64.9925 74.4293 64.7169L86.0169 60.4983Z" fill="#FFE5C2"/>
<path d="M64.7784 79.7464V68.4191C64.7784 66.6048 66.454 65.1342 68.5206 65.1342H60.2145C58.1475 65.1342 56.4722 66.605 56.4722 68.4191V79.7464C56.4722 86.3986 62.6157 91.7913 70.1942 91.7913H78.5004C70.9219 91.7913 64.7784 86.3986 64.7784 79.7464Z" fill="#FED2A4"/>
<path d="M74.4688 86.4788C70.8014 86.4788 67.8174 84.0711 67.8174 81.1118C67.8174 80.1532 68.7025 79.376 69.7949 79.376C70.8873 79.376 71.7725 80.1532 71.7725 81.1118C71.7725 82.157 72.9819 83.0071 74.4688 83.0071C75.9556 83.0071 77.1651 82.1568 77.1651 81.1118C77.1651 80.1532 78.0502 79.376 79.1426 79.376C80.235 79.376 81.1202 80.1532 81.1202 81.1118C81.1199 84.0713 78.1362 86.4788 74.4688 86.4788Z" fill="#F6A96C"/>
<path d="M67.6758 75.3469C66.5837 75.3469 65.6982 74.5697 65.6982 73.6111V71.8688C65.6982 70.9101 66.5837 70.1329 67.6758 70.1329C68.7682 70.1329 69.6533 70.9101 69.6533 71.8688V73.6111C69.6533 74.5697 68.7679 75.3469 67.6758 75.3469Z" fill="#F6A96C"/>
<path d="M81.2612 75.3469C80.1688 75.3469 79.2837 74.5697 79.2837 73.6111V71.8688C79.2837 70.9101 80.1688 70.1329 81.2612 70.1329C82.3536 70.1329 83.2388 70.9101 83.2388 71.8688V73.6111C83.2388 74.5697 82.3536 75.3469 81.2612 75.3469Z" fill="#F6A96C"/>
<path d="M54.6293 6.26661L48.0694 0.508485C47.6987 0.182842 47.1956 0 46.6712 0C46.1467 0 45.6436 0.182842 45.2729 0.508485L38.713 6.26661C37.9407 6.94452 37.9407 8.04365 38.713 8.72132C39.4853 9.39923 40.7375 9.39923 41.5095 8.72132L44.6936 5.92639V17.9641C44.6936 18.9227 45.579 19.6999 46.6712 19.6999C47.7633 19.6999 48.6487 18.9227 48.6487 17.9641V5.92639L51.8328 8.72132C52.2188 9.06016 52.7251 9.22981 53.2311 9.22981C53.737 9.22981 54.2433 9.06039 54.6293 8.72132C55.4019 8.04365 55.4019 6.94452 54.6293 6.26661Z" fill="#0182FC"/>
<path d="M110.224 6.26661L103.664 0.508485C103.293 0.182842 102.79 0 102.265 0C101.741 0 101.238 0.182842 100.867 0.508485L94.3068 6.26661C93.5345 6.94452 93.5345 8.04365 94.3068 8.72132C95.0791 9.39899 96.331 9.39946 97.1035 8.72132L100.288 5.92639V17.9641C100.288 18.9227 101.173 19.6999 102.265 19.6999C103.358 19.6999 104.243 18.9227 104.243 17.9641V5.92662L107.427 8.72155C107.813 9.06062 108.319 9.23004 108.825 9.23004C109.331 9.23004 109.837 9.06062 110.224 8.72155C110.996 8.04365 110.996 6.94452 110.224 6.26661Z" fill="#0182FC"/>
<path d="M31.8523 103.01C31.8816 102.81 31.8114 102.608 31.6598 102.457C31.5082 102.306 31.2896 102.219 31.06 102.219H22.9616C22.879 102.219 22.8023 102.187 22.7504 102.131C22.6987 102.074 22.6786 102.002 22.6958 101.931L27.2929 82.9652C19.4466 84.9728 13.7114 91.3287 13.7114 98.8643C13.7114 107.261 20.8316 114.194 30.0604 115.276L31.8523 103.01Z" fill="#B3DAFE"/>
<path d="M37.3835 82.8441L34.3969 93.3531C34.3371 93.5642 34.3901 93.7831 34.5425 93.9546C34.6951 94.1262 34.9245 94.2243 35.1721 94.2243H43.1205C43.2565 94.2243 43.3272 94.3027 43.3512 94.3365C43.3752 94.3703 43.4245 94.4606 43.3644 94.5677L31.7017 115.408C31.9933 115.42 32.286 115.427 32.5807 115.427C43.0021 115.427 51.4502 108.012 51.4502 98.8641C51.4504 91.1736 45.4782 84.7089 37.3835 82.8441Z" fill="#B3DAFE"/>
<path d="M30.4287 112.762C25.2457 109.811 21.8145 104.691 21.8145 98.8641C21.8145 94.9524 23.3617 91.3597 25.9457 88.5268L27.2939 82.965C19.4475 84.9725 13.7124 91.3285 13.7124 98.8641C13.7124 107.261 20.8326 114.194 30.0614 115.276L30.4287 112.762Z" fill="#8AC9FE"/>
<path d="M31.7021 115.408C31.9938 115.42 32.2864 115.427 32.5812 115.427C33.9724 115.427 35.3268 115.291 36.6323 115.041C35.2182 114.769 33.8653 114.355 32.5894 113.823L31.7021 115.408Z" fill="#8AC9FE"/>
<path d="M43.1207 93.9929H35.1723C34.8242 93.9929 34.5687 93.7059 34.6528 93.4092L38.1934 80.95C38.2778 80.6536 38.0223 80.3663 37.674 80.3663H28.0866C27.834 80.3663 27.6157 80.5214 27.563 80.7385L22.4377 101.883C22.3668 102.175 22.6207 102.451 22.9614 102.451H31.0598C31.3825 102.451 31.6317 102.699 31.5908 102.98L29.4016 117.969C29.3246 118.496 30.1462 118.713 30.413 118.236L43.6011 94.6699C43.7756 94.3577 43.517 93.9929 43.1207 93.9929Z" fill="#FED402"/>
<path d="M27.9814 101.883L33.1067 80.7385C33.1592 80.5216 33.3775 80.3663 33.6303 80.3663H28.0866C27.834 80.3663 27.6157 80.5214 27.563 80.7385L22.4377 101.883C22.3668 102.175 22.6207 102.451 22.9614 102.451H28.5051C28.1644 102.451 27.9105 102.175 27.9814 101.883Z" fill="#FAC600"/>
</g>
<defs>
<clipPath id="clip0">
<rect width="135" height="118.5" fill="white"/>
</clipPath>
</defs>
</svg>
