<svg width="135" height="119" viewBox="0 0 135 119" fill="none" xmlns="http://www.w3.org/2000/svg">
<path d="M111.866 93.0592H104.994V117.834L105.258 118.3H111.602L111.866 117.834V93.0592Z" fill="#97D729"/>
<path d="M134.711 115.655L118.774 90.9855L118.51 91.7875V117.834L118.774 118.3H133.618C134.762 118.3 135.409 116.736 134.711 115.655Z" fill="#97D729"/>
<path d="M98.3489 64.4878L98.0853 63.9725L91.7914 56.4772L73.4639 84.8474L73.5016 85.4697L92.0617 117.834L92.6478 118.3H98.0853L98.3489 117.834V64.4878Z" fill="#97D729"/>
<path d="M93.7067 56.7281L75.1294 84.8473L80.5639 94.1139L100.238 64.3342L93.7067 56.7281Z" fill="#8BC727"/>
<path d="M45.8549 38.5244C46.059 38.1765 46.3837 37.9768 46.7455 37.9768C47.1074 37.9768 47.4321 38.1765 47.6362 38.5244L48.7679 40.4543V23.1691H44.9928L44.7231 23.4831V40.4543L45.8549 38.5244Z" fill="#D88A55"/>
<path d="M60.7876 60.3925L60.395 60.5052L52.4376 74.0727C52.2259 74.4338 51.8891 74.6413 51.5135 74.6413C51.1376 74.6413 50.8008 74.4341 50.5892 74.0727L47.1379 68.1883C46.8286 67.6607 46.3163 67.3461 45.7681 67.3461C45.2196 67.3461 44.7076 67.6607 44.3983 68.1879L35.8396 82.7822C35.6279 83.1433 35.2911 83.3505 34.9152 83.3505C34.5396 83.3505 34.2025 83.1436 33.9908 82.7819L26.9446 70.7675H26.618L0.248118 115.731C-0.391223 116.821 0.279128 118.3 1.41301 118.3H94.7487L60.7876 60.3925Z" fill="#0593FC"/>
<path d="M11.7765 115.731L32.3824 80.5961L26.6183 70.7678L0.248118 115.731C-0.391223 116.821 0.279128 118.3 1.41301 118.3H12.9411C11.8075 118.3 11.1371 116.821 11.7765 115.731Z" fill="#0182FC"/>
<path d="M46.9155 68.3654L50.3668 74.2501C50.9182 75.1905 52.1093 75.1905 52.6607 74.2501L60.7879 60.3925L47.859 38.3476C47.3238 37.4348 46.1675 37.4348 45.6322 38.3476L26.6187 70.7675L33.7687 82.959C34.3201 83.8994 35.5112 83.8994 36.0626 82.959L44.6216 68.3654C45.173 67.4249 46.3641 67.4249 46.9155 68.3654Z" fill="#FFF3DE"/>
<path d="M45.6322 38.3476L26.6187 70.7675L32.3827 80.5958L52.5097 46.2775L47.859 38.3476C47.3235 37.4348 46.1675 37.4348 45.6322 38.3476Z" fill="#FFE5C2"/>
<path d="M64.8782 23.4831H44.7231V6.6067C44.7231 5.73973 45.3269 5.03668 46.0714 5.03668H64.8782C65.6227 5.03668 66.2264 5.73973 66.2264 6.6067V21.9131C66.2264 22.7803 65.6227 23.4831 64.8782 23.4831Z" fill="#FE646F"/>
<path d="M54.4694 5.03668H46.0709C45.3264 5.03668 44.7227 5.73973 44.7227 6.6067V23.4831H53.1212V6.6067C53.1212 5.73973 53.7249 5.03668 54.4694 5.03668Z" fill="#FD4755"/>
<path d="M133.967 44.0547C132.59 42.4511 130.357 42.4511 128.98 44.0547L118.191 56.6183C116.621 59.3733 113.935 61.1942 110.889 61.1942C107.843 61.1942 105.157 59.3733 103.588 56.6186L92.7985 44.055C91.4214 42.4514 89.1887 42.4514 87.8116 44.055C86.4345 45.6586 86.4345 48.2586 87.8116 49.8622L100.31 64.4168V118.3H107.645V93.3735H114.134V118.3H121.468V64.4165L133.967 49.8619C135.344 48.2583 135.344 45.6583 133.967 44.0547Z" fill="#FEE45A"/>
<path d="M102.817 55.7023L92.7976 44.055C91.4205 42.4514 89.1878 42.4514 87.8107 44.055C86.4336 45.6586 86.4336 48.2586 87.8107 49.8622L100.309 64.4168V118.3H105.249L105.268 59.2188C104.247 58.2712 103.407 57.0726 102.817 55.7023Z" fill="#FED402"/>
<path d="M110.888 61.5079C115.874 61.5079 119.916 56.8014 119.916 50.9957C119.916 45.19 115.874 40.4835 110.888 40.4835C105.903 40.4835 101.861 45.19 101.861 50.9957C101.861 56.8014 105.903 61.5079 110.888 61.5079Z" fill="#FED402"/>
<path d="M108.669 50.9957C108.669 46.5928 110.994 42.8244 114.292 41.2591C113.241 40.7605 112.093 40.4835 110.888 40.4835C105.902 40.4835 101.861 45.1901 101.861 50.9957C101.861 56.8013 105.903 61.5079 110.888 61.5079C112.093 61.5079 113.241 61.2309 114.292 60.7323C110.994 59.1673 108.669 55.3987 108.669 50.9957Z" fill="#FAC600"/>
<path d="M102.92 30.2649C102.403 30.2649 101.885 30.0351 101.49 29.5754L89.5455 15.6657C88.7557 14.7457 88.7557 13.2548 89.5455 12.3351C90.3358 11.4153 91.6161 11.416 92.4057 12.3351L104.35 26.2447C105.14 27.1648 105.14 28.6557 104.35 29.5754C103.956 30.0348 103.438 30.2649 102.92 30.2649Z" fill="#B3DAFE"/>
<path d="M77.9026 58.0583C77.3851 58.0583 76.8674 57.8284 76.4724 57.3687L67.5831 47.0173C66.7933 46.0973 66.7933 44.6064 67.5831 43.6867C68.3732 42.7673 69.6535 42.7673 70.4433 43.6867L79.3326 54.0381C80.1224 54.9581 80.1224 56.449 79.3326 57.3687C78.9378 57.8284 78.4201 58.0583 77.9026 58.0583Z" fill="#B3DAFE"/>
<path d="M125.491 86.1461C124.974 86.1461 124.456 85.9163 124.061 85.4566L113.574 73.245C112.784 72.325 112.784 70.8341 113.574 69.9144C114.364 68.995 115.645 68.995 116.434 69.9144L126.921 82.126C127.711 83.046 127.711 84.5369 126.921 85.4566C126.526 85.916 126.009 86.1461 125.491 86.1461Z" fill="#8AC9FE"/>
<path d="M27.6403 14.4144C27.1225 14.4144 26.6051 14.1845 26.21 13.7245L17.8765 4.01994C17.0867 3.10023 17.0867 1.60934 17.8768 0.689629C18.6666 -0.230085 19.9471 -0.229772 20.7367 0.689942L29.0702 10.3945C29.86 11.3142 29.86 12.8051 29.07 13.7248C28.6755 14.1845 28.1577 14.4144 27.6403 14.4144Z" fill="#B3DAFE"/>
<path d="M26.2512 41.91C25.7338 41.91 25.216 41.6802 24.821 41.2205L18.9874 34.4273C18.1976 33.5073 18.1976 32.0164 18.9874 31.0967C19.7774 30.1773 21.0578 30.1773 21.8476 31.0967L27.6812 37.8899C28.471 38.8099 28.471 40.3008 27.6812 41.2205C27.2861 41.6799 26.7684 41.91 26.2512 41.91Z" fill="#B3DAFE"/>
<path d="M70.1416 107.9C69.6241 107.9 69.1064 107.67 68.7114 107.21L55.0997 91.3598C54.3099 90.4398 54.3099 88.9489 55.0997 88.0291C55.8898 87.1097 57.1701 87.1097 57.9599 88.0291L71.5718 103.88C72.3616 104.8 72.3616 106.291 71.5718 107.21C71.1768 107.67 70.659 107.9 70.1416 107.9Z" fill="#B3DAFE"/>
</svg>
