<svg width="135" height="135" viewBox="0 0 135 135" fill="none" xmlns="http://www.w3.org/2000/svg">
<path d="M105.948 95.8697V92.7175C105.948 91.1246 107.244 89.829 108.836 89.829V89.3016C107.244 89.3016 105.948 88.0059 105.948 86.4131V83.2609C105.948 82.3412 106.381 81.5225 107.053 80.9933L107.114 80.6962C106.209 79.9136 105.632 78.7598 105.632 77.4723V67.4335L102.351 73.3073C101.006 75.7136 98.4582 77.2086 95.7015 77.2086H69.9123L69.1537 77.4723C68.9773 78.1831 69.1685 78.9404 69.6982 79.4701L74.2413 84.0134C74.857 84.6294 74.857 85.6316 74.2413 86.2475L71.0807 89.4079H81.2924C83.387 89.4079 85.3954 90.2416 86.8738 91.7253L91.8372 96.705C93.3158 98.1884 95.3242 99.0224 97.4186 99.0224H108.836L108.871 98.7587H108.836C107.244 98.7582 105.948 97.4625 105.948 95.8697Z" fill="#FFBD86"/>
<path d="M131.847 70.6521H125.984C127.725 70.6521 129.136 69.241 129.136 67.5V64.3478C129.136 62.6067 127.725 61.1956 125.984 61.1956H108.836C107.095 61.1956 105.684 62.6067 105.684 64.3478V67.5C105.684 69.241 107.095 70.6521 108.836 70.6521C107.095 70.6521 105.684 72.0633 105.684 73.8043V76.9565C105.684 78.6976 107.095 80.1087 108.836 80.1087C107.095 80.1087 105.684 81.5199 105.684 83.2609V86.4131C105.684 88.1542 107.095 89.5653 108.836 89.5653C107.095 89.5653 105.684 90.9765 105.684 92.7175V95.8697C105.684 97.6108 107.095 99.0219 108.836 99.0219H125.984C127.725 99.0219 129.136 97.6108 129.136 95.8697V92.7175C129.136 90.9765 127.725 89.5653 125.984 89.5653H129.055C130.796 89.5653 132.207 88.1542 132.207 86.4131V83.2609C132.207 81.5199 130.796 80.1087 129.055 80.1087H131.847C133.588 80.1087 134.999 78.6976 134.999 76.9565V73.8043C134.999 72.0633 133.588 70.6521 131.847 70.6521Z" fill="#FFE5C2"/>
<path d="M125.984 95.1499H108.836C107.218 95.1499 105.885 93.9289 105.706 92.3577C105.693 92.4761 105.685 92.5958 105.685 92.7176V95.8698C105.685 97.6108 107.096 99.022 108.837 99.022H125.985C127.726 99.022 129.137 97.6108 129.137 95.8698V92.7176C129.137 92.5958 129.128 92.4761 129.115 92.3577C128.936 93.9289 127.603 95.1499 125.984 95.1499Z" fill="#FED2A4"/>
<path d="M134.927 73.1352C134.62 74.5543 133.359 75.6182 131.848 75.6182H114.826V80.1085H131.848C133.589 80.1085 135 78.6974 135 76.9563V73.8044C135 73.5745 134.974 73.3511 134.927 73.1352Z" fill="#FED2A4"/>
<path d="M129.055 85.1649H108.836C107.309 85.1649 106.036 84.0786 105.746 82.6368C105.706 82.8385 105.684 83.0471 105.684 83.261V86.4132C105.684 88.1542 107.095 89.5653 108.836 89.5653H129.055C130.796 89.5653 132.208 88.1542 132.208 86.4132V83.261C132.208 83.0471 132.186 82.8385 132.145 82.6368C131.855 84.0786 130.582 85.1649 129.055 85.1649Z" fill="#FED2A4"/>
<path d="M129.064 63.6786C128.757 65.0979 127.496 66.1616 125.985 66.1616H114.826V70.6519H125.985C127.726 70.6519 129.137 69.2407 129.137 67.4997V64.3475C129.137 64.1179 129.111 63.8945 129.064 63.6786Z" fill="#FED2A4"/>
<path d="M110.097 59.4303H97.3804C95.3085 59.4303 93.3199 60.2464 91.8452 61.7016L86.8657 66.6154C85.391 68.0708 83.4024 68.8866 81.3305 68.8866H80.8332V70.3318C80.8332 71.2027 80.1244 71.9112 79.2535 71.9112H72.8329C71.9166 71.9112 71.1095 72.5047 70.8245 73.388L69.1533 77.4715H95.7011C98.5562 77.4715 101.188 75.9272 102.581 73.435L105.369 68.4452V77.4715C105.369 79.9724 107.396 81.9995 109.897 81.9995H110.097H113.249C114.119 81.9995 114.825 81.294 114.825 80.4236V64.1582C114.825 61.5473 112.708 59.4303 110.097 59.4303Z" fill="#FED2A4"/>
<path d="M109.898 81.7364C107.546 81.7364 105.633 79.8232 105.633 77.4717V67.433L102.351 73.3068C101.006 75.7131 98.4588 77.2081 95.7021 77.2081H69.5469L71.0693 73.4882C71.3261 72.6953 72.0322 72.1754 72.8335 72.1754H79.2542C80.2704 72.1754 81.0976 71.3485 81.0976 70.3323V69.151H81.3312C83.4864 69.151 85.518 68.3173 87.0515 66.8036L92.031 61.8898C93.4656 60.4741 95.3656 59.6945 97.3811 59.6945H110.098C112.56 59.6945 114.563 61.6973 114.563 64.1592V80.4246C114.563 81.1481 113.974 81.7372 113.25 81.7372H109.898V81.7364Z" fill="#FED2A4"/>
<path d="M47.6843 113.608C21.3912 113.608 0 92.2171 0 65.9238C0 39.6309 21.3912 18.2397 47.6843 18.2397C58.1905 18.2397 68.1547 21.5897 76.4996 27.9276C84.5738 34.0601 90.5887 42.766 93.4353 52.4417C93.7435 53.4895 93.1442 54.5888 92.0964 54.8973C91.047 55.2065 89.9493 54.6059 89.6408 53.5583C87.0307 44.6868 81.5142 36.7028 74.1074 31.0777C66.4559 25.2666 57.3191 22.1951 47.684 22.1951C23.5717 22.1948 3.95508 41.8115 3.95508 65.9238C3.95508 90.036 23.5717 109.653 47.6843 109.653C58.5109 109.653 68.8998 105.667 76.9373 98.4284C77.7479 97.6978 78.9985 97.7629 79.7302 98.5748C80.4608 99.3861 80.3954 100.636 79.5838 101.368C70.8188 109.261 59.4899 113.608 47.6843 113.608Z" fill="#8AC9FE"/>
<path d="M43.2762 99.337H52.0926C53.1106 99.337 53.936 98.5117 53.936 97.4937V91.073C53.936 90.267 54.4628 89.5632 55.23 89.3154C56.4957 88.9067 57.7159 88.3973 58.8827 87.7979C59.6012 87.4288 60.4732 87.553 61.0443 88.1241L65.5873 92.6672C66.3072 93.387 67.4742 93.387 68.194 92.6672L74.4283 86.4332C75.1481 85.7134 75.1481 84.5463 74.4283 83.8263L69.8849 79.2829C69.3138 78.7118 69.1896 77.8398 69.5588 77.1213C70.1581 75.9549 70.6675 74.7346 71.0762 73.469C71.3241 72.7019 72.0278 72.1749 72.8338 72.1749H79.2542C80.2723 72.1749 81.0976 71.3496 81.0976 70.3315V61.5151C81.0976 60.4971 80.2723 59.6718 79.2542 59.6718H72.8338C72.0278 59.6718 71.3238 59.145 71.0762 58.3777C70.6675 57.1121 70.1581 55.8918 69.5588 54.7253C69.1896 54.0068 69.3138 53.1348 69.8849 52.5637L74.4283 48.0204C75.1481 47.3006 75.1481 46.1336 74.4283 45.4135L68.194 39.1795C67.4742 38.4597 66.3072 38.4597 65.5873 39.1795L61.0443 43.7226C60.4732 44.2937 59.6012 44.4179 58.8827 44.0487C57.7159 43.4494 56.4957 42.94 55.23 42.5313C54.463 42.2834 53.936 41.5797 53.936 40.7736V34.353C53.936 33.3349 53.1106 32.5096 52.0926 32.5096H43.2762C42.2582 32.5096 41.4329 33.3349 41.4329 34.353V40.7736C41.4329 41.5797 40.9061 42.2834 40.1388 42.5313C38.8732 42.94 37.6529 43.4494 36.4864 44.0487C35.7679 44.4179 34.8959 44.2937 34.3248 43.7223L29.7818 39.1792C29.0619 38.4594 27.8949 38.4594 27.1751 39.1792L20.9408 45.4132C20.221 46.133 20.221 47.3001 20.9408 48.0199L25.4842 52.5632C26.0553 53.1343 26.1795 54.0063 25.8103 54.7248C25.211 55.8913 24.7019 57.1115 24.2932 58.3772C24.0453 59.1442 23.3416 59.6713 22.5355 59.6713H16.1143C15.0963 59.6713 14.271 60.4966 14.271 61.5146V70.331C14.271 71.349 15.0963 72.1743 16.1143 72.1743H22.535C23.341 72.1743 24.0448 72.7011 24.2926 73.4684C24.7013 74.7341 25.2107 75.9543 25.8098 77.1208C26.1789 77.8393 26.0548 78.7113 25.4836 79.2824L20.9403 83.8257C20.2205 84.5456 20.2205 85.7126 20.9403 86.4327L27.1746 92.6666C27.8944 93.3865 29.0614 93.3865 29.7812 92.6666L34.3243 88.1236C34.8954 87.5525 35.7674 87.4283 36.4859 87.7974C37.6524 88.3967 38.8726 88.9062 40.1383 89.3148C40.9053 89.5627 41.4324 90.2664 41.4324 91.0725V97.4932C41.4329 98.5117 42.2582 99.337 43.2762 99.337Z" fill="#BAAFB9"/>
<path d="M31.2256 65.9247C31.2256 52.0814 40.9475 40.5107 53.9357 37.6622V34.3547C53.9357 33.3367 53.1104 32.5114 52.0924 32.5114H43.276C42.2579 32.5114 41.4326 33.3367 41.4326 34.3547V40.7754C41.4326 41.5815 40.9058 42.2852 40.1385 42.5331C38.8729 42.9417 37.6526 43.4512 36.4861 44.0505C35.7676 44.4196 34.8957 44.2954 34.3246 43.7241L29.7815 39.181C29.0617 38.4612 27.8947 38.4612 27.1748 39.181L20.9406 45.415C20.2208 46.1348 20.2208 47.3018 20.9406 48.0216L25.4839 52.565C26.055 53.1361 26.1792 54.008 25.8103 54.7266C25.211 55.893 24.7019 57.1133 24.2932 58.3789C24.0456 59.146 23.3416 59.673 22.5355 59.673H16.1143C15.0963 59.673 14.271 60.4983 14.271 61.5164V70.3328C14.271 71.3508 15.0963 72.1761 16.1143 72.1761H22.5353C23.3413 72.1761 24.045 72.7029 24.2929 73.4702C24.7016 74.7358 25.211 75.9561 25.8101 77.1226C26.1792 77.8411 26.055 78.713 25.4836 79.2842L20.9403 83.8275C20.2205 84.5473 20.2205 85.7143 20.9403 86.4342L27.1746 92.6681C27.8944 93.388 29.0614 93.388 29.7812 92.6681L34.3243 88.1251C34.8954 87.554 35.7674 87.4298 36.4859 87.7987C37.6524 88.398 38.8726 88.9074 40.1383 89.3161C40.9053 89.5639 41.4324 90.2677 41.4324 91.0737V97.4944C41.4324 98.5124 42.2577 99.3377 43.2757 99.3377H52.0921C53.1101 99.3377 53.9354 98.5124 53.9354 97.4944V94.1869C40.9477 91.3387 31.2256 79.768 31.2256 65.9247Z" fill="#AA9EA9"/>
<path d="M47.6845 81.1492C56.0932 81.1492 62.9099 74.3325 62.9099 65.9237C62.9099 57.5149 56.0932 50.6982 47.6845 50.6982C39.2757 50.6982 32.459 57.5149 32.459 65.9237C32.459 74.3325 39.2757 81.1492 47.6845 81.1492Z" fill="#E5E1E5"/>
<path d="M47.6842 83.127C38.1983 83.127 30.4814 75.4096 30.4814 65.924C30.4814 56.4384 38.1986 48.7209 47.6842 48.7209C57.1698 48.7209 64.8872 56.4384 64.8872 65.924C64.8872 75.4096 57.1698 83.127 47.6842 83.127ZM47.6842 52.6758C40.3794 52.6758 34.4365 58.6187 34.4365 65.9237C34.4365 73.2287 40.3794 79.1716 47.6842 79.1716C54.9892 79.1716 60.9321 73.2287 60.9321 65.9237C60.9321 58.6187 54.9892 52.6758 47.6842 52.6758Z" fill="#9B8E99"/>
<path d="M47.6841 73.1747C51.6887 73.1747 54.9351 69.9283 54.9351 65.9237C54.9351 61.9191 51.6887 58.6727 47.6841 58.6727C43.6795 58.6727 40.4331 61.9191 40.4331 65.9237C40.4331 69.9283 43.6795 73.1747 47.6841 73.1747Z" fill="#BAAFB9"/>
<path d="M46.1912 65.924C46.1912 62.9427 47.9913 60.3824 50.5631 59.2684C49.6803 58.8861 48.7074 58.673 47.6841 58.673C43.6794 58.673 40.4331 61.9194 40.4331 65.924C40.4331 69.9287 43.6794 73.175 47.6841 73.175C48.7074 73.175 49.6803 72.962 50.5631 72.5796C47.9913 71.4654 46.1912 68.9054 46.1912 65.924Z" fill="#AA9EA9"/>
<path d="M126.489 50.5643H101.902C100.809 50.5643 99.9243 49.6792 99.9243 48.5868C99.9243 47.4944 100.809 46.6093 101.902 46.6093H126.489C127.581 46.6093 128.467 47.4944 128.467 48.5868C128.467 49.6792 127.581 50.5643 126.489 50.5643Z" fill="#FAC600"/>
<path d="M111.989 111.086H90.2388C89.1464 111.086 88.2612 110.201 88.2612 109.109C88.2612 108.017 89.1464 107.131 90.2388 107.131H111.989C113.081 107.131 113.966 108.017 113.966 109.109C113.966 110.201 113.081 111.086 111.989 111.086Z" fill="#FAC600"/>
<path d="M114.195 40.1619H80.4668C79.3744 40.1619 78.4893 39.2768 78.4893 38.1844C78.4893 37.092 79.3744 36.2068 80.4668 36.2068H114.195C115.288 36.2068 116.173 37.092 116.173 38.1844C116.173 39.2768 115.287 40.1619 114.195 40.1619Z" fill="#FAC600"/>
<path d="M101.272 120.858H71.0107C69.9183 120.858 69.0332 119.973 69.0332 118.881C69.0332 117.788 69.9183 116.903 71.0107 116.903H101.272C102.364 116.903 103.249 117.788 103.249 118.881C103.249 119.973 102.364 120.858 101.272 120.858Z" fill="#FAC600"/>
<path d="M47.0764 107.069C45.3652 112.368 43.4907 114.242 38.1917 115.954C37.5494 116.161 37.5494 117.075 38.1917 117.282C43.4907 118.993 45.3652 120.868 47.0764 126.167C47.2839 126.809 48.1975 126.809 48.405 126.167C50.1163 120.868 51.9907 118.993 57.2897 117.282C57.932 117.075 57.932 116.161 57.2897 115.954C51.9907 114.242 50.1163 112.368 48.405 107.069C48.1978 106.427 47.2839 106.427 47.0764 107.069Z" fill="#FED402"/>
<path d="M42.9971 113.7C41.7824 114.602 40.2449 115.291 38.1917 115.954C37.5494 116.161 37.5494 117.075 38.1917 117.282C43.4907 118.994 45.3651 120.868 47.0764 126.167C47.2839 126.809 48.1975 126.809 48.405 126.167C49.0682 124.114 49.7569 122.576 50.6589 121.361C49.1249 117.047 47.3121 115.234 42.9971 113.7Z" fill="#FAC600"/>
<path d="M90.5764 8.83297C88.8651 14.132 86.9907 16.0064 81.6917 17.7177C81.0494 17.9252 81.0494 18.8388 81.6917 19.0463C86.9907 20.7575 88.8651 22.6322 90.5764 27.931C90.7839 28.5733 91.6975 28.5733 91.905 27.931C93.6162 22.632 95.4907 20.7575 100.79 19.0463C101.432 18.8388 101.432 17.9252 100.79 17.7177C95.4907 16.0064 93.6162 14.132 91.905 8.83297C91.6975 8.19093 90.7839 8.19093 90.5764 8.83297Z" fill="#FED402"/>
<path d="M86.4257 15.5178C85.2223 16.3937 83.7046 17.0677 81.6917 17.7176C81.0494 17.9251 81.0494 18.8388 81.6917 19.0463C86.9907 20.7575 88.8651 22.6322 90.5764 27.931C90.7839 28.5733 91.6975 28.5733 91.905 27.931C92.5421 25.9582 93.202 24.4605 94.0526 23.2687C92.5189 18.8965 90.7246 17.0598 86.4257 15.5178Z" fill="#FAC600"/>
</svg>
