<svg width="135" height="119" viewBox="0 0 135 119" fill="none" xmlns="http://www.w3.org/2000/svg">
<g clip-path="url(#clip0)">
<path d="M114.085 14.2945H85.1814L86.0164 18.451C86.0821 18.7776 86.3112 19.0542 86.6445 19.2097L94.2593 22.764C94.59 22.9184 94.7202 23.2704 94.5562 23.566L90.7759 30.3702C90.6101 30.6681 90.6101 31.0102 90.7759 31.3083L94.5562 38.1125C94.7202 38.4079 94.59 38.7601 94.2593 38.9145L86.6445 42.4688C86.3112 42.6243 86.0821 42.9009 86.0164 43.2275L84.5185 50.6828C84.4599 50.9735 84.1739 51.1846 83.8382 51.1846C83.806 51.1846 83.7736 51.1827 83.7409 51.1786L75.2003 50.1252C75.1439 50.1183 75.0872 50.1148 75.0308 50.1148C74.7133 50.1148 74.4125 50.2213 74.1841 50.415L67.9802 55.6735C67.8505 55.7834 67.6799 55.8438 67.4998 55.8438C67.3194 55.8438 67.1488 55.7834 67.0194 55.6735L60.8152 50.415C60.5868 50.2215 60.2862 50.1148 59.9688 50.1148C59.9124 50.1148 59.8557 50.1183 59.799 50.1252L51.2584 51.1786C51.2257 51.1827 51.1933 51.1846 51.1611 51.1846C50.8254 51.1846 50.5396 50.9735 50.4811 50.6828L48.9829 43.2277C48.9172 42.9011 48.6884 42.6248 48.3548 42.469L40.7402 38.9147C40.4096 38.7604 40.2791 38.4083 40.4433 38.1128L44.2236 31.3085C44.3892 31.0104 44.3892 30.6686 44.2236 30.3705L40.4433 23.5662C40.2791 23.2709 40.4096 22.9186 40.74 22.7642L48.3548 19.2099C48.6884 19.0542 48.9172 18.7776 48.9829 18.451L49.8182 14.2947H20.9388L20.2363 14.5331V117.308C20.2363 117.967 20.8444 118.5 21.5945 118.5H113.405C114.155 118.5 114.763 117.967 114.763 117.308V14.5329L114.085 14.2945Z" fill="#FFF3DE"/>
<path d="M22.0242 22.1509C22.3746 21.5276 23.3869 21.5276 23.7373 22.1509L27.063 28.066C27.2022 28.3134 27.4711 28.4849 27.7823 28.5247L33.8188 29.2947V14.5331L34.5212 14.2947H20.9397L20.2373 14.5331V25.3291L22.0242 22.1509Z" fill="#FFE5C2"/>
<path d="M33.8181 117.308V32.5541L30.3663 35.5074C30.1412 35.6999 30.0386 35.9774 30.0916 36.2496L31.362 42.7509C31.4959 43.4358 30.6767 43.9581 29.9761 43.6348L23.3245 40.5654C23.0463 40.4369 22.7138 40.4369 22.4354 40.5654L20.2363 41.5803V117.308C20.2363 117.966 20.8444 118.5 21.5945 118.5H35.176C34.4261 118.5 33.8181 117.966 33.8181 117.308Z" fill="#FFE5C2"/>
<path d="M113.406 0H21.5945C20.8444 0 20.2363 0.533713 20.2363 1.19217V14.5331H49.7707L50.4816 10.9957C50.5399 10.705 50.826 10.4942 51.1616 10.4942C51.1938 10.4942 51.2262 10.496 51.2589 10.5002L59.7995 11.5535C59.8559 11.5605 59.9129 11.5639 59.9693 11.5639C60.2868 11.5639 60.5874 11.4575 60.8157 11.2637L67.0199 6.00531C67.1494 5.89538 67.32 5.83497 67.5003 5.83497C67.6804 5.83497 67.851 5.89538 67.9807 6.00531L74.1847 11.2637C74.4133 11.4575 74.7141 11.5639 75.0313 11.5639C75.0877 11.5639 75.1444 11.5605 75.2011 11.5535L83.7414 10.5002C83.7741 10.496 83.8068 10.4942 83.8387 10.4942C84.1744 10.4942 84.4605 10.7053 84.519 10.9957L85.2296 14.5331H114.764V1.19217C114.764 0.533713 114.155 0 113.406 0V0Z" fill="#0593FC"/>
<path d="M35.176 0H21.5945C20.8444 0 20.2363 0.533713 20.2363 1.19217V14.5331H33.8178V1.19217C33.8181 0.533713 34.4261 0 35.176 0V0Z" fill="#0182FC"/>
<path d="M44.3533 69.4362H36.8057C36.3556 69.4362 35.9907 69.1158 35.9907 68.7208V62.0956C35.9907 61.7006 36.3556 61.3802 36.8057 61.3802H44.3533C44.8034 61.3802 45.1684 61.7006 45.1684 62.0956V68.7208C45.1681 69.1158 44.8032 69.4362 44.3533 69.4362Z" fill="white"/>
<path d="M99.0088 66.8757H54.0396C52.9474 66.8757 52.062 66.0985 52.062 65.1398C52.062 64.1812 52.9474 63.404 54.0396 63.404H99.0088C100.101 63.404 100.986 64.1812 100.986 65.1398C100.986 66.0985 100.101 66.8757 99.0088 66.8757Z" fill="#8AC9FE"/>
<path d="M44.3533 82.723H36.8057C36.3556 82.723 35.9907 82.4027 35.9907 82.0076V75.3825C35.9907 74.9874 36.3556 74.6671 36.8057 74.6671H44.3533C44.8034 74.6671 45.1684 74.9874 45.1684 75.3825V82.0076C45.1681 82.4027 44.8032 82.723 44.3533 82.723Z" fill="white"/>
<path d="M99.0088 80.1623H54.0396C52.9474 80.1623 52.062 79.3851 52.062 78.4265C52.062 77.4678 52.9474 76.6906 54.0396 76.6906H99.0088C100.101 76.6906 100.986 77.4678 100.986 78.4265C100.986 79.3851 100.101 80.1623 99.0088 80.1623Z" fill="#8AC9FE"/>
<path d="M44.3533 96.0098H36.8057C36.3556 96.0098 35.9907 95.6895 35.9907 95.2944V88.6693C35.9907 88.2742 36.3556 87.9539 36.8057 87.9539H44.3533C44.8034 87.9539 45.1684 88.2742 45.1684 88.6693V95.2944C45.1681 95.6895 44.8032 96.0098 44.3533 96.0098Z" fill="white"/>
<path d="M99.0088 93.4493H54.0396C52.9474 93.4493 52.062 92.6721 52.062 91.7134C52.062 90.7548 52.9474 89.9776 54.0396 89.9776H99.0088C100.101 89.9776 100.986 90.7548 100.986 91.7134C100.986 92.6721 100.101 93.4493 99.0088 93.4493Z" fill="#8AC9FE"/>
<path d="M44.3533 109.297H36.8057C36.3556 109.297 35.9907 108.976 35.9907 108.581V101.956C35.9907 101.561 36.3556 101.241 36.8057 101.241H44.3533C44.8034 101.241 45.1684 101.561 45.1684 101.956V108.581C45.1681 108.976 44.8032 109.297 44.3533 109.297Z" fill="white"/>
<path d="M44.3533 69.4362H36.8057C36.3556 69.4362 35.9907 69.1158 35.9907 68.7208V62.0956C35.9907 61.7006 36.3556 61.3802 36.8057 61.3802H44.3533C44.8034 61.3802 45.1684 61.7006 45.1684 62.0956V68.7208C45.1681 69.1158 44.8032 69.4362 44.3533 69.4362Z" fill="#0593FC"/>
<path d="M40.3948 68.7208V62.0956C40.3948 61.7006 40.7598 61.3802 41.2098 61.3802H36.8057C36.3556 61.3802 35.9907 61.7006 35.9907 62.0956V68.7208C35.9907 69.1158 36.3556 69.4362 36.8057 69.4362H41.2098C40.7598 69.4362 40.3948 69.1158 40.3948 68.7208Z" fill="#0182FC"/>
<path d="M44.3533 82.723H36.8057C36.3556 82.723 35.9907 82.4027 35.9907 82.0076V75.3825C35.9907 74.9874 36.3556 74.6671 36.8057 74.6671H44.3533C44.8034 74.6671 45.1684 74.9874 45.1684 75.3825V82.0076C45.1681 82.4027 44.8032 82.723 44.3533 82.723Z" fill="#0593FC"/>
<path d="M40.3948 82.0076V75.3825C40.3948 74.9874 40.7598 74.6671 41.2098 74.6671H36.8057C36.3556 74.6671 35.9907 74.9874 35.9907 75.3825V82.0076C35.9907 82.4027 36.3556 82.723 36.8057 82.723H41.2098C40.7598 82.723 40.3948 82.4027 40.3948 82.0076Z" fill="#0182FC"/>
<path d="M44.3533 96.0098H36.8057C36.3556 96.0098 35.9907 95.6895 35.9907 95.2944V88.6693C35.9907 88.2742 36.3556 87.9539 36.8057 87.9539H44.3533C44.8034 87.9539 45.1684 88.2742 45.1684 88.6693V95.2944C45.1681 95.6895 44.8032 96.0098 44.3533 96.0098Z" fill="#0593FC"/>
<path d="M40.3948 95.2944V88.6693C40.3948 88.2742 40.7598 87.9539 41.2098 87.9539H36.8057C36.3556 87.9539 35.9907 88.2742 35.9907 88.6693V95.2944C35.9907 95.6895 36.3556 96.0098 36.8057 96.0098H41.2098C40.7598 96.0098 40.3948 95.6895 40.3948 95.2944Z" fill="#0182FC"/>
<path d="M44.3533 109.297H36.8057C36.3556 109.297 35.9907 108.976 35.9907 108.581V101.956C35.9907 101.561 36.3556 101.241 36.8057 101.241H44.3533C44.8034 101.241 45.1684 101.561 45.1684 101.956V108.581C45.1681 108.976 44.8032 109.297 44.3533 109.297Z" fill="#0593FC"/>
<path d="M40.3948 108.581V101.956C40.3948 101.561 40.7598 101.241 41.2098 101.241H36.8057C36.3556 101.241 35.9907 101.561 35.9907 101.956V108.581C35.9907 108.976 36.3556 109.297 36.8057 109.297H41.2098C40.7598 109.297 40.3948 108.976 40.3948 108.581Z" fill="#0182FC"/>
<path d="M99.0088 106.736H54.0396C52.9474 106.736 52.062 105.959 52.062 105C52.062 104.041 52.9474 103.264 54.0396 103.264H99.0088C100.101 103.264 100.986 104.041 100.986 105C100.986 105.959 100.101 106.736 99.0088 106.736Z" fill="#8AC9FE"/>
<path d="M68.1632 5.83847L74.3674 11.0969C74.5788 11.2763 74.8726 11.3601 75.1636 11.324L83.7042 10.2706C84.2136 10.2079 84.6885 10.5104 84.7779 10.9553L86.2758 18.4106C86.327 18.6647 86.5084 18.8841 86.7681 19.0052L94.3829 22.5595C94.8372 22.7715 95.0187 23.2614 94.793 23.6672L91.0127 30.4714C90.8838 30.7033 90.8838 30.9746 91.0127 31.2065L94.793 38.0108C95.0184 38.4167 94.8372 38.9064 94.3829 39.1185L86.7681 42.6728C86.5086 42.794 86.327 43.0132 86.2758 43.2673L84.7779 50.7227C84.6885 51.1675 84.2139 51.4702 83.7042 51.4073L75.1636 50.354C74.8726 50.3181 74.5788 50.4019 74.3674 50.581L68.1632 55.8397C67.793 56.1533 67.2063 56.1533 66.8361 55.8397L60.6319 50.581C60.4204 50.4016 60.1267 50.3179 59.8356 50.354L51.295 51.4073C50.7856 51.47 50.3107 51.1675 50.2213 50.7227L48.7234 43.2673C48.6723 43.0132 48.4909 42.7938 48.2311 42.6728L40.6163 39.1185C40.162 38.9064 39.9806 38.4165 40.2063 38.0108L43.9866 31.2065C44.1155 30.9746 44.1155 30.7033 43.9866 30.4714L40.2063 23.6672C39.9809 23.2612 40.162 22.7715 40.6163 22.5595L48.2311 19.0052C48.4906 18.8839 48.6723 18.6647 48.7234 18.4106L50.2213 10.9553C50.3107 10.5104 50.7853 10.2077 51.295 10.2706L59.8356 11.324C60.1267 11.3598 60.4204 11.276 60.6319 11.0969L66.8361 5.83847C67.2063 5.52463 67.7932 5.52463 68.1632 5.83847Z" fill="#FED402"/>
<path d="M67.4998 43.4449C75.431 43.4449 81.8604 37.8012 81.8604 30.8394C81.8604 23.8777 75.431 18.234 67.4998 18.234C59.5686 18.234 53.1392 23.8777 53.1392 30.8394C53.1392 37.8012 59.5686 43.4449 67.4998 43.4449Z" fill="#97D729"/>
<path d="M61.5956 30.8394C61.5956 25.1695 65.8608 20.3746 71.7282 18.7902C70.3914 18.4291 68.9718 18.234 67.5003 18.234C59.569 18.234 53.1396 23.8776 53.1396 30.8394C53.1396 37.8013 59.569 43.4449 67.5003 43.4449C68.9721 43.4449 70.3914 43.2498 71.7282 42.8887C65.8608 41.3042 61.5956 36.5094 61.5956 30.8394Z" fill="#8BC727"/>
<path d="M67.4998 45.1807C58.4909 45.1807 51.1616 38.7472 51.1616 30.8394C51.1616 22.9317 58.4909 16.4982 67.4998 16.4982C76.5087 16.4982 83.838 22.9317 83.838 30.8394C83.838 38.7472 76.5087 45.1807 67.4998 45.1807ZM67.4998 19.9698C60.6717 19.9698 55.1167 24.8459 55.1167 30.8394C55.1167 36.833 60.6717 41.709 67.4998 41.709C74.3278 41.709 79.8829 36.833 79.8829 30.8394C79.8829 24.8459 74.3278 19.9698 67.4998 19.9698Z" fill="#E8B800"/>
<path d="M66.5875 36.1398C66.0815 36.1398 65.5752 35.9703 65.1892 35.6313L59.611 30.7348C58.8387 30.0569 58.8387 28.9578 59.611 28.2801C60.3833 27.6022 61.6354 27.6022 62.4075 28.2801L66.5875 31.9492L72.5918 26.6787C73.3646 26.0006 74.6165 26.0008 75.3886 26.6787C76.1606 27.3566 76.1609 28.4558 75.3886 29.1334L67.9857 35.6315C67.5997 35.9703 67.0934 36.1398 66.5875 36.1398Z" fill="white"/>
<path d="M23.7365 22.151L27.0622 28.066C27.2015 28.3134 27.4704 28.4849 27.7815 28.5247L35.2181 29.4732C36.0015 29.5732 36.3145 30.4182 35.7476 30.9033L30.3663 35.5077C30.1411 35.7002 30.0386 35.9777 30.0916 36.2499L31.3619 42.7512C31.4959 43.4361 30.6767 43.9584 29.9761 43.6351L23.3244 40.5654C23.0463 40.437 22.7138 40.437 22.4353 40.5654L15.7837 43.6349C15.0828 43.9582 14.2639 43.4358 14.3978 42.751L15.6682 36.2497C15.7215 35.9777 15.6186 35.7002 15.3934 35.5074L10.0122 30.9031C9.44527 30.418 9.75798 29.5729 10.5416 29.473L17.9782 28.5245C18.2894 28.4849 18.5583 28.3132 18.6975 28.0658L22.0232 22.1507C22.3739 21.5277 23.3861 21.5277 23.7365 22.151Z" fill="#FED402"/>
<path d="M21.6856 40.2613L22.956 33.76C23.0093 33.488 22.9065 33.2105 22.6813 33.018L17.5012 28.5856L10.5416 29.4732C9.75818 29.5731 9.44521 30.4182 10.0121 30.9033L15.3934 35.5076C15.6186 35.7002 15.7211 35.9777 15.6681 36.2499L14.3978 42.7512C14.2638 43.436 15.083 43.9584 15.7836 43.6351L21.8185 40.8501C21.6994 40.6858 21.6424 40.4823 21.6856 40.2613Z" fill="#FAC600"/>
<path d="M112.976 22.1511L116.302 28.0661C116.441 28.3135 116.71 28.485 117.021 28.5248L124.458 29.4733C125.241 29.5733 125.554 30.4183 124.987 30.9034L119.606 35.5078C119.381 35.7003 119.278 35.9778 119.331 36.25L120.602 42.7513C120.736 43.4362 119.916 43.9585 119.216 43.6352L112.564 40.5658C112.286 40.4373 111.954 40.4373 111.675 40.5658L105.023 43.6352C104.323 43.9585 103.504 43.4362 103.638 42.7513L104.908 36.25C104.961 35.9781 104.858 35.7006 104.633 35.5078L99.2519 30.9034C98.685 30.4183 98.9977 29.5733 99.7814 29.4733L107.218 28.5248C107.529 28.4853 107.798 28.3135 107.937 28.0661L111.263 22.1511C111.614 21.5278 112.626 21.5278 112.976 22.1511Z" fill="#FED402"/>
<path d="M109.932 40.8627L111.202 34.3614C111.255 34.0894 111.152 33.8119 110.927 33.6193L105.546 29.015C105.457 28.9388 105.392 28.8534 105.345 28.7639L99.7818 29.4735C98.9984 29.5735 98.6854 30.4185 99.2523 30.9036L104.634 35.5079C104.859 35.7005 104.961 35.978 104.908 36.2502L103.638 42.7515C103.504 43.4363 104.323 43.9587 105.024 43.6354L109.996 41.3408C109.925 41.1989 109.898 41.036 109.932 40.8627Z" fill="#FAC600"/>
</g>
<defs>
<clipPath id="clip0">
<rect width="135" height="118.5" fill="white"/>
</clipPath>
</defs>
</svg>
