<svg width="80" height="80" viewBox="0 0 80 80" fill="none" xmlns="http://www.w3.org/2000/svg">
<g clip-path="url(#clip0)">
<path d="M80.0002 3.95618V14.5056L71.209 18.0221L74.7255 3.95618H80.0002Z" fill="#367596"/>
<path d="M74.7249 3.95618V18.0221H47.9116L51.4282 3.95618H74.7249Z" fill="#5195AF"/>
<path d="M0 3.95618V14.5056L5.27469 18.0221H51.4286V3.95618H0Z" fill="#4A8EC5"/>
<path d="M80 14.5055V76.0439H74.7254L67.6924 45.2747L74.7254 14.5055H80Z" fill="#4A8EC5"/>
<path d="M74.7253 14.5055H0V76.0439H74.7253V14.5055Z" fill="#F5F5F5"/>
<path d="M63.0771 10.9891C64.0482 10.9891 64.8354 10.2019 64.8354 9.23082C64.8354 8.25974 64.0482 7.47253 63.0771 7.47253C62.1061 7.47253 61.3188 8.25974 61.3188 9.23082C61.3188 10.2019 62.1061 10.9891 63.0771 10.9891Z" fill="#F5F5F5"/>
<path d="M55.8681 10.9891C56.8392 10.9891 57.6264 10.2019 57.6264 9.23082C57.6264 8.25974 56.8392 7.47253 55.8681 7.47253C54.8971 7.47253 54.1099 8.25974 54.1099 9.23082C54.1099 10.2019 54.8971 10.9891 55.8681 10.9891Z" fill="#F5F5F5"/>
<path d="M70.2856 10.9891C71.2567 10.9891 72.0439 10.2019 72.0439 9.23082C72.0439 8.25974 71.2567 7.47253 70.2856 7.47253C69.3146 7.47253 68.5273 8.25974 68.5273 9.23082C68.5273 10.2019 69.3146 10.9891 70.2856 10.9891Z" fill="#78E3EC"/>
<path d="M43.1625 50.3023L50.0903 57.2301L51.9552 55.3652L45.0274 48.4374L43.1625 50.3023Z" fill="#5195AF"/>
<path d="M23.1296 51.1559C29.4123 57.4386 39.5987 57.4386 45.8815 51.1559L36.1021 38.1834L23.1296 28.4041C16.8468 34.6869 16.8468 44.8731 23.1296 51.1559Z" fill="#111449"/>
<path d="M23.1299 28.4043L45.8816 51.1561C52.1643 44.8735 52.1643 34.6871 45.8816 28.4043C39.5988 22.1216 29.4125 22.1216 23.1299 28.4043Z" fill="#2F5E88"/>
<path d="M26.6914 31.9661L42.3194 47.594C46.635 43.2784 46.635 36.2817 42.3194 31.9661C38.0037 27.6505 31.0069 27.6505 26.6914 31.9661Z" fill="#4A8EC5"/>
<path d="M39.8327 34.4525C35.5171 30.1369 29.6335 29.0238 26.6913 31.966C22.3757 36.2816 22.3757 43.2783 26.6913 47.5939C31.0069 51.9096 38.0037 51.9096 42.3193 47.5939C45.2615 44.6518 44.1483 38.7682 39.8327 34.4525Z" fill="white"/>
<path d="M57.8533 66.8578L61.583 63.1281L51.2902 52.8352L47.5605 56.565L57.8533 66.8578Z" fill="#F28F8F"/>
</g>
<defs>
<clipPath id="clip0">
<rect width="80" height="80" fill="white"/>
</clipPath>
</defs>
</svg>
