<svg width="80" height="80" viewBox="0 0 80 80" fill="none" xmlns="http://www.w3.org/2000/svg">
<path d="M49.8199 60.2202V69.0115L40 72.5279L30.1802 69.0115V60.2202H49.8199Z" fill="#88ACB5"/>
<path d="M49.8197 69.0109H30.1802V76.464H49.8197V69.0109Z" fill="#A7CBCF"/>
<path d="M61.8183 77.7825H18.182C17.4537 77.7825 16.8633 77.1921 16.8633 76.4638C16.8633 75.7355 17.4537 75.145 18.182 75.145H61.8184C62.5469 75.145 63.1372 75.7355 63.1372 76.4638C63.1372 77.1921 62.5466 77.7825 61.8183 77.7825Z" fill="#4A8EC5"/>
<path d="M78.1819 2.21753H72.9072V56.5244L79.9999 53.0078V4.0355C79.9999 3.0369 79.1824 2.21753 78.1819 2.21753Z" fill="#A7CBCF"/>
<path d="M72.9072 2.21753H1.81797C0.817656 2.21753 0 3.0369 0 4.0355V53.0078L5.27469 56.5243H74.7253V4.0355C74.7253 3.0369 73.9077 2.21753 72.9072 2.21753Z" fill="#F5F5F5"/>
<path d="M74.7252 53.0078L72.9072 63.7366H78.1819C79.1824 63.7366 79.9999 62.9189 79.9999 61.9186V53.0078H74.7252Z" fill="#367596"/>
<path d="M0 53.0078V61.9186C0 62.9191 0.817656 63.7366 1.81797 63.7366H72.9072C73.9077 63.7366 74.7252 62.9189 74.7252 61.9186V53.0078H0Z" fill="#4A8EC5"/>
<path d="M53.8604 17.2839V45.9749H50.344L45.0693 31.6294L50.344 17.2839H53.8604Z" fill="#C20035"/>
<path d="M50.344 17.2836H26.1401V45.9745H50.344V17.2836Z" fill="#F28F8F"/>
<path d="M46.1539 22.1183C45.4255 22.1183 44.8351 21.528 44.8351 20.7996V15.4049C44.8351 12.7388 42.6659 10.5697 40 10.5697C37.3339 10.5697 35.1648 12.7389 35.1648 15.4049V20.7997C35.1648 21.5282 34.5745 22.1185 33.8461 22.1185C33.1177 22.1185 32.5273 21.5282 32.5273 20.7997V15.4049C32.5273 11.2844 35.8794 7.93237 39.9998 7.93237C44.1203 7.93237 47.4723 11.2844 47.4723 15.4049V20.7997C47.4725 21.528 46.8823 22.1183 46.1539 22.1183Z" fill="#940044"/>
</svg>
