<svg width="133" height="119" viewBox="0 0 133 119" fill="none" xmlns="http://www.w3.org/2000/svg">
<path d="M66.5 38.089C78.4825 38.089 88.1962 29.5625 88.1962 19.0445C88.1962 8.5265 78.4825 0 66.5 0C54.5174 0 44.8037 8.5265 44.8037 19.0445C44.8037 29.5625 54.5174 38.089 66.5 38.089Z" fill="#97D729"/>
<path d="M56.178 19.0445C56.178 10.2544 62.9641 2.85951 72.1871 0.665637C70.3741 0.234223 68.4685 0 66.5 0C54.5174 0 44.8037 8.52645 44.8037 19.0445C44.8037 29.5625 54.5174 38.089 66.5 38.089C68.4685 38.089 70.3741 37.8547 72.1871 37.4233C62.9641 35.2294 56.178 27.8345 56.178 19.0445Z" fill="#8BC727"/>
<path d="M65.0333 26.4815C64.5273 26.4815 64.0211 26.3121 63.6351 25.9733L54.6647 18.0993C53.8924 17.4211 53.8924 16.3222 54.6647 15.6443C55.437 14.9667 56.6891 14.9667 57.4612 15.6443L65.033 22.291L75.5388 13.069C76.3113 12.3914 77.5633 12.3914 78.3356 13.069C79.1078 13.7472 79.1078 14.8461 78.3356 15.524L66.4313 25.973C66.0453 26.3121 65.5393 26.4815 65.0333 26.4815Z" fill="white"/>
<path d="M101.717 50.0623L85.3246 64.4413C84.3788 65.2705 83.1213 65.7276 81.7842 65.7276C80.4461 65.7276 79.1879 65.2701 78.2415 64.4396L77.8745 64.772L93.167 78.1956L113.467 60.3764L101.717 50.0623Z" fill="#D88A55"/>
<path d="M101.126 84.8532L78.0566 64.6033L78.243 64.4395L75.7355 62.2387C74.4408 61.102 72.7193 60.476 70.8879 60.476C69.0569 60.476 67.3352 61.102 66.0403 62.2387L60.2186 67.3487C59.0551 68.3701 57.5078 68.9325 55.8625 68.9325C54.2172 68.9325 52.67 68.3701 51.5064 67.3487C50.3428 66.3274 49.7021 64.9695 49.7021 63.525C49.7021 62.0806 50.3431 60.7227 51.5064 59.7013L54.1479 57.4336L54.5858 56.7194L40.5999 44.5067L18.8203 63.6243L31.9422 75.1424C32.9299 76.0094 33.7608 76.9852 34.4265 78.0353L34.7572 77.745C35.7349 76.8868 37.0345 76.4142 38.4172 76.4142C39.8653 76.4142 41.2583 76.9535 42.2389 77.8936C44.0803 79.6593 43.9535 82.5223 41.9562 84.2755L42.329 84.6028L43.8744 83.2465C44.8521 82.3885 46.1515 81.9159 47.5339 81.9159C48.9472 81.9159 50.2671 82.4063 51.2506 83.2974C53.2058 85.0682 53.1802 87.9275 51.1937 89.6712L48.6825 91.8755L49.0553 92.2027C50.033 91.3448 51.3324 90.8722 52.7145 90.8722C54.1278 90.8722 55.448 91.3628 56.4315 92.2536C58.3867 94.0244 58.3611 96.8839 56.3746 98.6277L53.3442 101.288L53.717 101.615C54.6947 100.757 55.9941 100.284 57.3765 100.284C58.7898 100.284 60.11 100.775 61.0932 101.666C63.0484 103.437 63.0228 106.296 61.0363 108.04L57.9474 110.751L64.8936 116.848C67.4024 119.051 71.4701 119.051 73.9789 116.848C76.4877 114.646 76.4877 111.076 73.9792 108.874C76.488 111.076 80.5557 111.076 83.0642 108.874C85.5731 106.671 85.5731 103.101 83.0642 100.899C85.5731 103.101 89.6407 103.101 92.1496 100.899C94.6584 98.6964 94.6584 95.1261 92.1496 92.9239C94.7135 95.1743 98.9049 95.125 101.397 92.7758C103.772 90.5382 103.589 87.0153 101.126 84.8532Z" fill="#FFE5C2"/>
<path d="M51.1173 83.187L51.4899 82.86L30.7697 64.4425C30.2603 63.9898 30.263 63.2609 30.7755 62.811L46.1139 49.3474L40.5989 44.5065L18.8193 63.6241L31.9412 75.1422C32.9289 76.0092 33.7598 76.985 34.4255 78.035L34.7562 77.7448C35.7339 76.8866 37.0335 76.414 38.4162 76.414C39.8643 76.414 41.2573 76.9533 42.2379 77.8934C44.0794 79.6591 43.9525 82.5221 41.9552 84.2753L42.3281 84.6025L43.7833 83.3252C44.7399 82.4855 46.0142 81.9546 47.3663 81.9178C48.7806 81.8796 50.1093 82.3344 51.1173 83.187Z" fill="#FED2A4"/>
<path d="M69.1101 109.007L68.9147 109.179L68.5419 108.852C68.6078 108.794 68.6661 108.732 68.7278 108.672L61.9709 102.741C62.9716 104.452 62.6565 106.617 61.0357 108.04L57.9468 110.751L64.7906 116.758C67.3374 118.994 71.5673 119.048 74.0653 116.77C74.7511 116.145 75.2334 115.414 75.526 114.639L69.1101 109.007Z" fill="#FED2A4"/>
<path d="M92.8572 42.2848L87.3148 47.1498C83.6991 50.3236 78.2793 51.3054 73.5277 49.6475C69.3116 48.1765 64.5702 48.7854 61.0291 51.1582L51.3191 59.5377C48.8103 61.7399 48.8103 65.3104 51.3191 67.5126C53.828 69.7148 57.8956 69.7148 60.4045 67.5126L66.2261 62.4022C68.8003 60.1426 72.974 60.1426 75.5482 62.4022L78.0557 64.6033C80.1142 66.4102 83.4518 66.4111 85.5116 64.6051L101.907 50.2289L92.8572 42.2848Z" fill="#C57A44"/>
<path d="M61.2816 101.504C59.1678 99.5897 55.6773 99.5656 53.5297 101.451L56.5601 98.7908C58.6607 96.9468 58.6874 93.9647 56.6199 92.092C54.5061 90.1775 51.0156 90.1535 48.868 92.0386L51.3792 89.8343C53.4798 87.9904 53.5065 85.0082 51.439 83.1356C49.3252 81.221 45.8347 81.197 43.6871 83.0823L42.1417 84.4388C44.2192 82.615 44.4167 79.6396 42.4325 77.7371C40.3263 75.7177 36.752 75.6657 34.5701 77.5809L21.9642 88.6458C19.8401 90.5103 19.8401 93.5333 21.9642 95.3978C24.0883 97.2623 27.5322 97.2623 29.6563 95.3978C27.5322 97.2623 27.5322 100.285 29.6563 102.15C31.7804 104.014 35.2245 104.014 37.3484 102.15C35.2243 104.014 35.2243 107.037 37.3484 108.902C39.4725 110.766 42.9166 110.766 45.0408 108.902L47.3948 106.836C45.2707 108.7 45.2707 111.723 47.3948 113.588C49.519 115.452 52.963 115.452 55.0869 113.588L61.2215 108.203C63.3224 106.359 63.3491 103.377 61.2816 101.504Z" fill="#D88A55"/>
<path d="M27.62 91.1558L40.2256 80.0909C41.0725 79.3475 42.1298 78.9043 43.2291 78.7536C43.0194 78.393 42.7581 78.0496 42.4322 77.7371C40.326 75.7177 36.7517 75.6657 34.5698 77.5809L21.9642 88.6458C19.8401 90.5103 19.8401 93.5333 21.9642 95.3978C23.2383 96.5161 24.9861 96.9584 26.6402 96.7353C25.5733 94.9363 25.8992 92.6663 27.62 91.1558Z" fill="#C57A44"/>
<path d="M35.3068 97.8319L49.3373 85.5162C50.1771 84.779 51.2231 84.3379 52.311 84.1835C52.0798 83.8098 51.7924 83.4556 51.439 83.1356C49.3252 81.221 45.8347 81.197 43.6871 83.0823L29.6566 95.398C27.5324 97.2625 27.5324 100.285 29.6566 102.15C30.9409 103.277 32.7067 103.718 34.3724 103.482C33.2536 101.672 33.5631 99.3624 35.3068 97.8319Z" fill="#C57A44"/>
<path d="M42.9787 104.617L54.4977 94.5056C55.3475 93.7597 56.408 93.3176 57.5099 93.1684C57.276 92.7842 56.982 92.4206 56.6197 92.0924C54.5059 90.1779 51.0154 90.1538 48.8675 92.0389L37.3485 102.15C35.2243 104.015 35.2243 107.038 37.3485 108.902C38.6228 110.021 40.3712 110.463 42.0255 110.24C40.9276 108.434 41.2442 106.139 42.9787 104.617Z" fill="#C57A44"/>
<path d="M52.981 109.277L59.1156 103.892C59.9717 103.14 61.0422 102.697 62.1528 102.552C61.9219 102.178 61.6347 101.824 61.2814 101.504C59.1675 99.5899 55.6771 99.5659 53.5294 101.451L47.3949 106.836C45.2707 108.701 45.2707 111.723 47.3949 113.588C48.6629 114.701 50.4005 115.144 52.0473 114.929C50.9278 113.118 51.2371 110.807 52.981 109.277Z" fill="#C57A44"/>
<path d="M43.0504 42.682L16.9962 65.5518C16.4153 66.0616 15.4738 66.0616 14.8932 65.5518L0.539656 52.9523C-0.0412134 52.4425 -0.0412134 51.616 0.539656 51.1063L26.5939 28.2365C27.1747 27.7267 28.1163 27.7267 28.6969 28.2365L43.0507 40.8359C43.6313 41.3458 43.6313 42.1723 43.0504 42.682Z" fill="#0593FC"/>
<path d="M11.8733 52.9523C11.2925 52.4425 11.2925 51.616 11.8733 51.1063L33.3122 32.2878L28.6969 28.2365C28.116 27.7267 27.1745 27.7267 26.5939 28.2365L0.539656 51.1063C-0.0412134 51.6162 -0.0412134 52.4427 0.539656 52.9523L14.8934 65.5518C15.4743 66.0616 16.4159 66.0616 16.9965 65.5518L21.6118 61.5005L11.8733 52.9523Z" fill="#0182FC"/>
<path d="M89.9488 40.0593L116.003 62.9291C116.584 63.439 117.525 63.439 118.106 62.9291L132.46 50.3297C133.041 49.8198 133.041 48.9933 132.46 48.4837L106.406 25.6139C105.825 25.104 104.883 25.104 104.303 25.6139L89.9488 38.2133C89.368 38.7229 89.368 39.5496 89.9488 40.0593Z" fill="#FE646F"/>
<path d="M101.704 40.0593C101.123 39.5494 101.123 38.7229 101.704 38.2133L111.232 29.85L106.406 25.6139C105.825 25.104 104.883 25.104 104.303 25.6139L89.9488 38.2133C89.368 38.7231 89.368 39.5496 89.9488 40.0593L116.003 62.9291C116.584 63.439 117.525 63.439 118.106 62.9291L122.932 58.6929L101.704 40.0593Z" fill="#FD4755"/>
</svg>
