<svg width="80" height="80" viewBox="0 0 80 80" fill="none" xmlns="http://www.w3.org/2000/svg">
<path d="M80.0002 3.95618V14.5056L71.209 18.0221L74.7255 3.95618H80.0002Z" fill="#367596"/>
<path d="M74.7254 3.95618V18.0221H47.9121L51.4287 3.95618H74.7254Z" fill="#5195AF"/>
<path d="M0 3.95618V14.5056L5.27469 18.0221H51.4286V3.95618H0Z" fill="#4A8EC5"/>
<path d="M80 14.5055V76.0439H74.7254L67.6924 45.2747L74.7254 14.5055H80Z" fill="#4A8EC5"/>
<path d="M74.7253 14.5055H0V76.0439H74.7253V14.5055Z" fill="#F5F5F5"/>
<path d="M63.0771 10.9891C64.0482 10.9891 64.8354 10.2019 64.8354 9.23082C64.8354 8.25974 64.0482 7.47253 63.0771 7.47253C62.1061 7.47253 61.3188 8.25974 61.3188 9.23082C61.3188 10.2019 62.1061 10.9891 63.0771 10.9891Z" fill="#F5F5F5"/>
<path d="M55.8681 10.9891C56.8392 10.9891 57.6264 10.2019 57.6264 9.23082C57.6264 8.25974 56.8392 7.47253 55.8681 7.47253C54.8971 7.47253 54.1099 8.25974 54.1099 9.23082C54.1099 10.2019 54.8971 10.9891 55.8681 10.9891Z" fill="#F5F5F5"/>
<path d="M70.2856 10.9891C71.2567 10.9891 72.0439 10.2019 72.0439 9.23082C72.0439 8.25974 71.2567 7.47253 70.2856 7.47253C69.3146 7.47253 68.5273 8.25974 68.5273 9.23082C68.5273 10.2019 69.3146 10.9891 70.2856 10.9891Z" fill="#78E3EC"/>
<path d="M17.3982 38.4263C17.3439 38.4263 17.2892 38.4231 17.2343 38.4162C16.7159 38.3513 16.2845 37.9866 16.1348 37.486L13.1017 27.361C12.8928 26.6634 13.2887 25.9284 13.9864 25.7193C14.684 25.5104 15.419 25.9063 15.6281 26.604L17.8034 33.8652L19.9006 30.3649C20.1389 29.9673 20.5682 29.7238 21.0318 29.7238C21.4954 29.7238 21.9248 29.9671 22.1631 30.3649L24.2603 33.8652L26.4359 26.6026C26.6448 25.9049 27.3803 25.509 28.0776 25.7179C28.7753 25.9268 29.1714 26.662 28.9623 27.3596L25.9289 37.486C25.7789 37.9866 25.3476 38.3512 24.8293 38.4162C24.3114 38.4813 23.8032 38.2335 23.5345 37.7854L21.032 33.6085L18.5295 37.7854C18.289 38.1862 17.8573 38.4263 17.3982 38.4263Z" fill="#27467A"/>
<path d="M35.1282 38.4246C35.0739 38.4246 35.0192 38.4213 34.9643 38.4145C34.4459 38.3496 34.0145 37.9849 33.8648 37.4843L30.8317 27.3592C30.6228 26.6615 31.0187 25.9265 31.7164 25.7174C32.4143 25.5084 33.149 25.9045 33.3581 26.6021L35.5334 33.8635L37.6306 30.3632C37.8689 29.9656 38.2982 29.7221 38.7618 29.7221C39.2254 29.7221 39.6548 29.9654 39.8931 30.3632L41.9903 33.8635L44.1659 26.6009C44.3748 25.9031 45.11 25.507 45.8076 25.7162C46.5053 25.9251 46.9014 26.6603 46.6923 27.3579L43.6589 37.4843C43.5089 37.9849 43.0776 38.3495 42.5593 38.4145C42.041 38.4793 41.5332 38.2318 41.2646 37.7837L38.7621 33.6068L36.2596 37.7837C36.0187 38.1843 35.5874 38.4246 35.1282 38.4246Z" fill="#27467A"/>
<path d="M60.1246 38.4233C59.6654 38.4233 59.2338 38.1831 58.9937 37.7822L56.4912 33.6053L53.9887 37.7822C53.7202 38.2304 53.2124 38.4779 52.6938 38.4129C52.1754 38.3481 51.744 37.9834 51.5943 37.4828L48.5612 27.3578C48.3523 26.6601 48.7482 25.9251 49.4458 25.7161C50.1438 25.5072 50.8785 25.9032 51.0876 26.6007L53.2629 33.862L55.3601 30.3617C55.5983 29.964 56.0277 29.7206 56.4913 29.7206C56.9549 29.7206 57.3843 29.9639 57.6226 30.3617L59.7198 33.862L61.8954 26.5997C62.1044 25.902 62.8396 25.5061 63.5371 25.715C64.2348 25.9239 64.6309 26.659 64.4218 27.3567L61.3884 37.4829C61.2384 37.9836 60.8071 38.3481 60.2888 38.4131C60.2335 38.42 60.1788 38.4233 60.1246 38.4233Z" fill="#27467A"/>
<path d="M21.3977 45.8989H14.3647V52.9319H21.3977V45.8989Z" fill="#367596"/>
<path d="M21.3977 58.2065H14.3647V65.2395H21.3977V58.2065Z" fill="#367596"/>
<path d="M63.1579 50.7336H57.8832C57.1549 50.7336 56.5645 50.1433 56.5645 49.4148C56.5645 48.6864 57.1549 48.0961 57.8832 48.0961H63.1579C63.8862 48.0961 64.4766 48.6864 64.4766 49.4148C64.4766 50.1433 63.8862 50.7336 63.1579 50.7336Z" fill="#5195AF"/>
<path d="M52.6085 50.7336H26.6723C25.944 50.7336 25.3535 50.1433 25.3535 49.4148C25.3535 48.6864 25.944 48.0961 26.6723 48.0961H52.6087C53.3369 48.0961 53.9274 48.6864 53.9274 49.4148C53.9274 50.1433 53.3368 50.7336 52.6085 50.7336Z" fill="#5195AF"/>
<path d="M63.1579 63.0412H57.8832C57.1549 63.0412 56.5645 62.4509 56.5645 61.7224C56.5645 60.994 57.1549 60.4037 57.8832 60.4037H63.1579C63.8862 60.4037 64.4766 60.994 64.4766 61.7224C64.4766 62.4509 63.8862 63.0412 63.1579 63.0412Z" fill="#5195AF"/>
<path d="M52.6085 63.0412H26.6723C25.944 63.0412 25.3535 62.4509 25.3535 61.7224C25.3535 60.994 25.944 60.4037 26.6723 60.4037H52.6087C53.3369 60.4037 53.9274 60.994 53.9274 61.7224C53.9274 62.4509 53.3368 63.0412 52.6085 63.0412Z" fill="#5195AF"/>
</svg>
